<svg xmlns="http://www.w3.org/2000/svg" width="32px" height="32px" viewBox="0 0 32 32">
  <path
    fill="#141E95"
    d="M26,27.7H6c-0.4,0-0.9-0.2-1.2-0.5c-0.3-0.3-0.5-0.7-0.5-1.2V6c0-0.4,0.2-0.9,0.5-1.2C5.1,4.5,5.6,4.3,6,4.3h8.3
	c0.4,0,0.9-0.2,1.2-0.5C15.8,3.5,16,3.1,16,2.7c0-0.4-0.2-0.9-0.5-1.2C15.2,1.2,14.8,1,14.3,1h-10C3.4,1,2.6,1.4,2,2
	C1.4,2.6,1,3.4,1,4.3v23.3c0,0.9,0.4,1.7,1,2.4c0.6,0.6,1.5,1,2.4,1h23.3c0.9,0,1.7-0.4,2.4-1c0.6-0.6,1-1.5,1-2.4v-10
	c0-0.4-0.2-0.9-0.5-1.2c-0.3-0.3-0.7-0.5-1.2-0.5s-0.9,0.2-1.2,0.5c-0.3,0.3-0.5,0.7-0.5,1.2V26c0,0.4-0.2,0.9-0.5,1.2
	S26.4,27.7,26,27.7z M19.3,2.7c0,0.4,0.2,0.9,0.5,1.2c0.3,0.3,0.7,0.5,1.2,0.5h4.3L10.1,19.5c-0.2,0.1-0.3,0.3-0.4,0.5
	c-0.1,0.2-0.2,0.4-0.2,0.7c0,0.2,0,0.5,0.1,0.7c0.1,0.2,0.2,0.4,0.4,0.6c0.2,0.2,0.4,0.3,0.6,0.4c0.2,0.1,0.4,0.1,0.7,0.1
	c0.2,0,0.5-0.1,0.7-0.2c0.2-0.1,0.4-0.2,0.5-0.4L27.7,6.7V11c0,0.4,0.2,0.9,0.5,1.2c0.3,0.3,0.7,0.5,1.2,0.5s0.9-0.2,1.2-0.5
	c0.3-0.3,0.5-0.7,0.5-1.2V1H21c-0.4,0-0.9,0.2-1.2,0.5C19.5,1.8,19.3,2.2,19.3,2.7z"
  />
</svg>
