<?xml version="1.0" encoding="utf-8"?>
<!-- Generator: Adobe Illustrator 26.0.2, SVG Export Plug-In . SVG Version: 6.00 Build 0)  -->
<svg version="1.1" id="Laag_1" xmlns="http://www.w3.org/2000/svg" xmlns:xlink="http://www.w3.org/1999/xlink" x="0px" y="0px"
	 viewBox="0 0 534.7 480.6" style="enable-background:new 0 0 534.7 480.6;" xml:space="preserve">
<style type="text/css">
	.st0{fill:none;stroke:#FFFFFF;stroke-miterlimit:10;}
	.st1{fill:#2C3288;}
</style>
<g>
	<path class="st0" d="M152.4,219.2h230v-13.8c-8.1-2.5-14.2-6.4-19.1-9.6c-6.2-4-10-6.5-17.1-6.5c-7.1,0-10.8,2.4-17.1,6.5
		c-7.8,5.1-18.5,12-35.6,12s-27.8-6.9-35.6-12c-6.2-4-10-6.5-17.1-6.5c-7.1,0-10.8,2.4-17.1,6.5c-7.8,5.1-18.5,12-35.6,12
		c-17.2,0-27.8-6.9-35.6-12c0,0,0,0-0.1,0V219.2z"/>
	<path class="st1" d="M398.9,190.8c-24.3,0-28.5-18.4-52.7-18.4c-24.2,0-28.4,18.4-52.7,18.4s-28.5-18.4-52.7-18.4
		s-28.4,18.4-52.7,18.4s-28.5-18.4-52.7-18.4v53.7c0,5.6,4.6,10.1,10.1,10.1h243.8c5.6,0,10.1-4.6,10.1-10.1v-36.2"/>
	<path class="st1" d="M412.2,60.4h-84.6l12.7,22.3h63.5c6.2,0,11.3,5.1,11.3,11.3v148c0,6.2-5.1,11.3-11.3,11.3h-273
		c-6.2,0-11.3-5.1-11.3-11.3V94c0-6.2,5.1-11.3,11.3-11.3h61.9c4.3-7.4,8.6-14.9,12.8-22.3h-83.1c-12.1,0-22,9.9-22,22v185.8
		c0,12.1,9.9,22,22,22h289.7c12.1,0,22-9.9,22-22V82.4C434.3,70.3,424.3,60.4,412.2,60.4z"/>
	<g>
		<path class="st1" d="M361.7,154.1l-83.5-146c-6.3-10.8-16.6-10.8-22.9,0l-84,146.1c0,0.1-0.1,0.1-0.1,0.2
			c-0.1,0.2-0.2,0.4-0.4,0.6c-0.8,1.6-1.3,3.3-1.3,5.2c0,4.1,2.2,7.7,5.5,9.7l0,0c3.7,2.2,6.9,3.6,11.4,3.9h3.2
			c6.1-0.3,9.8-2.7,15.5-6.5c7.8-5,18.4-12,35.6-12s27.8,6.9,35.6,12c5.8,3.7,9.4,6.1,15.5,6.5h3.2c6.1-0.3,9.8-2.7,15.5-6.5
			c7.8-5,18.4-12,35.6-12c6.7,0,12.4,1.1,17.3,2.6C363,156.7,362.5,155.4,361.7,154.1z M266.6,146c-7.8,0-14.1-6.3-14.1-14.1
			c0-7.8,6.3-14.1,14.1-14.1s14.1,6.3,14.1,14.1C280.8,139.7,274.4,146,266.6,146z M279.9,105.9h-26.5l-2-75.5h30.5L279.9,105.9z"/>
	</g>
	<rect x="209.8" y="303" class="st1" width="113.4" height="28.3"/>
</g>
<g>
	<path class="st1" d="M61,444.7c0,21.8-12.2,35-37.1,35H0v-69.7h23.8C48.7,409.9,61,422.8,61,444.7z M50.7,444.7
		c0-16.5-8.5-26.4-27-26.4H10.2v53h13.6C42.2,471.3,50.7,461.3,50.7,444.7z"/>
	<path class="st1" d="M116.8,454.7H78.4c0.6,12,6.4,18.2,15.7,18.2c5.9,0,11.4-2.8,13.2-11l9.1,2.4c-3.4,11.8-11.4,16.2-22.8,16.2
		c-16.4,0-25-11.8-25-28.2c0-16.4,9.8-26.9,24.9-26.9C108.3,425.5,117.1,435.5,116.8,454.7z M78.5,448.1h28.2
		c-0.3-9.8-5-15.1-13.2-15.1C85,432.9,79.7,438.1,78.5,448.1z"/>
	<path class="st1" d="M138.3,409.9v69.7h-9.8v-69.7H138.3z"/>
	<path class="st1" d="M165.3,425.1v1.4h12.9v7.7h-12.9v45.4h-9.8v-45.4h-8.1v-7.7h8v-1.4c0-12.9,7-18.9,19.5-18.9
		c2.7,0,5.6,0.3,8.5,1.5l-2.3,7.3c-1.9-1-4.1-1.6-6.2-1.6C168.2,413.4,165.3,417.4,165.3,425.1z"/>
	<path class="st1" d="M212.9,479.1c-2.6,1.2-5.5,1.5-7.8,1.5c-11.1,0-16.4-5-16.4-17v-29.4h-8.4v-7.7h8.4v-16.6h9.9v16.6h12.9v7.7
		h-12.9v29.3c0,7.2,1.9,9.7,6.9,9.7c1.7,0,3.6-0.4,5.4-1.4L212.9,479.1z"/>
	<path class="st1" d="M218.8,453.5V446h28v7.6H218.8z"/>
	<path class="st1" d="M271.6,418.3v21.9H306v8.4h-34.4v31.1h-10.2v-69.7h48.8v8.4H271.6z"/>
	<path class="st1" d="M332.2,418.3v20.8h37.4v8.4h-37.4v23.8h40.2v8.4h-50.4v-69.7h50.4v8.4H332.2z"/>
	<path class="st1" d="M474.2,409.9l-16.5,69.7h-14.4L427,423.3l-16.3,56.4h-14.4l-16.5-69.7h10.9l13.4,62.1l15.9-62.1h14l15.9,62.1
		l13.4-62.1H474.2z"/>
	<path class="st1" d="M478.7,459.7l9.8-2.5c2.7,11.1,11,15.1,20.1,15.1c10.3,0,15.7-5.2,15.7-11.4c0-17.4-43-5.5-43-31.9
		c0-12.6,9.6-20.2,25.1-20.2c13,0,22.4,5.2,25.8,18l-9.5,2.3c-2.6-9.3-8.7-12.2-16.6-12.2c-9.6,0-14.5,4.8-14.5,11
		c0,17.9,43.2,5.4,43.2,31.8c0,12.8-10.2,20.7-26.7,20.7C494,480.5,482.2,474.6,478.7,459.7z"/>
</g>
</svg>
