<?xml version="1.0" encoding="utf-8"?>
<!-- Generator: Adobe Illustrator 26.0.2, SVG Export Plug-In . SVG Version: 6.00 Build 0)  -->
<svg version="1.1" xmlns="http://www.w3.org/2000/svg" xmlns:xlink="http://www.w3.org/1999/xlink" x="0px" y="0px"
	 viewBox="0 0 1224.9 331.4" style="enable-background:new 0 0 1224.9 331.4;" xml:space="preserve">
<style type="text/css">
	.st0{display:none;}
	.st1{fill:none;stroke:#FFFFFF;stroke-miterlimit:10;}
	.st2{fill:#2C3288;}
</style>
<g id="tijdelijk" class="st0">
</g>
<g id="Laag_1">
	<path class="st1" d="M51.9,219.2h230v-13.8c-8.1-2.5-14.2-6.4-19.1-9.6c-6.2-4-10-6.5-17.1-6.5c-7.1,0-10.8,2.4-17.1,6.5
		c-7.8,5.1-18.5,12-35.6,12s-27.8-6.9-35.6-12c-6.2-4-10-6.5-17.1-6.5c-7.1,0-10.8,2.4-17.1,6.5c-7.8,5.1-18.5,12-35.6,12
		c-17.2,0-27.8-6.9-35.6-12c0,0,0,0-0.1,0V219.2z"/>
	<path class="st2" d="M298.4,190.8c-24.3,0-28.5-18.4-52.7-18.4s-28.4,18.4-52.7,18.4s-28.5-18.4-52.7-18.4s-28.4,18.4-52.7,18.4
		s-28.5-18.4-52.7-18.4v53.7c0,5.6,4.6,10.1,10.1,10.1h243.8c5.6,0,10.1-4.6,10.1-10.1v-36.2"/>
	<path class="st2" d="M311.8,60.4h-84.6l12.7,22.3h63.5c6.2,0,11.3,5.1,11.3,11.3v148c0,6.2-5.1,11.3-11.3,11.3h-273
		c-6.2,0-11.3-5.1-11.3-11.3V94c0-6.2,5.1-11.3,11.3-11.3h61.9c4.3-7.4,8.6-14.9,12.8-22.3H22c-12.1,0-22,9.9-22,22v185.8
		c0,12.1,9.9,22,22,22h289.7c12.1,0,22-9.9,22-22V82.4C333.8,70.3,323.9,60.4,311.8,60.4z"/>
	<g>
		<path class="st2" d="M261.2,154.1l-83.5-146c-6.3-10.8-16.6-10.8-22.9,0l-84,146.1c0,0.1-0.1,0.1-0.1,0.2
			c-0.1,0.2-0.2,0.4-0.4,0.6c-0.8,1.6-1.3,3.3-1.3,5.2c0,4.1,2.2,7.7,5.5,9.7l0,0c3.7,2.2,6.9,3.6,11.4,3.9h3.2
			c6.1-0.3,9.8-2.7,15.5-6.5c7.8-5,18.4-12,35.6-12s27.8,6.9,35.6,12c5.8,3.7,9.4,6.1,15.5,6.5h3.2c6.1-0.3,9.8-2.7,15.5-6.5
			c7.8-5,18.4-12,35.6-12c6.7,0,12.4,1.1,17.3,2.6C262.6,156.7,262,155.4,261.2,154.1z M166.2,146c-7.8,0-14.1-6.3-14.1-14.1
			c0-7.8,6.3-14.1,14.1-14.1s14.1,6.3,14.1,14.1C180.3,139.7,174,146,166.2,146z M179.4,105.9h-26.5l-2-75.5h30.5L179.4,105.9z"/>
	</g>
	<rect x="109.4" y="303" class="st2" width="113.4" height="28.3"/>
	<g>
		<path class="st2" d="M496.9,184c0,33.5-18.7,53.7-56.9,53.7h-36.7V130.6h36.6C478.1,130.6,496.9,150.3,496.9,184z M481.1,184
			c0-25.4-13-40.6-41.5-40.6h-20.8v81.4h21C468.1,224.9,481.1,209.6,481.1,184z"/>
		<path class="st2" d="M582.6,199.5h-58.9c0.9,18.4,9.8,28,24.2,28c9,0,17.5-4.3,20.4-16.8l13.9,3.7c-5.2,18.1-17.5,25-35.1,25
			c-25.3,0-38.4-18.1-38.4-43.3c0-25.3,15-41.3,38.3-41.3C569.6,154.6,583.2,169.9,582.6,199.5z M523.8,189.2h43.3
			c-0.5-15-7.7-23.3-20.4-23.3C533.8,165.9,525.7,173.9,523.8,189.2z"/>
		<path class="st2" d="M615.7,130.6v107.2h-15V130.6H615.7z"/>
		<path class="st2" d="M657.1,154v2.1h19.7v11.8h-19.7v69.8h-15v-69.8h-12.4v-11.8H642V154c0-19.7,10.7-29.1,30-29.1
			c4.1,0,8.6,0.5,13,2.3l-3.5,11.2c-2.9-1.5-6.3-2.4-9.5-2.4C661.7,135.9,657.1,142,657.1,154z"/>
		<path class="st2" d="M730.3,237c-4,1.8-8.4,2.3-11.9,2.3c-17,0-25.3-7.7-25.3-26.2v-45.2h-12.9v-11.8h12.9v-25.6h15.2v25.6H728
			v11.8h-19.7v45c0,11,2.9,14.8,10.6,14.8c2.6,0,5.5-0.6,8.3-2.1L730.3,237z"/>
		<path class="st2" d="M739.3,197.6V186h43v11.6H739.3z"/>
		<path class="st2" d="M820.6,143.4v33.7h52.8V190h-52.8v47.8H805V130.6h75v12.9H820.6z"/>
		<path class="st2" d="M913.7,143.4v32h57.4v12.9h-57.4v36.6h61.8v12.9h-77.5V130.6h77.5v12.9H913.7z"/>
		<path class="st2" d="M1131.8,130.6l-25.4,107.2h-22.2l-25-86.6l-25.1,86.6H1012l-25.4-107.2h16.7l20.7,95.4l24.5-95.4h21.6
			l24.5,95.4l20.7-95.4H1131.8z"/>
		<path class="st2" d="M1138.7,207.1l15-3.8c4.1,17,16.8,23.3,30.9,23.3c15.8,0,24.2-8,24.2-17.5c0-26.8-66.1-8.4-66.1-49
			c0-19.3,14.7-31.1,38.6-31.1c19.9,0,34.4,8,39.6,27.7l-14.5,3.5c-4-14.2-13.3-18.7-25.6-18.7c-14.7,0-22.3,7.3-22.3,16.8
			c0,27.6,66.4,8.3,66.4,48.8c0,19.6-15.6,31.8-41,31.8C1162.3,239.1,1144.2,229.9,1138.7,207.1z"/>
	</g>
</g>
</svg>
