<?xml version="1.0" standalone="no"?>
<!DOCTYPE svg PUBLIC "-//W3C//DTD SVG 1.1//EN" "http://www.w3.org/Graphics/SVG/1.1/DTD/svg11.dtd" >
<svg xmlns="http://www.w3.org/2000/svg" xmlns:xlink="http://www.w3.org/1999/xlink" version="1.1">
<metadata>
Created by FontForge 20150102 at Fri Feb  6 21:30:09 2015
 By uniteet7
(c) OurType, 2005. All rights reserved. SansaPro is a design by Fred Smeijers
</metadata>
<defs>
<font id="SansaProNormalItalic" horiz-adv-x="590" >
  <font-face 
    font-family="SansaProNormalItalic"
    font-weight="400"
    font-style="italic"
    font-stretch="normal"
    units-per-em="1000"
    panose-1="2 0 6 3 8 0 0 2 0 4"
    ascent="812"
    descent="-188"
    x-height="547"
    cap-height="750"
    bbox="-215 -215 1306 1031"
    underline-thickness="21"
    underline-position="-113"
    unicode-range="U+0020-FB02"
  />
<missing-glyph horiz-adv-x="500" 
d="M0 0v700h500v-700h-500zM250 395l170 255h-340zM280 350l170 -255v510zM80 50h340l-170 255zM50 605v-510l170 255z" />
    <glyph glyph-name="fi" unicode="fi" horiz-adv-x="633" 
d="M387 0l101 469h-256l-99 -469h-85l99 469h-92l15 78h94l4 19q19 89 75.5 136.5t143.5 47.5h66l-16 -78h-66q-93 0 -117 -106l-5 -19h341l-117 -547h-86zM527 656l21 94h85l-20 -94h-86z" />
    <glyph glyph-name="fl" unicode="fl" horiz-adv-x="629" 
d="M387 0l144 672h-160q-93 0 -117 -106l-5 -19h130l-16 -78h-131l-99 -469h-85l99 469h-92l15 78h94l4 19q19 89 75.5 136.5t143.5 47.5h246l-160 -750h-86z" />
    <glyph glyph-name="f_f" unicode="ff" horiz-adv-x="684" 
d="M232 469l-99 -469h-86l100 469h-92l15 78h94l4 19q19 89 75.5 136.5t143.5 47.5h66l-16 -78h-66q-93 0 -117 -106l-5 -19h255l4 19q19 89 75 136.5t144 47.5h66l-16 -78h-66q-95 0 -117 -106l-5 -19h130l-16 -78h-131l-99 -469h-85l99 469h-255z" />
    <glyph glyph-name="f_f_i" unicode="ffi" horiz-adv-x="969" 
d="M727 0l101 469h-256l-99 -469h-85l99 469h-255l-99 -469h-86l100 469h-92l15 78h94l4 19q19 89 75.5 136.5t143.5 47.5h66l-16 -78h-66q-93 0 -117 -106l-5 -19h255l4 19q19 89 75 136.5t144 47.5h66l-16 -78h-66q-95 0 -117 -106l-5 -19h341l-118 -547h-85zM867 656
l21 94h85l-20 -94h-86z" />
    <glyph glyph-name="f_f_l" unicode="ffl" horiz-adv-x="969" 
d="M727 0l144 672h-160q-95 0 -117 -106l-5 -19h130l-16 -78h-131l-99 -469h-85l99 469h-255l-99 -469h-86l100 469h-92l15 78h94l4 19q19 89 75.5 136.5t143.5 47.5h66l-16 -78h-66q-93 0 -117 -106l-5 -19h255l4 19q19 89 75 136.5t144 47.5h246l-161 -750h-85z" />
    <glyph glyph-name="f_t" unicode="ft" horiz-adv-x="734" 
d="M55 469l15 78h94l4 19q19 89 75.5 136.5t143.5 47.5h66l-16 -78h-66q-93 0 -117 -106l-5 -19h255l27 125h86l-27 -125h144l-15 -78h-146l-56 -266q-9 -43 -9 -55q0 -42 21 -58t76 -16h55l-15 -74h-72q-72 0 -111.5 36t-39.5 105q0 27 8 62l57 266h-255l-99 -469h-86
l100 469h-92z" />
    <glyph glyph-name="f_j" unicode="fj" horiz-adv-x="629" 
d="M176 -188l16 79h39q71 0 111 39t56 117l90 422h-256l-99 -469h-86l100 469h-92l15 78h94l4 19q19 89 75.5 136.5t143.5 47.5h66l-16 -78h-66q-93 0 -117 -106l-5 -19h341l-104 -484q-28 -131 -95.5 -191t-191.5 -60h-23zM527 656l20 94h87l-21 -94h-86z" />
    <glyph glyph-name="f_b" unicode="fb" horiz-adv-x="949" 
d="M387 0l143 672h-159q-93 0 -117 -106l-5 -19h130l-16 -78h-131l-99 -469h-86l100 469h-92l15 78h94l4 19q19 89 75.5 136.5t143.5 47.5h246l-67 -309l51 43q84 71 165 71q61 0 94.5 -34t33.5 -95q0 -17 -15 -98l-12 -55q-30 -141 -118 -207t-218 -66h-160zM617 402
l-70 -54l-58 -270h73q97 0 155 46t80 149l12 55q1 8 5 28.5t7 36.5t3 25q0 32 -13 45.5t-45 13.5q-26 0 -55 -13t-46.5 -25.5t-47.5 -36.5z" />
    <glyph glyph-name="f_h" unicode="fh" horiz-adv-x="973" 
d="M387 0l143 672h-159q-93 0 -117 -106l-5 -19h130l-16 -78h-131l-99 -469h-86l100 469h-92l15 78h94l4 19q19 89 75.5 136.5t143.5 47.5h246l-66 -305l50 39q50 39 87 55t77 16q57 0 89 -29.5t32 -84.5q0 -36 -7 -74l-79 -367h-86l79 367q7 47 7 51q0 32 -13 45.5
t-45 13.5q-48 0 -151 -79q-6 -5 -9 -7l-50 -38l-75 -353h-86z" />
    <glyph glyph-name="f_k" unicode="fk" horiz-adv-x="891" 
d="M387 0l142 672h-158q-93 0 -117 -106l-5 -19h130l-16 -78h-131l-99 -469h-86l100 469h-92l15 78h94l4 19q19 89 75.5 136.5t143.5 47.5h246l-89 -414h54l222 211h98v-8l-258 -238l152 -293v-8h-93l-137 258h-55l-54 -258h-86z" />
    <glyph glyph-name=".notdef" horiz-adv-x="500" 
d="M0 0v700h500v-700h-500zM250 395l170 255h-340zM280 350l170 -255v510zM80 50h340l-170 255zM50 605v-510l170 255z" />
    <glyph glyph-name=".null" horiz-adv-x="0" 
 />
    <glyph glyph-name="nonmarkingreturn" horiz-adv-x="333" 
 />
    <glyph glyph-name="space" unicode=" " horiz-adv-x="266" 
 />
    <glyph glyph-name="exclam" unicode="!" horiz-adv-x="273" 
d="M86 219l101 531h86l-128 -531h-59zM27 0l20 94h86l-20 -94h-86z" />
    <glyph glyph-name="quotedbl" unicode="&#x22;" horiz-adv-x="445" 
d="M324 547l35 203h86l-50 -203h-71zM152 547l35 203h86l-50 -203h-71z" />
    <glyph glyph-name="numbersign" unicode="#" horiz-adv-x="625" 
d="M89 0l36 172h-125l17 78h125l52 250h-124l17 78h124l37 172h78l-36 -172h155l37 172h79l-37 -172h125l-16 -78h-125l-54 -250h125l-17 -78h-125l-36 -172h-77l35 172h-156l-36 -172h-78zM220 250h156l53 250h-156z" />
    <glyph glyph-name="dollar" unicode="$" horiz-adv-x="625" 
d="M375 757l23 110h79l-25 -110q93 -5 153 -38l-15 -78h-8q-28 15 -74 27t-82 12h-24q-80 0 -126 -34.5t-46 -98.5q0 -37 22 -59.5t64 -42.5l79 -35q34 -15 56 -28t47 -35.5t37 -55.5t12 -76q0 -91 -60 -152t-173 -70l-25 -118h-78l24 118q-44 2 -96.5 13.5t-79.5 24.5
l16 82h7q31 -15 89 -29t99 -14h23q74 0 117 39t43 106q0 42 -27.5 68.5t-77.5 48.5l-78 35q-133 61 -133 180q0 88 65 144.5t173 65.5z" />
    <glyph glyph-name="percent" unicode="%" horiz-adv-x="938" 
d="M270 0v12l375 738h54v-12l-375 -738h-54zM198 320q-129 0 -129 127q0 72 24 140t79 118t130 50q131 0 131 -128q0 -53 -14 -105.5t-41.5 -98.5t-74 -74.5t-105.5 -28.5zM208 376q64 0 106.5 77.5t42.5 173.5q0 39 -15 55t-48 16q-64 0 -106.5 -77.5t-42.5 -173.5
q0 -38 15 -54.5t48 -16.5zM667 -4q-129 0 -129 127q0 52 14.5 105t41.5 99t73.5 75t103.5 29q130 0 130 -128q0 -53 -14 -105.5t-41 -98.5t-73.5 -74.5t-105.5 -28.5zM677 52q64 0 106.5 77.5t42.5 173.5q0 38 -15 54.5t-48 16.5q-64 0 -107 -77.5t-43 -173.5
q0 -39 15.5 -55t48.5 -16z" />
    <glyph glyph-name="ampersand" unicode="&#x26;" horiz-adv-x="652" 
d="M254 -8q-95 0 -155 46.5t-60 133.5q0 74 39 135t129 91q-33 20 -51.5 57.5t-18.5 75.5q0 105 76 166t189 61h24q43 0 91.5 -8.5t72.5 -22.5l-16 -75h-8q-75 28 -156 28h-15q-76 0 -118.5 -35t-42.5 -106q0 -47 27.5 -74t74.5 -27h297l-16 -79h-71l-69 -332
q-94 -35 -223 -35zM270 70q69 0 125 16l57 273h-147q-76 0 -124 -49.5t-48 -125.5q0 -57 37.5 -85.5t99.5 -28.5z" />
    <glyph glyph-name="quotesingle" unicode="'" horiz-adv-x="273" 
d="M152 547l35 203h86l-50 -203h-71z" />
    <glyph glyph-name="parenleft" unicode="(" horiz-adv-x="348" 
d="M131 -125q-104 89 -104 280q0 72 14 142l6 31q25 135 97.5 247.5t171.5 174.5h63l-3 -16q-195 -144 -243 -406l-6 -31q-17 -92 -17 -159q0 -154 86 -247l-3 -16h-62z" />
    <glyph glyph-name="parenright" unicode=")" horiz-adv-x="348" 
d="M-31 -125l3 16q193 142 243 406l6 31q16 96 16 159q0 154 -86 247l3 16h63q103 -90 103 -280q0 -62 -13 -142l-6 -31q-25 -135 -97.5 -247.5t-172.5 -174.5h-62z" />
    <glyph glyph-name="asterisk" unicode="*" horiz-adv-x="500" 
d="M255 488l-149 -76l-19 55l148 76l-116 76l43 55l116 -76l33 152h62l-32 -153l149 77l20 -55l-149 -76l117 -76l-43 -55l-118 77l-32 -153h-62z" />
    <glyph glyph-name="plus" unicode="+" horiz-adv-x="625" 
d="M238 148l38 180h-179l16 78h180l39 180h78l-39 -180h180l-17 -78h-180l-38 -180h-78z" />
    <glyph glyph-name="comma" unicode="," horiz-adv-x="273" 
d="M-54 -125l105 219h94l-10 -47l-130 -172h-59z" />
    <glyph glyph-name="hyphen" unicode="-" horiz-adv-x="406" 
d="M66 328l17 78h281l-16 -78h-282z" />
    <glyph glyph-name="hyphen" unicode="&#xad;" horiz-adv-x="406" 
d="M66 328l17 78h281l-16 -78h-282z" />
    <glyph glyph-name="period" unicode="." horiz-adv-x="272" 
d="M26 0l20 94h94l-20 -94h-94z" />
    <glyph glyph-name="slash" unicode="/" horiz-adv-x="314" 
d="M-62 -125v16l364 859h74v-16l-363 -859h-75z" />
    <glyph glyph-name="zero" unicode="0" horiz-adv-x="625" 
d="M242 -8q-187 0 -187 219q0 93 21.5 186.5t62 175.5t109.5 133.5t154 51.5q192 0 192 -219q0 -93 -21 -186.5t-62 -175.5t-111 -133.5t-158 -51.5zM258 66q69 0 125.5 70.5t86.5 178.5t30 224q0 78 -26 111.5t-83 33.5q-70 0 -126.5 -70.5t-86.5 -178.5t-30 -224
q0 -78 26.5 -111.5t83.5 -33.5z" />
    <glyph glyph-name="one" unicode="1" horiz-adv-x="625" 
d="M246 0l139 648l-229 -85h-8l20 85l269 102h63l-160 -750h-94z" />
    <glyph glyph-name="two" unicode="2" horiz-adv-x="625" 
d="M31 0l16 90q12 67 50 120t130 103l97 54q92 51 126 93.5t34 109.5q0 51 -35 76.5t-97 25.5h-204l15 78h204q102 0 156.5 -50t54.5 -130q0 -91 -53.5 -152.5t-165.5 -120.5l-74 -39q-73 -38 -105 -71.5t-43 -88.5l-4 -20h383l-16 -78h-469z" />
    <glyph glyph-name="three" unicode="3" horiz-adv-x="625" 
d="M27 0l16 78h195q105 0 154.5 42t49.5 130q0 51 -40 80t-105 29h-110l16 79h156q125 52 125 148q0 86 -129 86h-199l16 78h203q97 0 150 -40.5t53 -115.5q0 -60 -35 -110t-109 -78q101 -47 101 -156q0 -118 -75.5 -184t-229.5 -66h-203z" />
    <glyph glyph-name="four" unicode="4" horiz-adv-x="625" 
d="M12 176l11 62q208 271 293 512h94q-90 -240 -289 -500h249l47 219h94l-47 -219h95l-15 -74h-97l-37 -176h-94l38 176h-342z" />
    <glyph glyph-name="five" unicode="5" horiz-adv-x="625" 
d="M23 0l16 78h199q97 0 150 56t53 147q0 106 -148 106h-172l78 363h406l-15 -78h-324l-43 -203h90q109 0 165.5 -50t56.5 -138q0 -54 -18.5 -103t-54 -89.5t-95.5 -64.5t-137 -24h-207z" />
    <glyph glyph-name="six" unicode="6" horiz-adv-x="625" 
d="M250 -8q-98 0 -146.5 46t-48.5 130q0 28 8 70l46 219q29 132 119.5 212.5t240.5 80.5h117l-16 -78h-117q-95 0 -161 -53.5t-89 -161.5l-7 -30q72 42 156 42q91 0 139 -50t48 -130q0 -79 -29.5 -144.5t-97 -109t-162.5 -43.5zM340 391q-83 0 -160 -43l-24 -110
q-8 -35 -8 -70q0 -54 28.5 -76t89.5 -22q78 0 128.5 55.5t50.5 163.5q0 49 -27.5 75.5t-77.5 26.5z" />
    <glyph glyph-name="seven" unicode="7" horiz-adv-x="625" 
d="M159 0l16 59q46 175 150.5 341.5t220.5 275.5h-418l16 74h515l-12 -62q-130 -123 -229.5 -281.5t-145.5 -332.5l-19 -74h-94z" />
    <glyph glyph-name="eight" unicode="8" horiz-adv-x="625" 
d="M230 -8q-89 0 -138 43.5t-49 124.5q0 59 37 114t96 93l45 29q-38 24 -61 62.5t-23 84.5q0 102 77 158.5t177 56.5h31q80 0 128 -40.5t48 -112.5q0 -105 -121 -195l-38 -27q96 -57 96 -156q0 -102 -79 -168.5t-194 -66.5h-32zM363 324l-79 39l-34 -23q-47 -32 -80 -79
t-33 -101q0 -86 117 -86h16q69 0 120 40.5t51 112.5q0 33 -19 55t-59 42zM230 543q0 -54 63 -86l81 -41l28 22q102 78 102 167q0 79 -102 79h-31q-63 0 -102 -37.5t-39 -103.5z" />
    <glyph glyph-name="nine" unicode="9" horiz-adv-x="625" 
d="M62 0l16 78h125q204 0 250 215l6 29q-70 -41 -154 -41q-91 0 -139.5 50t-48.5 130q0 58 16 109.5t48 94.5t88 68t129 25q102 0 151 -50.5t49 -137.5q0 -38 -8 -78l-43 -199q-29 -134 -114.5 -213.5t-237.5 -79.5h-133zM316 359q82 0 161 42l19 91q8 40 8 78
q0 53 -30.5 81.5t-86.5 28.5q-82 0 -128.5 -55.5t-46.5 -163.5q0 -49 27 -75.5t77 -26.5z" />
    <glyph glyph-name="colon" unicode=":" horiz-adv-x="273" 
d="M123 453l20 94h93l-19 -94h-94zM26 0l20 94h94l-20 -94h-94z" />
    <glyph glyph-name="semicolon" unicode=";" horiz-adv-x="278" 
d="M128 453l19 94h94l-19 -94h-94zM-54 -125l105 219h95l-11 -47l-130 -172h-59z" />
    <glyph glyph-name="less" unicode="&#x3c;" horiz-adv-x="625" 
d="M480 105l-382 223l16 78l478 223h8l-18 -82l-397 -180l321 -179l-18 -83h-8z" />
    <glyph glyph-name="equal" unicode="=" horiz-adv-x="625" 
d="M120 438l17 78h438l-17 -78h-438zM75 219l16 78h437l-16 -78h-437z" />
    <glyph glyph-name="greater" unicode="&#x3e;" horiz-adv-x="625" 
d="M50 105l17 83l398 179l-321 180l17 82h8l382 -223l-17 -78l-476 -223h-8z" />
    <glyph glyph-name="question" unicode="?" horiz-adv-x="434" 
d="M102 188l19 93l133 125q45 43 65.5 65.5t38 55.5t17.5 67q0 86 -109 86h-125l15 70h125q184 0 184 -133q0 -60 -32.5 -109.5t-100.5 -112.5l-125 -118l-20 -89h-85zM62 0l20 94h86l-20 -94h-86z" />
    <glyph glyph-name="at" unicode="@" horiz-adv-x="918" 
d="M386 -102q-68 0 -127 18.5t-107 55.5t-75.5 98.5t-27.5 140.5q0 245 145 396t374 151q148 0 236.5 -71.5t88.5 -198.5q0 -146 -83 -239t-213 -93h-172q-60 0 -97 33t-37 92q0 116 65 175.5t161 59.5h132l-62 -297h23q74 0 135.5 69.5t61.5 191.5q0 97 -62.5 148.5
t-183.5 51.5q-191 0 -306.5 -129t-115.5 -324q0 -124 67 -187t196 -63q115 0 184 19h8l-16 -74q-75 -24 -192 -24zM438 219h63l50 234h-47q-52 0 -89.5 -46t-37.5 -118q0 -70 61 -70z" />
    <glyph glyph-name="A" unicode="A" horiz-adv-x="664" 
d="M-43 0v8q92 236 208 441t198 301h114q32 -90 64.5 -309t32.5 -441h-94q0 111 -7 203h-338q-39 -85 -84 -203h-94zM402 672q-124 -163 -231 -391h296q-23 243 -65 391z" />
    <glyph glyph-name="B" unicode="B" horiz-adv-x="641" 
d="M27 0l160 750h236q96 0 145 -43t49 -125q0 -68 -42 -123.5t-106 -79.5q42 -16 67.5 -52.5t25.5 -88.5q0 -105 -68.5 -171.5t-188.5 -66.5h-278zM340 340h-147l-55 -262h178q73 0 113 46t40 114q0 46 -36 74t-93 28zM410 672h-145l-55 -254h161q62 0 107 51.5t45 112.5
q0 90 -113 90z" />
    <glyph glyph-name="C" unicode="C" horiz-adv-x="684" 
d="M319 -8q-268 0 -268 242q0 47 11 94l19 94q35 165 139 250.5t275 85.5q54 0 105 -13.5t76 -29.5l-36 -160h-86l23 109q-31 16 -101 16q-243 0 -300 -258l-21 -94q-11 -47 -11 -94q0 -164 187 -164h47q81 0 156 35h8l-12 -78q-22 -12 -72.5 -23.5t-95.5 -11.5h-43z" />
    <glyph glyph-name="D" unicode="D" horiz-adv-x="703" 
d="M27 0l160 750h223q274 0 274 -223q0 -62 -11 -109l-21 -90q-75 -328 -382 -328h-243zM395 672h-130l-127 -594h139q226 0 282 250l19 90q12 52 12 105q0 84 -47.5 116.5t-147.5 32.5z" />
    <glyph glyph-name="E" unicode="E" horiz-adv-x="560" 
d="M224 0q-164 0 -164 137q0 31 7 66l118 547h406l-12 -78h-317l-51 -235h294l-12 -78h-299l-33 -156q-8 -40 -8 -58q0 -37 20 -52t62 -15h235l-16 -78h-230z" />
    <glyph glyph-name="F" unicode="F" horiz-adv-x="566" 
d="M27 0l118 551q21 100 79.5 149.5t162.5 49.5h207l-17 -78h-202q-58 0 -90.5 -28.5t-46.5 -92.5l-25 -117h298l-17 -79h-297l-76 -355h-94z" />
    <glyph glyph-name="G" unicode="G" horiz-adv-x="680" 
d="M319 -8q-268 0 -268 242q0 47 11 94l19 94q70 336 410 336q118 0 193 -43l-17 -78h-8q-76 43 -183 43q-243 0 -300 -258l-21 -94q-11 -51 -11 -94q0 -164 187 -164h47q50 0 113 22l42 197h-151l15 78h243l-71 -332q-35 -15 -98 -29t-109 -14h-43z" />
    <glyph glyph-name="H" unicode="H" horiz-adv-x="738" 
d="M27 0l160 750h94l-66 -312h367l66 312h94l-160 -750h-94l76 359h-367l-76 -359h-94z" />
    <glyph glyph-name="I" unicode="I" horiz-adv-x="281" 
d="M27 0l160 750h94l-160 -750h-94z" />
    <glyph glyph-name="J" unicode="J" horiz-adv-x="449" 
d="M-20 0l16 78h86q62 0 104 36.5t56 104.5l97 453h-188l17 78h281l-113 -531q-46 -219 -266 -219h-90z" />
    <glyph glyph-name="K" unicode="K" horiz-adv-x="637" 
d="M27 0l160 750h94l-68 -320h45l347 320h102v-8l-383 -347l242 -387v-8h-101l-219 352h-50l-75 -352h-94z" />
    <glyph glyph-name="L" unicode="L" horiz-adv-x="536" 
d="M224 0q-164 0 -164 137q0 31 7 66l118 547h93l-117 -547q-8 -40 -8 -58q0 -37 20 -52t62 -15h235l-16 -78h-230z" />
    <glyph glyph-name="M" unicode="M" horiz-adv-x="844" 
d="M27 0l160 750h79l168 -355l332 355h78l-160 -750h-94l121 574l-281 -293h-47l-140 293l-122 -574h-94z" />
    <glyph glyph-name="N" unicode="N" horiz-adv-x="750" 
d="M27 0l160 750h67l281 -566l121 566h94l-160 -750h-67l-281 566l-121 -566h-94z" />
    <glyph glyph-name="O" unicode="O" horiz-adv-x="734" 
d="M312 -8q-130 0 -195.5 63.5t-65.5 182.5q0 55 11 110l16 74q36 169 126.5 252.5t244.5 83.5q130 0 196 -63.5t66 -182.5q0 -56 -12 -110l-15 -74q-36 -171 -126 -253.5t-246 -82.5zM324 70q108 0 172.5 60t93.5 198l15 74q12 54 12 110q0 89 -44.5 128.5t-135.5 39.5
q-109 0 -171 -59.5t-93 -198.5l-17 -74q-11 -48 -11 -110q0 -89 44.5 -128.5t134.5 -39.5z" />
    <glyph glyph-name="P" unicode="P" horiz-adv-x="609" 
d="M27 0l160 750h227q94 0 146.5 -48.5t52.5 -138.5q0 -141 -80 -225t-224 -84h-134l-54 -254h-94zM391 672h-126l-74 -340h133q90 0 143 58t53 165q0 117 -129 117z" />
    <glyph glyph-name="Q" unicode="Q" horiz-adv-x="734" 
d="M367 -188q-53 0 -83 25.5t-30 76.5q0 27 4 47l7 34q-107 11 -160.5 73.5t-53.5 169.5q0 55 11 110l16 74q36 169 126.5 252.5t244.5 83.5q130 0 196 -63.5t66 -182.5q0 -56 -12 -110l-15 -74q-35 -163 -117 -245.5t-224 -89.5l-8 -36q-3 -13 -3 -23q0 -23 13 -31t40 -8
q61 0 119 15h8l-16 -78q-52 -20 -129 -20zM324 70q108 0 172.5 60t93.5 198l15 74q12 54 12 110q0 89 -44.5 128.5t-135.5 39.5q-109 0 -171 -59.5t-93 -198.5l-17 -74q-11 -48 -11 -110q0 -89 44.5 -128.5t134.5 -39.5z" />
    <glyph glyph-name="R" unicode="R" horiz-adv-x="652" 
d="M27 0l160 750h231q96 0 145.5 -46.5t49.5 -133.5q0 -92 -50 -160t-137 -101q39 -49 71.5 -139t41.5 -170h-94q-12 85 -41.5 163t-71.5 122h-150l-61 -285h-94zM395 672h-130l-67 -309h126q82 0 139 57.5t57 149.5q0 102 -125 102z" />
    <glyph glyph-name="S" unicode="S" horiz-adv-x="586" 
d="M219 -8q-46 0 -106 12t-90 27l17 82h7q31 -15 88.5 -29t98.5 -14h24q73 0 116.5 39t43.5 106q0 42 -27.5 68.5t-78.5 48.5l-78 35q-132 62 -132 180q0 96 76 153.5t197 57.5h20q42 0 93 -11t82 -28l-15 -78h-8q-27 15 -73.5 27t-82.5 12h-24q-80 0 -126 -34.5t-46 -98.5
q0 -38 22 -60t64 -42l78 -35q35 -15 57 -28t46.5 -35.5t37 -55.5t12.5 -76q0 -98 -69.5 -160.5t-196.5 -62.5h-27z" />
    <glyph glyph-name="T" unicode="T" horiz-adv-x="578" 
d="M180 0l142 672h-236l16 78h562l-16 -78h-232l-143 -672h-93z" />
    <glyph glyph-name="U" unicode="U" horiz-adv-x="719" 
d="M293 -8q-104 0 -165.5 48t-61.5 144q0 39 20 129l94 437h93l-93 -437q-20 -90 -20 -114q0 -67 36 -98t113 -31q83 0 142.5 53.5t79.5 149.5l102 477h94l-102 -477q-60 -281 -332 -281z" />
    <glyph glyph-name="V" unicode="V" horiz-adv-x="652" 
d="M211 0q-33 96 -65.5 312.5t-32.5 437.5h94q0 -187 24.5 -370.5t53.5 -301.5q197 272 344 672h94v-8q-86 -232 -202 -440t-197 -302h-113z" />
    <glyph glyph-name="W" unicode="W" horiz-adv-x="988" 
d="M160 0q-55 215 -55 520q0 144 8 230h94q-8 -86 -8 -230q0 -263 39 -442q163 238 321 672h74q-12 -141 -12 -262q0 -229 39 -410q168 250 317 672h82v-8q-75 -228 -178.5 -431.5t-181.5 -310.5h-109q-51 228 -51 496q-61 -150 -135.5 -284t-130.5 -212h-113z" />
    <glyph glyph-name="X" unicode="X" horiz-adv-x="613" 
d="M-47 0v8l318 374l-162 360v8h98l129 -290l246 290h98v-8l-308 -362l167 -372v-8h-98l-134 302l-256 -302h-98z" />
    <glyph glyph-name="Y" unicode="Y" horiz-adv-x="594" 
d="M184 0l66 309l-148 433v8h89l125 -355l270 355h91v-8l-333 -429l-67 -313h-93z" />
    <glyph glyph-name="Z" unicode="Z" 
d="M-20 0l8 43q123 130 277 318t227 307h-371l16 82h492l-4 -31q-70 -122 -226.5 -322.5t-265.5 -314.5h379l-16 -82h-516z" />
    <glyph glyph-name="bracketleft" unicode="[" horiz-adv-x="373" 
d="M0 -125l186 875h218l-12 -62h-133l-160 -751h132l-12 -62h-219z" />
    <glyph glyph-name="backslash" unicode="\" horiz-adv-x="492" 
d="M297 -125l-176 859v16h74l176 -859v-16h-74z" />
    <glyph glyph-name="bracketright" unicode="]" horiz-adv-x="373" 
d="M-31 -125l12 62h133l160 751h-133l13 62h219l-186 -875h-218z" />
    <glyph glyph-name="asciicircum" unicode="^" horiz-adv-x="625" 
d="M7 109l2 8l313 430h78l132 -430l-2 -8h-81l-104 360l-256 -360h-82z" />
    <glyph glyph-name="underscore" unicode="_" horiz-adv-x="563" 
d="M-78 -78l16 78h563l-17 -78h-562z" />
    <glyph glyph-name="grave" unicode="`" horiz-adv-x="268" 
d="M271 634l-168 139v16h102l109 -141v-14h-43z" />
    <glyph glyph-name="a" unicode="a" 
d="M156 -8q-62 0 -95.5 34t-33.5 95q0 23 16 98l12 54q30 142 118 208t218 66h160l-117 -547h-86l22 104l-50 -41q-42 -35 -79 -53t-85 -18zM172 70q26 0 55 13.5t45.5 25t47.5 36.5l70 54l58 270h-73q-97 0 -154.5 -46t-79.5 -150l-12 -54q-16 -77 -16 -90
q0 -32 13.5 -45.5t45.5 -13.5z" />
    <glyph glyph-name="b" unicode="b" 
d="M27 0l160 750h86l-66 -309l51 43q84 71 165 71q61 0 94.5 -34t33.5 -95q0 -26 -16 -98l-12 -55q-58 -273 -336 -273h-160zM258 402l-71 -54l-57 -270h73q97 0 154.5 46t79.5 149l12 55q16 80 16 90q0 32 -13.5 45.5t-45.5 13.5q-25 0 -54 -13t-46.5 -25.5t-47.5 -36.5z
" />
    <glyph glyph-name="c" unicode="c" horiz-adv-x="504" 
d="M215 -8q-184 0 -184 153q0 23 13 85l18 90q24 117 96 176t182 59q42 0 88.5 -12t67.5 -27l-31 -141h-78l19 86q-26 19 -82 19q-73 0 -114.5 -36t-61.5 -124l-19 -90q0 -2 -3.5 -17.5t-6 -30.5t-2.5 -26q0 -50 28.5 -70t84.5 -20q15 0 29 1t24.5 2.5t23 5t19 5.5t17.5 6.5
t14.5 6t13.5 6.5l12 6h8l-12 -74q-86 -39 -164 -39z" />
    <glyph glyph-name="d" unicode="d" 
d="M156 -8q-62 0 -95.5 34t-33.5 95q0 23 16 98l12 54q30 142 118 208t218 66h73l44 203h86l-160 -750h-86l22 104l-50 -41q-42 -35 -79 -53t-85 -18zM172 70q26 0 55 13.5t45.5 25t47.5 36.5l70 53l57 271h-72q-97 0 -154.5 -46t-79.5 -150l-12 -54q-16 -77 -16 -90
q0 -32 13.5 -45.5t45.5 -13.5z" />
    <glyph glyph-name="e" unicode="e" horiz-adv-x="523" 
d="M211 -8q-184 0 -184 153q0 23 13 85l19 90q24 117 95.5 176t181.5 59q71 0 115.5 -34t44.5 -99q0 -89 -61 -130.5t-162 -41.5h-144l-4 -20q0 -2 -3.5 -17.5t-6 -30.5t-2.5 -26q0 -50 28.5 -70t85.5 -20q81 0 164 39h7l-11 -74q-86 -39 -176 -39zM145 320l-1 -4h137
q129 0 129 98q0 66 -90 66q-72 0 -114 -36t-61 -124z" />
    <glyph glyph-name="f" unicode="f" horiz-adv-x="344" 
d="M55 469l15 78h94l4 19q19 89 75.5 136.5t143.5 47.5h66l-16 -78h-66q-93 0 -117 -106l-5 -19h130l-16 -78h-131l-99 -469h-85l99 469h-92z" />
    <glyph glyph-name="g" unicode="g" horiz-adv-x="582" 
d="M4 -188l20 75h90q110 0 165 40t74 128l8 41q-7 -5 -37 -21q-86 -44 -154 -44q-60 0 -99 33t-39 104q0 22 8 62l12 55q28 131 107 196.5t201 65.5h183l-101 -473q-32 -149 -109.5 -205.5t-241.5 -56.5h-87zM188 109q73 0 190 66l63 294h-100q-87 0 -135.5 -47t-67.5 -137
l-12 -55q-8 -40 -8 -50q0 -40 16 -55.5t54 -15.5z" />
    <glyph glyph-name="h" unicode="h" horiz-adv-x="613" 
d="M371 0l78 367q8 40 8 51q0 32 -13.5 45.5t-45.5 13.5q-23 0 -56.5 -17t-50 -29t-53.5 -40l-50 -38l-75 -353h-86l160 750h86l-65 -305l50 39q50 39 86.5 55t77.5 16q57 0 89 -29.5t32 -84.5q0 -38 -8 -74l-78 -367h-86z" />
    <glyph glyph-name="i" unicode="i" horiz-adv-x="273" 
d="M172 656l19 94h86l-19 -94h-86zM31 0l102 469h-94l16 78h179l-117 -547h-86z" />
    <glyph glyph-name="j" unicode="j" horiz-adv-x="286" 
d="M184 656l19 94h86l-19 -94h-86zM-168 -188l17 79h39q70 0 110 38.5t57 117.5l90 422h-94l15 78h180l-103 -484q-29 -131 -96.5 -191t-191.5 -60h-23z" />
    <glyph glyph-name="k" unicode="k" horiz-adv-x="531" 
d="M27 0l160 750h86l-88 -414h53l223 211h98v-8l-258 -238l152 -293v-8h-94l-136 258h-55l-55 -258h-86z" />
    <glyph glyph-name="l" unicode="l" horiz-adv-x="270" 
d="M27 0l146 672h-95l16 78h179l-160 -750h-86z" />
    <glyph glyph-name="m" unicode="m" horiz-adv-x="957" 
d="M27 0l118 547h85l-21 -102l49 39q50 39 86.5 55t78.5 16q56 0 88 -29.5t32 -84.5h5l54 43q50 39 86.5 55t77.5 16q57 0 89 -29.5t32 -84.5q0 -38 -8 -74l-78 -367h-86l78 367q8 40 8 51q0 32 -13.5 45.5t-45.5 13.5q-48 0 -151 -79q-6 -5 -9 -7l-51 -39l-74 -352h-86
l78 367q8 40 8 51q0 32 -13.5 45.5t-45.5 13.5q-23 0 -56.5 -17t-50 -29t-53.5 -40l-50 -38l-75 -353h-86z" />
    <glyph glyph-name="n" unicode="n" horiz-adv-x="613" 
d="M27 0l118 547h85l-21 -102l49 39q50 39 86.5 55t77.5 16q57 0 89 -29.5t32 -84.5q0 -38 -8 -74l-78 -367h-86l78 367q8 40 8 51q0 32 -13.5 45.5t-45.5 13.5q-23 0 -56.5 -17t-50 -29t-53.5 -40l-50 -38l-75 -353h-86z" />
    <glyph glyph-name="o" unicode="o" 
d="M227 -8q-87 0 -139.5 49t-52.5 135q0 102 37.5 188t110 138.5t165.5 52.5q92 0 141.5 -46t49.5 -138q0 -98 -35.5 -183t-108.5 -140.5t-168 -55.5zM242 66q60 0 109.5 44t75.5 110t26 135q0 67 -28 96t-93 29q-92 0 -151.5 -88.5t-59.5 -200.5q0 -64 29.5 -94.5
t91.5 -30.5z" />
    <glyph glyph-name="p" unicode="p" horiz-adv-x="589" 
d="M-13 -188l157 735h85l-22 -105l50 42q84 71 165 71q61 0 94.5 -34t33.5 -95q0 -26 -16 -98l-12 -55q-30 -141 -117.5 -207t-217.5 -66h-74l-40 -188h-86zM257 402l-70 -54l-57 -270h72q96 0 154 46t81 149l11 55q16 80 16 90q0 32 -13.5 45.5t-45.5 13.5q-25 0 -54 -13
t-46.5 -25.5t-47.5 -36.5z" />
    <glyph glyph-name="q" unicode="q" 
d="M309 -188l62 293l-51 -42q-42 -35 -79 -53t-85 -18q-62 0 -95.5 34t-33.5 95q0 23 16 98l12 54q30 142 118 208t218 66h160l-156 -735h-86zM320 145l71 54l57 270h-73q-97 0 -154.5 -46t-79.5 -150l-12 -54q-16 -77 -16 -90q0 -32 13.5 -45.5t45.5 -13.5q26 0 55 13.5
t45.5 25t47.5 36.5z" />
    <glyph glyph-name="r" unicode="r" horiz-adv-x="398" 
d="M27 0l118 547h85l-25 -119l10 10q49 54 90.5 81.5t91.5 27.5h33l-20 -94h-35q-65 0 -111 -39l-76 -61l-75 -353h-86z" />
    <glyph glyph-name="s" unicode="s" horiz-adv-x="492" 
d="M172 -8q-98 0 -160 20l15 74h7q75 -20 150 -20q148 0 148 94q0 7 -1.5 13t-3 11t-5.5 9.5t-6 7.5t-8 6.5t-8 5.5t-9 4.5t-8.5 3.5t-8.5 3l-8 3l-82 27q-26 8 -42.5 16t-35 23.5t-27.5 39.5t-9 58q0 79 68.5 121.5t162.5 42.5q78 0 152 -16l-16 -74h-7q-73 15 -137 15
q-58 0 -97 -20t-39 -65q0 -27 14 -39.5t44 -23.5l82 -27q57 -19 89 -49.5t32 -91.5q0 -87 -71 -129.5t-175 -42.5z" />
    <glyph glyph-name="t" unicode="t" horiz-adv-x="402" 
d="M62 469l16 78h94l27 125h86l-27 -125h144l-15 -78h-146l-56 -266q-9 -43 -9 -55q0 -42 21 -58t76 -16h55l-16 -74h-71q-72 0 -111.5 36t-39.5 105q0 27 8 62l57 266h-93z" />
    <glyph glyph-name="u" unicode="u" horiz-adv-x="613" 
d="M176 -8q-56 0 -88.5 29t-32.5 84q0 37 7 75l79 367h86l-79 -367q-7 -47 -7 -51q0 -32 13 -45.5t45 -13.5q23 0 56 16.5t51.5 30t52.5 39.5l49 38l76 353h86l-117 -547h-86l22 101l-49 -38q-50 -39 -87 -55t-77 -16z" />
    <glyph glyph-name="v" unicode="v" horiz-adv-x="523" 
d="M145 0q-30 45 -56.5 126.5t-26.5 174.5q0 59 12 117l28 129h85l-27 -129q-12 -52 -12 -117q0 -73 18.5 -139.5t40.5 -98.5q52 38 113.5 143.5t85.5 215.5l28 125h86l-28 -125q-33 -150 -104.5 -254.5t-149.5 -167.5h-93z" />
    <glyph glyph-name="w" unicode="w" horiz-adv-x="762" 
d="M122 0q-30 47 -45.5 118t-15.5 140q0 70 15 148l28 141h85l-27 -141q-16 -77 -16 -148q0 -133 40 -195q51 51 100.5 143.5t70.5 199.5l28 141h86l-28 -141q-15 -80 -15 -148q0 -132 39 -195q51 51 99 142.5t73 200.5l31 141h86l-31 -141q-28 -128 -95 -243t-124 -163h-94
q-19 36 -38.5 90.5t-19.5 93.5q-16 -39 -60 -94.5t-77 -89.5h-95z" />
    <glyph glyph-name="x" unicode="x" horiz-adv-x="480" 
d="M-51 0v8l233 265l-120 266v8h90l91 -203l179 203h94v-8l-239 -271l118 -260v-8h-90l-89 197l-172 -197h-95z" />
    <glyph glyph-name="y" unicode="y" horiz-adv-x="605" 
d="M26 -188l22 75h89q109 0 164.5 40t73.5 128l15 69q-6 -3 -28 -15q-94 -46 -167 -46q-129 0 -129 136q0 5 16 90l55 258h86l-55 -258q-1 -4 -5.5 -23.5t-7.5 -36.5t-3 -26q0 -37 16 -49.5t55 -12.5q66 0 142 37q28 13 41 21l74 348h86l-101 -473q-32 -149 -110 -205.5
t-242 -56.5h-87z" />
    <glyph glyph-name="z" unicode="z" horiz-adv-x="508" 
d="M-23 0l15 70q88 73 203.5 190.5t186.5 208.5h-292l15 78h391l-16 -70q-43 -72 -172.5 -207t-204.5 -192h303l-15 -78h-414z" />
    <glyph glyph-name="braceleft" unicode="{" horiz-adv-x="469" 
d="M299 -125q-78 0 -111 25t-33 80q0 25 8 67l26 125q3 15 3 26q0 77 -134 87l11 55q84 6 127 33t54 80l26 125q19 91 65.5 131.5t142.5 40.5h47l-12 -62h-47q-52 0 -73.5 -21t-34.5 -81l-27 -125q-27 -121 -160 -148q102 -25 102 -109q0 -15 -5 -40l-26 -125q-7 -29 -7 -52
q0 -28 16 -39t55 -11h46l-12 -62h-47z" />
    <glyph glyph-name="bar" unicode="|" horiz-adv-x="273" 
d="M-10 -188l214 1001h79l-214 -1001h-79z" />
    <glyph glyph-name="braceright" unicode="}" horiz-adv-x="469" 
d="M-63 -125l12 62h47q52 0 74 21.5t34 80.5l27 125q24 120 160 149q-103 23 -103 107q0 21 5 41l28 125q7 28 7 51q0 28 -16.5 39.5t-55.5 11.5h-47l13 62h47q77 0 110 -25.5t33 -79.5q0 -32 -7 -67l-27 -125q-3 -15 -3 -26q0 -77 135 -87l-12 -55q-83 -6 -127 -33.5
t-54 -79.5l-26 -125q-19 -91 -65.5 -131.5t-142.5 -40.5h-46z" />
    <glyph glyph-name="asciitilde" unicode="~" horiz-adv-x="625" 
d="M83 262l16 74q22 29 57.5 49.5t73.5 20.5t103 -33t91 -33q39 0 66.5 16t52.5 50h8l-16 -74q-21 -29 -57 -49.5t-75 -20.5q-37 0 -102 33t-91 33q-64 0 -119 -66h-8z" />
    <glyph glyph-name="exclamdown" unicode="&#xa1;" horiz-adv-x="273" 
d="M168 656l19 94h86l-19 -94h-86zM27 0l129 531h59l-102 -531h-86z" />
    <glyph glyph-name="cent" unicode="&#xa2;" horiz-adv-x="625" 
d="M434 755l23 112h78l-24 -110q95 -5 157 -38l-16 -78h-7q-28 14 -79.5 26.5t-92.5 12.5q-247 0 -301 -258l-20 -94q-11 -55 -11 -94q0 -164 187 -164h47q81 0 156 35h8l-12 -78q-20 -11 -65.5 -22t-88.5 -13l-25 -117h-78l24 117q-119 5 -183 65t-64 177q0 34 12 94l19 94
q31 150 120.5 234.5t235.5 98.5z" />
    <glyph glyph-name="sterling" unicode="&#xa3;" horiz-adv-x="625" 
d="M61 82q91 55 117 184l18 89h-93l17 83h94l16 74q54 238 287 238h123l-18 -82h-114q-78 0 -120.5 -35t-63.5 -121l-17 -74h219l-17 -83h-219l-19 -89q-25 -135 -115 -184h342l-18 -82h-484l18 82h47z" />
    <glyph glyph-name="currency" unicode="&#xa4;" horiz-adv-x="500" 
d="M256 534h1q70 0 115 -40l71 75l45 -46l-79 -71q35 -47 35 -118q0 -76 -35 -122l75 -74l-44 -44l-69 76q-45 -42 -117 -42q-71 0 -114 40l-67 -74l-43 44l72 70q-37 50 -37 121q0 73 39 123l-76 71l45 46l68 -76q48 41 115 41zM255 471h-1q-53 0 -85.5 -40.5t-32.5 -100.5
q0 -67 36.5 -103t81.5 -36q48 0 83.5 35.5t35.5 106.5q0 56 -31.5 97t-86.5 41z" />
    <glyph glyph-name="yen" unicode="&#xa5;" horiz-adv-x="625" 
d="M333 188l-40 -188h-94l40 188h-200l16 82h202l9 39l-149 433v8h90l125 -355l270 355h89v-8l-332 -429l-9 -43h205l-16 -82h-206z" />
    <glyph glyph-name="brokenbar" unicode="&#xa6;" horiz-adv-x="273" 
d="M125 406l87 407h79l-88 -407h-78zM-2 -188l88 407h78l-87 -407h-79z" />
    <glyph glyph-name="section" unicode="&#xa7;" horiz-adv-x="527" 
d="M459 246h-12l-211 152q-86 63 -86 157q0 99 65.5 147t169.5 48h205l-18 -82h-199q-125 0 -125 -109q0 -51 51 -90l176 -133zM55 316h11l209 -152q88 -64 88 -156q0 -100 -65 -148t-169 -48h-205l17 83h200q125 0 125 109q0 48 -53 90l-174 133z" />
    <glyph glyph-name="dieresis" unicode="&#xa8;" horiz-adv-x="360" 
d="M317 625l20 94h86l-20 -94h-86zM75 625l20 94h87l-21 -94h-86z" />
    <glyph glyph-name="copyright" unicode="&#xa9;" horiz-adv-x="839" 
d="M435 -8q-164 0 -273.5 109.5t-109.5 273.5t109.5 273.5t273.5 109.5t273 -109.5t109 -273.5t-109 -273.5t-273 -109.5zM435 47q143 0 231.5 94.5t88.5 233.5t-88.5 233.5t-231.5 94.5q-144 0 -232.5 -94.5t-88.5 -233.5t88.5 -233.5t232.5 -94.5zM470 180
q-101 0 -168 49.5t-67 153.5q0 71 34.5 118t85.5 66t115 19q38 0 94 -16v-47q-56 16 -94 16q-69 0 -112.5 -39t-43.5 -117t43.5 -117t112.5 -39q49 0 94 15v-47q-51 -15 -94 -15z" />
    <glyph glyph-name="ordfeminine" unicode="&#xaa;" horiz-adv-x="507" 
d="M189 318q-53 0 -82 26t-29 73q0 19 14 75l10 43q50 210 289 210h137l-100 -421h-74l18 80l-42 -31q-73 -55 -141 -55zM202 378q22 0 47.5 10.5t39.5 19.5t41 28l60 41l49 209h-62q-83 0 -132.5 -35.5t-68.5 -115.5l-10 -43q-14 -48 -14 -68q0 -25 11.5 -35.5t38.5 -10.5z
" />
    <glyph glyph-name="guillemotleft" unicode="&#xab;" horiz-adv-x="586" 
d="M484 125l-172 181l13 61l249 180h8l-20 -94l-166 -117l117 -117l-21 -94h-8zM234 125l-172 181l13 61l249 180h8l-20 -94l-166 -117l117 -117l-21 -94h-8z" />
    <glyph glyph-name="logicalnot" unicode="&#xac;" horiz-adv-x="625" 
d="M418 148l38 180h-359l16 78h438l-55 -258h-78z" />
    <glyph glyph-name="registered" unicode="&#xae;" horiz-adv-x="839" 
d="M435 -8q-164 0 -273.5 109.5t-109.5 273.5t109.5 273.5t273.5 109.5t273 -109.5t109 -273.5t-109 -273.5t-273 -109.5zM435 47q143 0 231.5 94.5t88.5 233.5t-88.5 233.5t-231.5 94.5q-144 0 -232.5 -94.5t-88.5 -233.5t88.5 -233.5t232.5 -94.5zM287 172v406h132
q164 0 164 -133q0 -88 -82 -121l98 -152h-86l-78 125h-71v-125h-77zM364 359h55q38 0 62 21t24 65q0 71 -86 71h-55v-157z" />
    <glyph glyph-name="macron" unicode="&#xaf;" horiz-adv-x="312" 
d="M95 625l13 63h250l-13 -63h-250z" />
    <glyph glyph-name="macron" unicode="&#x2c9;" horiz-adv-x="312" 
d="M95 625l13 63h250l-13 -63h-250z" />
    <glyph glyph-name="degree" unicode="&#xb0;" horiz-adv-x="414" 
d="M203 320q-129 0 -129 127q0 52 14.5 105t41.5 99t73.5 75t103.5 29q130 0 130 -128q0 -53 -14 -105.5t-41 -98.5t-73.5 -74.5t-105.5 -28.5zM213 376q64 0 106.5 77.5t42.5 173.5q0 39 -15 55t-48 16q-64 0 -107 -77.5t-43 -173.5q0 -38 15.5 -54.5t48.5 -16.5z" />
    <glyph glyph-name="plusminus" unicode="&#xb1;" horiz-adv-x="625" 
d="M238 148l38 180h-179l16 78h180l39 180h78l-39 -180h180l-17 -78h-180l-38 -180h-78zM11 -78l16 78h438l-17 -78h-437z" />
    <glyph glyph-name="twosuperior" unicode="&#xb2;" horiz-adv-x="412" 
d="M59 324l12 59q9 39 34.5 69.5t85.5 58.5l64 29q53 24 76 48t23 57q0 47 -79 47h-140l11 58h139q69 0 107 -29.5t38 -75.5q0 -54 -36 -90t-111 -68l-47 -20q-45 -20 -65 -38t-26 -46h247l-14 -59h-319z" />
    <glyph glyph-name="threesuperior" unicode="&#xb3;" horiz-adv-x="412" 
d="M63 324l13 59h133q64 0 94 20.5t30 65.5q0 25 -23.5 38.5t-62.5 13.5h-80l14 58h103q76 29 76 73q0 40 -75 40h-139l14 58h138q67 0 103 -24t36 -70q0 -29 -21.5 -57t-60.5 -45q53 -29 53 -85q0 -69 -50 -107t-154 -38h-141z" />
    <glyph glyph-name="acute" unicode="&#xb4;" horiz-adv-x="321" 
d="M130 625v16l141 140h101v-15l-180 -141h-62z" />
    <glyph glyph-name="mu" unicode="&#xb5;" horiz-adv-x="612" 
d="M484 0h-86q-9 23 -9 55q0 23 4 47l-50 -39q-50 -39 -86.5 -55t-76.5 -16q-36 0 -67 13l-40 -193h-86l157 735h85l-78 -367q-7 -35 -7 -51q0 -32 13 -45.5t45 -13.5q23 0 56 16.5t51.5 30t52.5 39.5l50 38l75 353h86l-90 -422q-8 -43 -8 -70q0 -32 9 -55z" />
    <glyph glyph-name="mu" unicode="&#x3bc;" horiz-adv-x="612" 
d="M484 0h-86q-9 23 -9 55q0 23 4 47l-50 -39q-50 -39 -86.5 -55t-76.5 -16q-36 0 -67 13l-40 -193h-86l157 735h85l-78 -367q-7 -35 -7 -51q0 -32 13 -45.5t45 -13.5q23 0 56 16.5t51.5 30t52.5 39.5l50 38l75 353h86l-90 -422q-8 -43 -8 -70q0 -32 9 -55z" />
    <glyph glyph-name="paragraph" unicode="&#xb6;" horiz-adv-x="727" 
d="M441 -188l200 938h86l-200 -938h-86zM270 -188l80 376h-63q-105 0 -167 53t-62 157q0 90 29 159.5t79 110.5t110.5 61.5t129.5 20.5h149l-200 -938h-85z" />
    <glyph glyph-name="periodcentered" unicode="&#xb7;" horiz-adv-x="273" 
d="M90 313l19 93h94l-19 -93h-94z" />
    <glyph glyph-name="periodcentered" unicode="&#x2219;" horiz-adv-x="273" 
d="M90 313l19 93h94l-19 -93h-94z" />
    <glyph glyph-name="cedilla" unicode="&#xb8;" horiz-adv-x="310" 
d="M-55 -188v40h94q24 0 39.5 12t15.5 34q0 40 -51 67v12h62q23 -12 37 -35t14 -47q0 -42 -29 -62.5t-76 -20.5h-106z" />
    <glyph glyph-name="onesuperior" unicode="&#xb9;" horiz-adv-x="412" 
d="M187 324l90 352l-135 -43h-17l16 60l178 57h54l-108 -426h-78z" />
    <glyph glyph-name="ordmasculine" unicode="&#xba;" horiz-adv-x="507" 
d="M250 318q-75 0 -120 37.5t-45 104.5q0 121 74.5 206t194.5 85q165 0 165 -141q0 -117 -73.5 -204.5t-195.5 -87.5zM263 375q77 0 129 69.5t52 153.5q0 52 -24 74t-80 22q-79 0 -130 -68t-51 -154q0 -50 25.5 -73.5t78.5 -23.5z" />
    <glyph glyph-name="guillemotright" unicode="&#xbb;" horiz-adv-x="586" 
d="M266 125l20 94l165 117l-115 117l19 94h8l173 -180l-13 -61l-250 -181h-7zM16 125l20 94l165 117l-115 117l19 94h8l173 -180l-13 -61l-250 -181h-7z" />
    <glyph glyph-name="onequarter" unicode="&#xbc;" horiz-adv-x="938" 
d="M254 0v12l375 738h55v-12l-375 -738h-55zM145 324l89 352l-135 -43h-17l16 60l178 57h54l-108 -426h-77zM492 97l10 45q134 147 192 284h77q-54 -126 -181 -274h137l30 120h76l-30 -120h62l-12 -55h-64l-23 -97h-78l24 97h-220z" />
    <glyph glyph-name="onehalf" unicode="&#xbd;" horiz-adv-x="938" 
d="M254 0v12l375 738h55v-12l-375 -738h-55zM145 324l89 352l-135 -43h-17l16 60l178 57h54l-108 -426h-77zM499 0l13 59q8 38 33.5 69t86.5 59l63 29q54 24 76.5 47.5t22.5 56.5q0 48 -78 48h-141l12 58h139q69 0 106.5 -29.5t37.5 -76.5q0 -53 -36 -89t-110 -68l-47 -20
q-46 -20 -65.5 -37.5t-26.5 -46.5h247l-14 -59h-319z" />
    <glyph glyph-name="threequarters" unicode="&#xbe;" horiz-adv-x="938" 
d="M254 0v12l375 738h55v-12l-375 -738h-55zM492 97l10 45q134 147 192 284h77q-54 -126 -181 -274h137l30 120h76l-30 -120h62l-12 -55h-64l-23 -97h-78l24 97h-220zM28 324l13 59h133q64 0 94 20.5t30 65.5q0 25 -23.5 38.5t-62.5 13.5h-80l14 58h103q76 29 76 73
q0 40 -75 40h-139l14 58h138q138 0 138 -94q0 -29 -21 -57t-60 -45q53 -29 53 -85q0 -69 -50 -107t-154 -38h-141z" />
    <glyph glyph-name="questiondown" unicode="&#xbf;" horiz-adv-x="434" 
d="M291 656l20 94h86l-20 -94h-86zM178 0q-184 0 -184 133q0 60 32.5 109.5t100.5 112.5l125 118l20 90h85l-19 -94l-133 -125q-45 -43 -65.5 -65.5t-38 -55.5t-17.5 -67q0 -86 109 -86h125l-15 -70h-125z" />
    <glyph glyph-name="Agrave" unicode="&#xc0;" horiz-adv-x="664" 
d="M-43 0v8q92 236 208 441t198 301h114q32 -90 64.5 -309t32.5 -441h-94q0 111 -7 203h-338q-39 -85 -84 -203h-94zM402 672q-124 -163 -231 -391h296q-23 243 -65 391zM515 837l-168 139v16h102l109 -141v-14h-43z" />
    <glyph glyph-name="Aacute" unicode="&#xc1;" horiz-adv-x="664" 
d="M-43 0v8q92 236 208 441t198 301h114q32 -90 64.5 -309t32.5 -441h-94q0 111 -7 203h-338q-39 -85 -84 -203h-94zM402 672q-124 -163 -231 -391h296q-23 243 -65 391zM328 828v16l141 140h101v-15l-180 -141h-62z" />
    <glyph glyph-name="Acircumflex" unicode="&#xc2;" horiz-adv-x="664" 
d="M-43 0v8q92 236 208 441t198 301h114q32 -90 64.5 -309t32.5 -441h-94q0 111 -7 203h-338q-39 -85 -84 -203h-94zM402 672q-124 -163 -231 -391h296q-23 243 -65 391zM258 828v12l156 144h94l93 -144v-12h-62l-82 113l-137 -113h-62z" />
    <glyph glyph-name="Atilde" unicode="&#xc3;" horiz-adv-x="664" 
d="M-43 0v8q92 236 208 441t198 301h114q32 -90 64.5 -309t32.5 -441h-94q0 111 -7 203h-338q-39 -85 -84 -203h-94zM402 672q-124 -163 -231 -391h296q-23 243 -65 391zM265 828l8 63q16 28 46.5 53t66.5 25q30 0 54.5 -19.5t44 -39t38.5 -19.5q50 0 102 78h7l-7 -63
q-17 -28 -47.5 -53t-66.5 -25q-28 0 -52 19.5t-44.5 39t-39.5 19.5q-49 0 -102 -78h-8z" />
    <glyph glyph-name="Adieresis" unicode="&#xc4;" horiz-adv-x="664" 
d="M-43 0v8q92 236 208 441t198 301h114q32 -90 64.5 -309t32.5 -441h-94q0 111 -7 203h-338q-39 -85 -84 -203h-94zM402 672q-124 -163 -231 -391h296q-23 243 -65 391zM513 828l20 94h86l-20 -94h-86zM271 828l20 94h87l-21 -94h-86z" />
    <glyph glyph-name="Aring" unicode="&#xc5;" horiz-adv-x="664" 
d="M-43 0v8q92 236 208 441t198 301h114q32 -90 64.5 -309t32.5 -441h-94q0 111 -7 203h-338q-39 -85 -84 -203h-94zM402 672q-124 -163 -231 -391h296q-23 243 -65 391zM436 828q-48 0 -71 21.5t-23 56.5q0 49 40 87t97 38q46 0 70 -20t24 -54q0 -50 -40 -89.5t-97 -39.5z
M440 867q38 0 62 24.5t24 53.5q0 24 -11.5 35.5t-39.5 11.5q-38 0 -62 -24.5t-24 -53.5q0 -24 11.5 -35.5t39.5 -11.5z" />
    <glyph glyph-name="AE" unicode="&#xc6;" horiz-adv-x="865" 
d="M-43 0v8q92 233 209.5 441t196.5 301h532l-16 -78h-314l-49 -234h294l-16 -79h-295l-33 -160q-8 -40 -8 -54q0 -37 19.5 -52t62.5 -15h234l-15 -78h-231q-163 0 -163 137q0 27 7 62l1 4h-238q-39 -85 -84 -203h-94zM402 672q-120 -159 -229 -387h217l82 387h-70z" />
    <glyph glyph-name="Ccedilla" unicode="&#xc7;" horiz-adv-x="684" 
d="M319 -8q-268 0 -268 242q0 47 11 94l19 94q35 165 139 250.5t275 85.5q54 0 105 -13.5t76 -29.5l-36 -160h-86l23 109q-31 16 -101 16q-243 0 -300 -258l-21 -94q-11 -47 -11 -94q0 -164 187 -164h47q81 0 156 35h8l-12 -78q-22 -12 -72.5 -23.5t-95.5 -11.5h-43z
M172 -188v40h94q24 0 39.5 12t15.5 34q0 40 -51 67v12h62q23 -12 37 -35t14 -47q0 -42 -29 -62.5t-76 -20.5h-106z" />
    <glyph glyph-name="Egrave" unicode="&#xc8;" horiz-adv-x="560" 
d="M224 0q-164 0 -164 137q0 31 7 66l118 547h406l-12 -78h-317l-51 -235h294l-12 -78h-299l-33 -156q-8 -40 -8 -58q0 -37 20 -52t62 -15h235l-16 -78h-230zM470 837l-168 139v16h102l109 -141v-14h-43z" />
    <glyph glyph-name="Eacute" unicode="&#xc9;" horiz-adv-x="560" 
d="M224 0q-164 0 -164 137q0 31 7 66l118 547h406l-12 -78h-317l-51 -235h294l-12 -78h-299l-33 -156q-8 -40 -8 -58q0 -37 20 -52t62 -15h235l-16 -78h-230zM303 828v16l141 140h101v-15l-180 -141h-62z" />
    <glyph glyph-name="Ecircumflex" unicode="&#xca;" horiz-adv-x="560" 
d="M224 0q-164 0 -164 137q0 31 7 66l118 547h406l-12 -78h-317l-51 -235h294l-12 -78h-299l-33 -156q-8 -40 -8 -58q0 -37 20 -52t62 -15h235l-16 -78h-230zM225 828v12l156 144h94l93 -144v-12h-62l-82 113l-137 -113h-62z" />
    <glyph glyph-name="Edieresis" unicode="&#xcb;" horiz-adv-x="560" 
d="M224 0q-164 0 -164 137q0 31 7 66l118 547h406l-12 -78h-317l-51 -235h294l-12 -78h-299l-33 -156q-8 -40 -8 -58q0 -37 20 -52t62 -15h235l-16 -78h-230zM480 828l20 94h86l-20 -94h-86zM238 828l20 94h87l-21 -94h-86z" />
    <glyph glyph-name="Igrave" unicode="&#xcc;" horiz-adv-x="281" 
d="M27 0l160 750h94l-160 -750h-94zM313 837l-168 139v16h102l109 -141v-14h-43z" />
    <glyph glyph-name="Iacute" unicode="&#xcd;" horiz-adv-x="281" 
d="M27 0l160 750h94l-160 -750h-94zM149 828v16l141 140h101v-15l-180 -141h-62z" />
    <glyph glyph-name="Icircumflex" unicode="&#xce;" horiz-adv-x="281" 
d="M27 0l160 750h94l-160 -750h-94zM79 828v12l156 144h94l93 -144v-12h-62l-82 113l-137 -113h-62z" />
    <glyph glyph-name="Idieresis" unicode="&#xcf;" horiz-adv-x="281" 
d="M27 0l160 750h94l-160 -750h-94zM330 828l20 94h86l-20 -94h-86zM88 828l20 94h87l-21 -94h-86z" />
    <glyph glyph-name="Eth" unicode="&#xd0;" horiz-adv-x="703" 
d="M27 0l76 355h-91l15 82h93l67 313h223q274 0 274 -223q0 -62 -11 -109l-21 -90q-75 -328 -382 -328h-243zM293 355h-97l-58 -277h139q226 0 282 250l19 90q12 52 12 105q0 84 -47.5 116.5t-147.5 32.5h-130l-51 -235h95z" />
    <glyph glyph-name="Ntilde" unicode="&#xd1;" horiz-adv-x="750" 
d="M27 0l160 750h67l281 -566l121 566h94l-160 -750h-67l-281 566l-121 -566h-94zM316 828l8 63q16 28 46.5 53t66.5 25q30 0 54.5 -19.5t44 -39t38.5 -19.5q50 0 102 78h7l-7 -63q-17 -28 -47.5 -53t-66.5 -25q-28 0 -52 19.5t-44.5 39t-39.5 19.5q-49 0 -102 -78h-8z" />
    <glyph glyph-name="Ograve" unicode="&#xd2;" horiz-adv-x="734" 
d="M312 -8q-130 0 -195.5 63.5t-65.5 182.5q0 55 11 110l16 74q36 169 126.5 252.5t244.5 83.5q130 0 196 -63.5t66 -182.5q0 -56 -12 -110l-15 -74q-36 -171 -126 -253.5t-246 -82.5zM324 70q108 0 172.5 60t93.5 198l15 74q12 54 12 110q0 89 -44.5 128.5t-135.5 39.5
q-109 0 -171 -59.5t-93 -198.5l-17 -74q-11 -48 -11 -110q0 -89 44.5 -128.5t134.5 -39.5zM552 837l-168 139v16h102l109 -141v-14h-43z" />
    <glyph glyph-name="Oacute" unicode="&#xd3;" horiz-adv-x="734" 
d="M312 -8q-130 0 -195.5 63.5t-65.5 182.5q0 55 11 110l16 74q36 169 126.5 252.5t244.5 83.5q130 0 196 -63.5t66 -182.5q0 -56 -12 -110l-15 -74q-36 -171 -126 -253.5t-246 -82.5zM324 70q108 0 172.5 60t93.5 198l15 74q12 54 12 110q0 89 -44.5 128.5t-135.5 39.5
q-109 0 -171 -59.5t-93 -198.5l-17 -74q-11 -48 -11 -110q0 -89 44.5 -128.5t134.5 -39.5zM373 828v16l141 140h101v-15l-180 -141h-62z" />
    <glyph glyph-name="Ocircumflex" unicode="&#xd4;" horiz-adv-x="734" 
d="M312 -8q-130 0 -195.5 63.5t-65.5 182.5q0 55 11 110l16 74q36 169 126.5 252.5t244.5 83.5q130 0 196 -63.5t66 -182.5q0 -56 -12 -110l-15 -74q-36 -171 -126 -253.5t-246 -82.5zM324 70q108 0 172.5 60t93.5 198l15 74q12 54 12 110q0 89 -44.5 128.5t-135.5 39.5
q-109 0 -171 -59.5t-93 -198.5l-17 -74q-11 -48 -11 -110q0 -89 44.5 -128.5t134.5 -39.5zM307 828v12l156 144h94l93 -144v-12h-62l-82 113l-137 -113h-62z" />
    <glyph glyph-name="Otilde" unicode="&#xd5;" horiz-adv-x="734" 
d="M312 -8q-130 0 -195.5 63.5t-65.5 182.5q0 55 11 110l16 74q36 169 126.5 252.5t244.5 83.5q130 0 196 -63.5t66 -182.5q0 -56 -12 -110l-15 -74q-36 -171 -126 -253.5t-246 -82.5zM324 70q108 0 172.5 60t93.5 198l15 74q12 54 12 110q0 89 -44.5 128.5t-135.5 39.5
q-109 0 -171 -59.5t-93 -198.5l-17 -74q-11 -48 -11 -110q0 -89 44.5 -128.5t134.5 -39.5zM306 828l8 63q16 28 46.5 53t66.5 25q30 0 54.5 -19.5t44 -39t38.5 -19.5q50 0 102 78h7l-7 -63q-17 -28 -47.5 -53t-66.5 -25q-28 0 -52 19.5t-44.5 39t-39.5 19.5q-49 0 -102 -78
h-8z" />
    <glyph glyph-name="Odieresis" unicode="&#xd6;" horiz-adv-x="734" 
d="M312 -8q-130 0 -195.5 63.5t-65.5 182.5q0 55 11 110l16 74q36 169 126.5 252.5t244.5 83.5q130 0 196 -63.5t66 -182.5q0 -56 -12 -110l-15 -74q-36 -171 -126 -253.5t-246 -82.5zM324 70q108 0 172.5 60t93.5 198l15 74q12 54 12 110q0 89 -44.5 128.5t-135.5 39.5
q-109 0 -171 -59.5t-93 -198.5l-17 -74q-11 -48 -11 -110q0 -89 44.5 -128.5t134.5 -39.5zM543 828l20 94h86l-20 -94h-86zM301 828l20 94h87l-21 -94h-86z" />
    <glyph glyph-name="multiply" unicode="&#xd7;" horiz-adv-x="625" 
d="M158 185l-44 55l155 127l-100 127l67 56l100 -127l154 127l44 -56l-154 -127l99 -127l-67 -55l-100 127z" />
    <glyph glyph-name="Oslash" unicode="&#xd8;" horiz-adv-x="734" 
d="M-12 0v12l92 92q-29 56 -29 134q0 55 11 110l16 74q36 169 126.5 252.5t244.5 83.5q137 0 205 -73l65 65h54v-12l-91 -92q29 -58 29 -134q0 -56 -12 -110l-15 -74q-36 -171 -126 -253.5t-246 -82.5q-138 0 -205 73l-64 -65h-55zM324 70q108 0 172.5 60t93.5 198l15 74
q12 54 12 110q0 31 -7 61l-439 -443q41 -60 153 -60zM145 238q0 -41 6 -61l439 443q-41 60 -153 60q-109 0 -171 -59.5t-93 -198.5l-17 -74q-11 -48 -11 -110z" />
    <glyph glyph-name="Ugrave" unicode="&#xd9;" horiz-adv-x="719" 
d="M293 -8q-104 0 -165.5 48t-61.5 144q0 39 20 129l94 437h93l-93 -437q-20 -90 -20 -114q0 -67 36 -98t113 -31q83 0 142.5 53.5t79.5 149.5l102 477h94l-102 -477q-60 -281 -332 -281zM550 837l-168 139v16h102l109 -141v-14h-43z" />
    <glyph glyph-name="Uacute" unicode="&#xda;" horiz-adv-x="719" 
d="M293 -8q-104 0 -165.5 48t-61.5 144q0 39 20 129l94 437h93l-93 -437q-20 -90 -20 -114q0 -67 36 -98t113 -31q83 0 142.5 53.5t79.5 149.5l102 477h94l-102 -477q-60 -281 -332 -281zM359 828v16l141 140h101v-15l-180 -141h-62z" />
    <glyph glyph-name="Ucircumflex" unicode="&#xdb;" horiz-adv-x="719" 
d="M293 -8q-104 0 -165.5 48t-61.5 144q0 39 20 129l94 437h93l-93 -437q-20 -90 -20 -114q0 -67 36 -98t113 -31q83 0 142.5 53.5t79.5 149.5l102 477h94l-102 -477q-60 -281 -332 -281zM289 828v12l156 144h94l93 -144v-12h-62l-82 113l-137 -113h-62z" />
    <glyph glyph-name="Udieresis" unicode="&#xdc;" horiz-adv-x="719" 
d="M293 -8q-104 0 -165.5 48t-61.5 144q0 39 20 129l94 437h93l-93 -437q-20 -90 -20 -114q0 -67 36 -98t113 -31q83 0 142.5 53.5t79.5 149.5l102 477h94l-102 -477q-60 -281 -332 -281zM545 828l20 94h86l-20 -94h-86zM303 828l20 94h87l-21 -94h-86z" />
    <glyph glyph-name="Yacute" unicode="&#xdd;" horiz-adv-x="594" 
d="M184 0l66 309l-148 433v8h89l125 -355l270 355h91v-8l-333 -429l-67 -313h-93zM301 828v16l141 140h101v-15l-180 -141h-62z" />
    <glyph glyph-name="Thorn" unicode="&#xde;" horiz-adv-x="609" 
d="M28 0l159 750h94l-27 -125h141q93 0 142 -48t49 -139q0 -138 -83.5 -223.5t-221.5 -85.5h-133l-26 -129h-94zM165 207h133q93 0 143.5 61.5t50.5 161.5q0 56 -31.5 86.5t-89.5 30.5h-133z" />
    <glyph glyph-name="germandbls" unicode="&#xdf;" horiz-adv-x="670" 
d="M57 469l15 78h94l4 19q39 184 262 184q75 0 127 -28t52 -85q0 -51 -23.5 -83.5t-77.5 -73.5q-4 -3 -24 -16.5t-29 -21t-19 -22t-10 -29.5q0 -23 9.5 -35t33.5 -24l30 -16q99 -51 99 -132q0 -91 -61 -141.5t-158 -50.5q-85 0 -137 16l16 78h9q67 -20 120 -20q50 0 87.5 27
t37.5 71q0 29 -14 45t-45 33l-35 20q-78 42 -78 105q0 15 3.5 28t11.5 25.5t14.5 21.5t21 20.5t21 17t24 17.5t21.5 15q62 45 62 93q0 71 -105 71q-68 0 -107 -24t-53 -89l-121 -563h-85l99 469h-92z" />
    <glyph glyph-name="agrave" unicode="&#xe0;" 
d="M156 -8q-62 0 -95.5 34t-33.5 95q0 23 16 98l12 54q30 142 118 208t218 66h160l-117 -547h-86l22 104l-50 -41q-42 -35 -79 -53t-85 -18zM172 70q26 0 55 13.5t45.5 25t47.5 36.5l70 54l58 270h-73q-97 0 -154.5 -46t-79.5 -150l-12 -54q-16 -77 -16 -90
q0 -32 13.5 -45.5t45.5 -13.5zM412 634l-168 139v16h102l109 -141v-14h-43z" />
    <glyph glyph-name="aacute" unicode="&#xe1;" 
d="M156 -8q-62 0 -95.5 34t-33.5 95q0 23 16 98l12 54q30 142 118 208t218 66h160l-117 -547h-86l22 104l-50 -41q-42 -35 -79 -53t-85 -18zM172 70q26 0 55 13.5t45.5 25t47.5 36.5l70 54l58 270h-73q-97 0 -154.5 -46t-79.5 -150l-12 -54q-16 -77 -16 -90
q0 -32 13.5 -45.5t45.5 -13.5zM276 625v16l141 140h101v-15l-180 -141h-62z" />
    <glyph glyph-name="acircumflex" unicode="&#xe2;" 
d="M156 -8q-62 0 -95.5 34t-33.5 95q0 23 16 98l12 54q30 142 118 208t218 66h160l-117 -547h-86l22 104l-50 -41q-42 -35 -79 -53t-85 -18zM172 70q26 0 55 13.5t45.5 25t47.5 36.5l70 54l58 270h-73q-97 0 -154.5 -46t-79.5 -150l-12 -54q-16 -77 -16 -90
q0 -32 13.5 -45.5t45.5 -13.5zM186 625v12l156 144h94l93 -144v-12h-62l-82 113l-137 -113h-62z" />
    <glyph glyph-name="atilde" unicode="&#xe3;" 
d="M156 -8q-62 0 -95.5 34t-33.5 95q0 23 16 98l12 54q30 142 118 208t218 66h160l-117 -547h-86l22 104l-50 -41q-42 -35 -79 -53t-85 -18zM172 70q26 0 55 13.5t45.5 25t47.5 36.5l70 54l58 270h-73q-97 0 -154.5 -46t-79.5 -150l-12 -54q-16 -77 -16 -90
q0 -32 13.5 -45.5t45.5 -13.5zM181 625l8 63q16 28 46.5 53t66.5 25q30 0 54.5 -19.5t44 -39t38.5 -19.5q50 0 102 78h7l-7 -63q-17 -28 -47.5 -53t-66.5 -25q-28 0 -52 19.5t-44.5 39t-39.5 19.5q-49 0 -102 -78h-8z" />
    <glyph glyph-name="adieresis" unicode="&#xe4;" 
d="M156 -8q-62 0 -95.5 34t-33.5 95q0 23 16 98l12 54q30 142 118 208t218 66h160l-117 -547h-86l22 104l-50 -41q-42 -35 -79 -53t-85 -18zM172 70q26 0 55 13.5t45.5 25t47.5 36.5l70 54l58 270h-73q-97 0 -154.5 -46t-79.5 -150l-12 -54q-16 -77 -16 -90
q0 -32 13.5 -45.5t45.5 -13.5zM425 625l20 94h86l-20 -94h-86zM183 625l20 94h87l-21 -94h-86z" />
    <glyph glyph-name="aring" unicode="&#xe5;" 
d="M156 -8q-62 0 -95.5 34t-33.5 95q0 23 16 98l12 54q30 142 118 208t218 66h160l-117 -547h-86l22 104l-50 -41q-42 -35 -79 -53t-85 -18zM172 70q26 0 55 13.5t45.5 25t47.5 36.5l70 54l58 270h-73q-97 0 -154.5 -46t-79.5 -150l-12 -54q-16 -77 -16 -90
q0 -32 13.5 -45.5t45.5 -13.5zM348 625q-48 0 -71 21.5t-23 56.5q0 49 40 87t97 38q46 0 70 -20t24 -54q0 -50 -40 -89.5t-97 -39.5zM352 664q38 0 62 24.5t24 53.5q0 24 -11.5 35.5t-39.5 11.5q-38 0 -62 -24.5t-24 -53.5q0 -24 11.5 -35.5t39.5 -11.5z" />
    <glyph glyph-name="ae" unicode="&#xe6;" horiz-adv-x="883" 
d="M156 -8q-62 0 -95.5 34t-33.5 95q0 23 16 98l12 54q30 142 118 208t218 66h304q71 0 115.5 -34t44.5 -99q0 -89 -60.5 -130.5t-161.5 -41.5h-147l-2 -12q-11 -44 -11 -74q0 -50 28.5 -70t84.5 -20q83 0 164 39h8l-12 -74q-86 -39 -176 -39q-168 0 -182 127l-68 -56
q-42 -35 -79 -53t-85 -18zM418 320q21 94 71 149h-114q-97 0 -154.5 -46t-79.5 -150l-12 -54q-16 -77 -16 -90q0 -32 13.5 -45.5t45.5 -13.5q26 0 55 13.5t45.5 25t47.5 36.5l73 54q5 29 5 31zM504 320l-3 -11h140q65 0 97 26t32 71q0 67 -90 67q-74 0 -115.5 -33
t-60.5 -120z" />
    <glyph glyph-name="ccedilla" unicode="&#xe7;" horiz-adv-x="504" 
d="M215 -8q-184 0 -184 153q0 23 13 85l18 90q24 117 96 176t182 59q42 0 88.5 -12t67.5 -27l-31 -141h-78l19 86q-26 19 -82 19q-73 0 -114.5 -36t-61.5 -124l-19 -90q0 -2 -3.5 -17.5t-6 -30.5t-2.5 -26q0 -50 28.5 -70t84.5 -20q15 0 29 1t24.5 2.5t23 5t19 5.5t17.5 6.5
t14.5 6t13.5 6.5l12 6h8l-12 -74q-86 -39 -164 -39zM68 -188v40h94q24 0 39.5 12t15.5 34q0 40 -51 67v12h62q23 -12 37 -35t14 -47q0 -42 -29 -62.5t-76 -20.5h-106z" />
    <glyph glyph-name="egrave" unicode="&#xe8;" horiz-adv-x="523" 
d="M211 -8q-184 0 -184 153q0 23 13 85l19 90q24 117 95.5 176t181.5 59q71 0 115.5 -34t44.5 -99q0 -89 -61 -130.5t-162 -41.5h-144l-4 -20q0 -2 -3.5 -17.5t-6 -30.5t-2.5 -26q0 -50 28.5 -70t85.5 -20q81 0 164 39h7l-11 -74q-86 -39 -176 -39zM145 320l-1 -4h137
q129 0 129 98q0 66 -90 66q-72 0 -114 -36t-61 -124zM414 634l-168 139v16h102l109 -141v-14h-43z" />
    <glyph glyph-name="eacute" unicode="&#xe9;" horiz-adv-x="523" 
d="M211 -8q-184 0 -184 153q0 23 13 85l19 90q24 117 95.5 176t181.5 59q71 0 115.5 -34t44.5 -99q0 -89 -61 -130.5t-162 -41.5h-144l-4 -20q0 -2 -3.5 -17.5t-6 -30.5t-2.5 -26q0 -50 28.5 -70t85.5 -20q81 0 164 39h7l-11 -74q-86 -39 -176 -39zM145 320l-1 -4h137
q129 0 129 98q0 66 -90 66q-72 0 -114 -36t-61 -124zM231 625v16l141 140h101v-15l-180 -141h-62z" />
    <glyph glyph-name="ecircumflex" unicode="&#xea;" horiz-adv-x="523" 
d="M211 -8q-184 0 -184 153q0 23 13 85l19 90q24 117 95.5 176t181.5 59q71 0 115.5 -34t44.5 -99q0 -89 -61 -130.5t-162 -41.5h-144l-4 -20q0 -2 -3.5 -17.5t-6 -30.5t-2.5 -26q0 -50 28.5 -70t85.5 -20q81 0 164 39h7l-11 -74q-86 -39 -176 -39zM145 320l-1 -4h137
q129 0 129 98q0 66 -90 66q-72 0 -114 -36t-61 -124zM161 625v12l156 144h94l93 -144v-12h-62l-82 113l-137 -113h-62z" />
    <glyph glyph-name="edieresis" unicode="&#xeb;" horiz-adv-x="523" 
d="M211 -8q-184 0 -184 153q0 23 13 85l19 90q24 117 95.5 176t181.5 59q71 0 115.5 -34t44.5 -99q0 -89 -61 -130.5t-162 -41.5h-144l-4 -20q0 -2 -3.5 -17.5t-6 -30.5t-2.5 -26q0 -50 28.5 -70t85.5 -20q81 0 164 39h7l-11 -74q-86 -39 -176 -39zM145 320l-1 -4h137
q129 0 129 98q0 66 -90 66q-72 0 -114 -36t-61 -124zM408 625l20 94h86l-20 -94h-86zM166 625l20 94h87l-21 -94h-86z" />
    <glyph glyph-name="igrave" unicode="&#xec;" horiz-adv-x="273" 
d="M31 0l102 469h-94l16 78h179l-117 -547h-86zM196 634l-168 139v16h102l109 -141v-14h-43z" />
    <glyph glyph-name="iacute" unicode="&#xed;" horiz-adv-x="273" 
d="M31 0l102 469h-94l16 78h179l-117 -547h-86zM82 625v16l141 140h101v-15l-180 -141h-62z" />
    <glyph glyph-name="icircumflex" unicode="&#xee;" horiz-adv-x="273" 
d="M31 0l102 469h-94l16 78h179l-117 -547h-86zM0 625v12l156 144h94l93 -144v-12h-62l-82 113l-137 -113h-62z" />
    <glyph glyph-name="idieresis" unicode="&#xef;" horiz-adv-x="273" 
d="M31 0l102 469h-94l16 78h179l-117 -547h-86zM248 625l20 94h86l-20 -94h-86zM6 625l20 94h87l-21 -94h-86z" />
    <glyph glyph-name="eth" unicode="&#xf0;" 
d="M625 617h-60l-131 -617h-86l22 104l-50 -42q-42 -35 -78.5 -52.5t-85.5 -17.5q-62 0 -95.5 34t-33.5 95q0 23 16 98l12 54q30 142 118 208t218 66h73l15 70h-127l15 78h129l12 55h86l-12 -55h59zM172 70q26 0 55 13.5t45.5 25t47.5 36.5l70 53l57 271h-72
q-97 0 -154.5 -46t-79.5 -150l-12 -54q-16 -77 -16 -90q0 -32 13.5 -45.5t45.5 -13.5z" />
    <glyph glyph-name="ntilde" unicode="&#xf1;" horiz-adv-x="613" 
d="M27 0l118 547h85l-21 -102l49 39q50 39 86.5 55t77.5 16q57 0 89 -29.5t32 -84.5q0 -38 -8 -74l-78 -367h-86l78 367q8 40 8 51q0 32 -13.5 45.5t-45.5 13.5q-23 0 -56.5 -17t-50 -29t-53.5 -40l-50 -38l-75 -353h-86zM201 625l8 63q16 28 46.5 53t66.5 25
q30 0 54.5 -19.5t44 -39t38.5 -19.5q50 0 102 78h7l-7 -63q-17 -28 -47.5 -53t-66.5 -25q-28 0 -52 19.5t-44.5 39t-39.5 19.5q-49 0 -102 -78h-8z" />
    <glyph glyph-name="ograve" unicode="&#xf2;" 
d="M227 -8q-87 0 -139.5 49t-52.5 135q0 102 37.5 188t110 138.5t165.5 52.5q92 0 141.5 -46t49.5 -138q0 -98 -35.5 -183t-108.5 -140.5t-168 -55.5zM242 66q60 0 109.5 44t75.5 110t26 135q0 67 -28 96t-93 29q-92 0 -151.5 -88.5t-59.5 -200.5q0 -64 29.5 -94.5
t91.5 -30.5zM443 634l-168 139v16h102l109 -141v-14h-43z" />
    <glyph glyph-name="oacute" unicode="&#xf3;" 
d="M227 -8q-87 0 -139.5 49t-52.5 135q0 102 37.5 188t110 138.5t165.5 52.5q92 0 141.5 -46t49.5 -138q0 -98 -35.5 -183t-108.5 -140.5t-168 -55.5zM242 66q60 0 109.5 44t75.5 110t26 135q0 67 -28 96t-93 29q-92 0 -151.5 -88.5t-59.5 -200.5q0 -64 29.5 -94.5
t91.5 -30.5zM256 625v16l141 140h101v-15l-180 -141h-62z" />
    <glyph glyph-name="ocircumflex" unicode="&#xf4;" 
d="M227 -8q-87 0 -139.5 49t-52.5 135q0 102 37.5 188t110 138.5t165.5 52.5q92 0 141.5 -46t49.5 -138q0 -98 -35.5 -183t-108.5 -140.5t-168 -55.5zM242 66q60 0 109.5 44t75.5 110t26 135q0 67 -28 96t-93 29q-92 0 -151.5 -88.5t-59.5 -200.5q0 -64 29.5 -94.5
t91.5 -30.5zM194 625v12l156 144h94l93 -144v-12h-62l-82 113l-137 -113h-62z" />
    <glyph glyph-name="otilde" unicode="&#xf5;" 
d="M227 -8q-87 0 -139.5 49t-52.5 135q0 102 37.5 188t110 138.5t165.5 52.5q92 0 141.5 -46t49.5 -138q0 -98 -35.5 -183t-108.5 -140.5t-168 -55.5zM242 66q60 0 109.5 44t75.5 110t26 135q0 67 -28 96t-93 29q-92 0 -151.5 -88.5t-59.5 -200.5q0 -64 29.5 -94.5
t91.5 -30.5zM193 625l8 63q16 28 46.5 53t66.5 25q30 0 54.5 -19.5t44 -39t38.5 -19.5q50 0 102 78h7l-7 -63q-17 -28 -47.5 -53t-66.5 -25q-28 0 -52 19.5t-44.5 39t-39.5 19.5q-49 0 -102 -78h-8z" />
    <glyph glyph-name="odieresis" unicode="&#xf6;" 
d="M227 -8q-87 0 -139.5 49t-52.5 135q0 102 37.5 188t110 138.5t165.5 52.5q92 0 141.5 -46t49.5 -138q0 -98 -35.5 -183t-108.5 -140.5t-168 -55.5zM242 66q60 0 109.5 44t75.5 110t26 135q0 67 -28 96t-93 29q-92 0 -151.5 -88.5t-59.5 -200.5q0 -64 29.5 -94.5
t91.5 -30.5zM441 625l20 94h86l-20 -94h-86zM199 625l20 94h87l-21 -94h-86z" />
    <glyph glyph-name="divide" unicode="&#xf7;" horiz-adv-x="625" 
d="M307 469l16 78h78l-16 -78h-78zM97 328l16 78h438l-17 -78h-437zM247 188l17 78h78l-17 -78h-78z" />
    <glyph glyph-name="oslash" unicode="&#xf8;" 
d="M-16 0v12l72 71q-21 40 -21 93q0 102 37.5 188t110 138.5t165.5 52.5q89 0 139 -44l36 36h55v-12l-61 -61q22 -44 22 -103q0 -98 -35.5 -183t-108.5 -140.5t-168 -55.5q-93 0 -143 52l-45 -44h-55zM242 66q60 0 109.5 44t75.5 110t26 135q0 28 -5 51l-304 -302
q28 -38 98 -38zM121 191q0 -21 3 -41l302 300q-29 30 -94 30q-92 0 -151.5 -88.5t-59.5 -200.5z" />
    <glyph glyph-name="ugrave" unicode="&#xf9;" horiz-adv-x="613" 
d="M176 -8q-56 0 -88.5 29t-32.5 84q0 37 7 75l79 367h86l-79 -367q-7 -47 -7 -51q0 -32 13 -45.5t45 -13.5q23 0 56 16.5t51.5 30t52.5 39.5l49 38l76 353h86l-117 -547h-86l22 101l-49 -38q-50 -39 -87 -55t-77 -16zM451 634l-168 139v16h102l109 -141v-14h-43z" />
    <glyph glyph-name="uacute" unicode="&#xfa;" horiz-adv-x="613" 
d="M176 -8q-56 0 -88.5 29t-32.5 84q0 37 7 75l79 367h86l-79 -367q-7 -47 -7 -51q0 -32 13 -45.5t45 -13.5q23 0 56 16.5t51.5 30t52.5 39.5l49 38l76 353h86l-117 -547h-86l22 101l-49 -38q-50 -39 -87 -55t-77 -16zM268 625v16l141 140h101v-15l-180 -141h-62z" />
    <glyph glyph-name="ucircumflex" unicode="&#xfb;" horiz-adv-x="613" 
d="M176 -8q-56 0 -88.5 29t-32.5 84q0 37 7 75l79 367h86l-79 -367q-7 -47 -7 -51q0 -32 13 -45.5t45 -13.5q23 0 56 16.5t51.5 30t52.5 39.5l49 38l76 353h86l-117 -547h-86l22 101l-49 -38q-50 -39 -87 -55t-77 -16zM202 625v12l156 144h94l93 -144v-12h-62l-82 113
l-137 -113h-62z" />
    <glyph glyph-name="udieresis" unicode="&#xfc;" horiz-adv-x="613" 
d="M176 -8q-56 0 -88.5 29t-32.5 84q0 37 7 75l79 367h86l-79 -367q-7 -47 -7 -51q0 -32 13 -45.5t45 -13.5q23 0 56 16.5t51.5 30t52.5 39.5l49 38l76 353h86l-117 -547h-86l22 101l-49 -38q-50 -39 -87 -55t-77 -16zM445 625l20 94h86l-20 -94h-86zM203 625l20 94h87
l-21 -94h-86z" />
    <glyph glyph-name="yacute" unicode="&#xfd;" horiz-adv-x="605" 
d="M26 -188l22 75h89q109 0 164.5 40t73.5 128l15 69q-6 -3 -28 -15q-94 -46 -167 -46q-129 0 -129 136q0 5 16 90l55 258h86l-55 -258q-1 -4 -5.5 -23.5t-7.5 -36.5t-3 -26q0 -37 16 -49.5t55 -12.5q66 0 142 37q28 13 41 21l74 348h86l-101 -473q-32 -149 -110 -205.5
t-242 -56.5h-87zM264 625v16l141 140h101v-15l-180 -141h-62z" />
    <glyph glyph-name="thorn" unicode="&#xfe;" horiz-adv-x="589" 
d="M-13 -188l200 938h85l-65 -308l50 42q84 71 165 71q61 0 94.5 -34t33.5 -95q0 -26 -16 -98l-12 -55q-30 -141 -117.5 -207t-217.5 -66h-74l-40 -188h-86zM257 402l-70 -54l-57 -270h72q96 0 154 46t81 149l11 55q16 80 16 90q0 32 -13.5 45.5t-45.5 13.5q-25 0 -54 -13
t-46.5 -25.5t-47.5 -36.5z" />
    <glyph glyph-name="ydieresis" unicode="&#xff;" horiz-adv-x="605" 
d="M26 -188l22 75h89q109 0 164.5 40t73.5 128l15 69q-6 -3 -28 -15q-94 -46 -167 -46q-129 0 -129 136q0 5 16 90l55 258h86l-55 -258q-1 -4 -5.5 -23.5t-7.5 -36.5t-3 -26q0 -37 16 -49.5t55 -12.5q66 0 142 37q28 13 41 21l74 348h86l-101 -473q-32 -149 -110 -205.5
t-242 -56.5h-87zM441 625l20 94h86l-20 -94h-86zM199 625l20 94h87l-21 -94h-86z" />
    <glyph glyph-name="Amacron" unicode="&#x100;" horiz-adv-x="664" 
d="M-43 0v8q92 236 208 441t198 301h114q32 -90 64.5 -309t32.5 -441h-94q0 111 -7 203h-338q-39 -85 -84 -203h-94zM402 672q-124 -163 -231 -391h296q-23 243 -65 391zM310 828l13 63h250l-13 -63h-250z" />
    <glyph glyph-name="amacron" unicode="&#x101;" 
d="M156 -8q-62 0 -95.5 34t-33.5 95q0 23 16 98l12 54q30 142 118 208t218 66h160l-117 -547h-86l22 104l-50 -41q-42 -35 -79 -53t-85 -18zM172 70q26 0 55 13.5t45.5 25t47.5 36.5l70 54l58 270h-73q-97 0 -154.5 -46t-79.5 -150l-12 -54q-16 -77 -16 -90
q0 -32 13.5 -45.5t45.5 -13.5zM238 625l13 63h250l-13 -63h-250z" />
    <glyph glyph-name="Abreve" unicode="&#x102;" horiz-adv-x="664" 
d="M-43 0v8q92 236 208 441t198 301h114q32 -90 64.5 -309t32.5 -441h-94q0 111 -7 203h-338q-39 -85 -84 -203h-94zM402 672q-124 -163 -231 -391h296q-23 243 -65 391zM425 828q-121 0 -121 141h47q0 -78 86 -78q45 0 84.5 21t47.5 57h47q-14 -61 -63.5 -101t-127.5 -40z
" />
    <glyph glyph-name="abreve" unicode="&#x103;" 
d="M156 -8q-62 0 -95.5 34t-33.5 95q0 23 16 98l12 54q30 142 118 208t218 66h160l-117 -547h-86l22 104l-50 -41q-42 -35 -79 -53t-85 -18zM172 70q26 0 55 13.5t45.5 25t47.5 36.5l70 54l58 270h-73q-97 0 -154.5 -46t-79.5 -150l-12 -54q-16 -77 -16 -90
q0 -32 13.5 -45.5t45.5 -13.5zM341 625q-121 0 -121 141h47q0 -78 86 -78q45 0 84.5 21t47.5 57h47q-14 -61 -63.5 -101t-127.5 -40z" />
    <glyph glyph-name="Aogonek" unicode="&#x104;" horiz-adv-x="664" 
d="M-43 0v8q92 236 208 441t198 301h114q32 -90 64.5 -309t32.5 -441h-94q0 111 -7 203h-338q-39 -85 -84 -203h-94zM402 672q-124 -163 -231 -391h296q-23 243 -65 391zM652 -188h-105q-47 0 -76.5 20.5t-29.5 62.5q0 24 14 47t37 35h62v-12q-50 -26 -50 -67q0 -22 15 -34
t39 -12h94v-40z" />
    <glyph glyph-name="aogonek" unicode="&#x105;" 
d="M156 -8q-62 0 -95.5 34t-33.5 95q0 23 16 98l12 54q30 142 118 208t218 66h160l-117 -547h-86l22 104l-50 -41q-42 -35 -79 -53t-85 -18zM172 70q26 0 55 13.5t45.5 25t47.5 36.5l70 54l58 270h-73q-97 0 -154.5 -46t-79.5 -150l-12 -54q-16 -77 -16 -90
q0 -32 13.5 -45.5t45.5 -13.5zM517 -188h-105q-47 0 -76.5 20.5t-29.5 62.5q0 24 14 47t37 35h62v-12q-50 -26 -50 -67q0 -22 15 -34t39 -12h94v-40z" />
    <glyph glyph-name="Cacute" unicode="&#x106;" horiz-adv-x="684" 
d="M319 -8q-268 0 -268 242q0 47 11 94l19 94q35 165 139 250.5t275 85.5q54 0 105 -13.5t76 -29.5l-36 -160h-86l23 109q-31 16 -101 16q-243 0 -300 -258l-21 -94q-11 -47 -11 -94q0 -164 187 -164h47q81 0 156 35h8l-12 -78q-22 -12 -72.5 -23.5t-95.5 -11.5h-43z
M395 828v16l141 140h101v-15l-180 -141h-62z" />
    <glyph glyph-name="cacute" unicode="&#x107;" horiz-adv-x="504" 
d="M215 -8q-184 0 -184 153q0 23 13 85l18 90q24 117 96 176t182 59q42 0 88.5 -12t67.5 -27l-31 -141h-78l19 86q-26 19 -82 19q-73 0 -114.5 -36t-61.5 -124l-19 -90q0 -2 -3.5 -17.5t-6 -30.5t-2.5 -26q0 -50 28.5 -70t84.5 -20q15 0 29 1t24.5 2.5t23 5t19 5.5t17.5 6.5
t14.5 6t13.5 6.5l12 6h8l-12 -74q-86 -39 -164 -39zM233 625v16l141 140h101v-15l-180 -141h-62z" />
    <glyph glyph-name="Ccircumflex" unicode="&#x108;" horiz-adv-x="684" 
d="M319 -8q-268 0 -268 242q0 47 11 94l19 94q35 165 139 250.5t275 85.5q54 0 105 -13.5t76 -29.5l-36 -160h-86l23 109q-31 16 -101 16q-243 0 -300 -258l-21 -94q-11 -47 -11 -94q0 -164 187 -164h47q81 0 156 35h8l-12 -78q-22 -12 -72.5 -23.5t-95.5 -11.5h-43z
M266 828v12l156 144h94l93 -144v-12h-62l-82 113l-137 -113h-62z" />
    <glyph glyph-name="ccircumflex" unicode="&#x109;" horiz-adv-x="504" 
d="M215 -8q-184 0 -184 153q0 23 13 85l18 90q24 117 96 176t182 59q42 0 88.5 -12t67.5 -27l-31 -141h-78l19 86q-26 19 -82 19q-73 0 -114.5 -36t-61.5 -124l-19 -90q0 -2 -3.5 -17.5t-6 -30.5t-2.5 -26q0 -50 28.5 -70t84.5 -20q15 0 29 1t24.5 2.5t23 5t19 5.5t17.5 6.5
t14.5 6t13.5 6.5l12 6h8l-12 -74q-86 -39 -164 -39zM159 625v12l156 144h94l93 -144v-12h-62l-82 113l-137 -113h-62z" />
    <glyph glyph-name="Cdotaccent" unicode="&#x10a;" horiz-adv-x="684" 
d="M319 -8q-268 0 -268 242q0 47 11 94l19 94q35 165 139 250.5t275 85.5q54 0 105 -13.5t76 -29.5l-36 -160h-86l23 109q-31 16 -101 16q-243 0 -300 -258l-21 -94q-11 -47 -11 -94q0 -164 187 -164h47q81 0 156 35h8l-12 -78q-22 -12 -72.5 -23.5t-95.5 -11.5h-43z
M428 828l19 94h86l-19 -94h-86z" />
    <glyph glyph-name="cdotaccent" unicode="&#x10b;" horiz-adv-x="504" 
d="M215 -8q-184 0 -184 153q0 23 13 85l18 90q24 117 96 176t182 59q42 0 88.5 -12t67.5 -27l-31 -141h-78l19 86q-26 19 -82 19q-73 0 -114.5 -36t-61.5 -124l-19 -90q0 -2 -3.5 -17.5t-6 -30.5t-2.5 -26q0 -50 28.5 -70t84.5 -20q15 0 29 1t24.5 2.5t23 5t19 5.5t17.5 6.5
t14.5 6t13.5 6.5l12 6h8l-12 -74q-86 -39 -164 -39zM297 625l19 94h86l-19 -94h-86z" />
    <glyph glyph-name="Ccaron" unicode="&#x10c;" horiz-adv-x="684" 
d="M319 -8q-268 0 -268 242q0 47 11 94l19 94q35 165 139 250.5t275 85.5q54 0 105 -13.5t76 -29.5l-36 -160h-86l23 109q-31 16 -101 16q-243 0 -300 -258l-21 -94q-11 -47 -11 -94q0 -164 187 -164h47q81 0 156 35h8l-12 -78q-22 -12 -72.5 -23.5t-95.5 -11.5h-43z
M425 828l-93 145v11h62l82 -113l137 113h62v-11l-156 -145h-94z" />
    <glyph glyph-name="ccaron" unicode="&#x10d;" horiz-adv-x="504" 
d="M215 -8q-184 0 -184 153q0 23 13 85l18 90q24 117 96 176t182 59q42 0 88.5 -12t67.5 -27l-31 -141h-78l19 86q-26 19 -82 19q-73 0 -114.5 -36t-61.5 -124l-19 -90q0 -2 -3.5 -17.5t-6 -30.5t-2.5 -26q0 -50 28.5 -70t84.5 -20q15 0 29 1t24.5 2.5t23 5t19 5.5t17.5 6.5
t14.5 6t13.5 6.5l12 6h8l-12 -74q-86 -39 -164 -39zM279 625l-93 145v11h62l82 -113l137 113h62v-11l-156 -145h-94z" />
    <glyph glyph-name="Dcaron" unicode="&#x10e;" horiz-adv-x="703" 
d="M27 0l160 750h223q274 0 274 -223q0 -62 -11 -109l-21 -90q-75 -328 -382 -328h-243zM395 672h-130l-127 -594h139q226 0 282 250l19 90q12 52 12 105q0 84 -47.5 116.5t-147.5 32.5zM365 828l-93 145v11h62l82 -113l137 113h62v-11l-156 -145h-94z" />
    <glyph glyph-name="dcaron" unicode="&#x10f;" 
d="M156 -8q-62 0 -95.5 34t-33.5 95q0 23 16 98l12 54q30 142 118 208t218 66h73l44 203h86l-160 -750h-86l22 104l-50 -41q-42 -35 -79 -53t-85 -18zM172 70q26 0 55 13.5t45.5 25t47.5 36.5l70 53l57 271h-72q-97 0 -154.5 -46t-79.5 -150l-12 -54q-16 -77 -16 -90
q0 -32 13.5 -45.5t45.5 -13.5zM605 594l75 156h86l-8 -47l-94 -109h-59z" />
    <glyph glyph-name="Dcroat" unicode="&#x110;" horiz-adv-x="703" 
d="M27 0l76 355h-91l15 82h93l67 313h223q274 0 274 -223q0 -62 -11 -109l-21 -90q-75 -328 -382 -328h-243zM293 355h-97l-58 -277h139q226 0 282 250l19 90q12 52 12 105q0 84 -47.5 116.5t-147.5 32.5h-130l-51 -235h95z" />
    <glyph glyph-name="dcroat" unicode="&#x111;" 
d="M625 617h-60l-131 -617h-86l22 104l-50 -42q-42 -35 -78.5 -52.5t-85.5 -17.5q-62 0 -95.5 34t-33.5 95q0 23 16 98l12 54q30 142 118 208t218 66h73l15 70h-127l15 78h129l12 55h86l-12 -55h59zM172 70q26 0 55 13.5t45.5 25t47.5 36.5l70 53l57 271h-72
q-97 0 -154.5 -46t-79.5 -150l-12 -54q-16 -77 -16 -90q0 -32 13.5 -45.5t45.5 -13.5z" />
    <glyph glyph-name="Emacron" unicode="&#x112;" horiz-adv-x="560" 
d="M224 0q-164 0 -164 137q0 31 7 66l118 547h406l-12 -78h-317l-51 -235h294l-12 -78h-299l-33 -156q-8 -40 -8 -58q0 -37 20 -52t62 -15h235l-16 -78h-230zM273 828l13 63h250l-13 -63h-250z" />
    <glyph glyph-name="emacron" unicode="&#x113;" horiz-adv-x="523" 
d="M211 -8q-184 0 -184 153q0 23 13 85l19 90q24 117 95.5 176t181.5 59q71 0 115.5 -34t44.5 -99q0 -89 -61 -130.5t-162 -41.5h-144l-4 -20q0 -2 -3.5 -17.5t-6 -30.5t-2.5 -26q0 -50 28.5 -70t85.5 -20q81 0 164 39h7l-11 -74q-86 -39 -176 -39zM145 320l-1 -4h137
q129 0 129 98q0 66 -90 66q-72 0 -114 -36t-61 -124zM208 625l13 63h250l-13 -63h-250z" />
    <glyph glyph-name="Ebreve" unicode="&#x114;" horiz-adv-x="560" 
d="M224 0q-164 0 -164 137q0 31 7 66l118 547h406l-12 -78h-317l-51 -235h294l-12 -78h-299l-33 -156q-8 -40 -8 -58q0 -37 20 -52t62 -15h235l-16 -78h-230zM400 828q-121 0 -121 141h47q0 -78 86 -78q45 0 84.5 21t47.5 57h47q-14 -61 -63.5 -101t-127.5 -40z" />
    <glyph glyph-name="ebreve" unicode="&#x115;" horiz-adv-x="523" 
d="M211 -8q-184 0 -184 153q0 23 13 85l19 90q24 117 95.5 176t181.5 59q71 0 115.5 -34t44.5 -99q0 -89 -61 -130.5t-162 -41.5h-144l-4 -20q0 -2 -3.5 -17.5t-6 -30.5t-2.5 -26q0 -50 28.5 -70t85.5 -20q81 0 164 39h7l-11 -74q-86 -39 -176 -39zM145 320l-1 -4h137
q129 0 129 98q0 66 -90 66q-72 0 -114 -36t-61 -124zM325 625q-121 0 -121 141h47q0 -78 86 -78q45 0 84.5 21t47.5 57h47q-14 -61 -63.5 -101t-127.5 -40z" />
    <glyph glyph-name="Edotaccent" unicode="&#x116;" horiz-adv-x="560" 
d="M224 0q-164 0 -164 137q0 31 7 66l118 547h406l-12 -78h-317l-51 -235h294l-12 -78h-299l-33 -156q-8 -40 -8 -58q0 -37 20 -52t62 -15h235l-16 -78h-230zM360 828l19 94h86l-19 -94h-86z" />
    <glyph glyph-name="edotaccent" unicode="&#x117;" horiz-adv-x="523" 
d="M211 -8q-184 0 -184 153q0 23 13 85l19 90q24 117 95.5 176t181.5 59q71 0 115.5 -34t44.5 -99q0 -89 -61 -130.5t-162 -41.5h-144l-4 -20q0 -2 -3.5 -17.5t-6 -30.5t-2.5 -26q0 -50 28.5 -70t85.5 -20q81 0 164 39h7l-11 -74q-86 -39 -176 -39zM145 320l-1 -4h137
q129 0 129 98q0 66 -90 66q-72 0 -114 -36t-61 -124zM299 625l19 94h86l-19 -94h-86z" />
    <glyph glyph-name="Eogonek" unicode="&#x118;" horiz-adv-x="560" 
d="M224 0q-164 0 -164 137q0 31 7 66l118 547h406l-12 -78h-317l-51 -235h294l-12 -78h-299l-33 -156q-8 -40 -8 -58q0 -37 20 -52t62 -15h235l-16 -78h-230zM510 -188h-105q-47 0 -76.5 20.5t-29.5 62.5q0 24 14 47t37 35h62v-12q-50 -26 -50 -67q0 -22 15 -34t39 -12h94
v-40z" />
    <glyph glyph-name="eogonek" unicode="&#x119;" horiz-adv-x="523" 
d="M211 -8q-184 0 -184 153q0 23 13 85l19 90q24 117 95.5 176t181.5 59q71 0 115.5 -34t44.5 -99q0 -89 -61 -130.5t-162 -41.5h-144l-4 -20q0 -2 -3.5 -17.5t-6 -30.5t-2.5 -26q0 -50 28.5 -70t85.5 -20q81 0 164 39h7l-11 -74q-86 -39 -176 -39zM145 320l-1 -4h137
q129 0 129 98q0 66 -90 66q-72 0 -114 -36t-61 -124zM332 -188h-105q-47 0 -76.5 20.5t-29.5 62.5q0 24 14 47t37 35h62v-12q-50 -26 -50 -67q0 -22 15 -34t39 -12h94v-40z" />
    <glyph glyph-name="Ecaron" unicode="&#x11a;" horiz-adv-x="560" 
d="M224 0q-164 0 -164 137q0 31 7 66l118 547h406l-12 -78h-317l-51 -235h294l-12 -78h-299l-33 -156q-8 -40 -8 -58q0 -37 20 -52t62 -15h235l-16 -78h-230zM345 828l-93 145v11h62l82 -113l137 113h62v-11l-156 -145h-94z" />
    <glyph glyph-name="ecaron" unicode="&#x11b;" horiz-adv-x="523" 
d="M211 -8q-184 0 -184 153q0 23 13 85l19 90q24 117 95.5 176t181.5 59q71 0 115.5 -34t44.5 -99q0 -89 -61 -130.5t-162 -41.5h-144l-4 -20q0 -2 -3.5 -17.5t-6 -30.5t-2.5 -26q0 -50 28.5 -70t85.5 -20q81 0 164 39h7l-11 -74q-86 -39 -176 -39zM145 320l-1 -4h137
q129 0 129 98q0 66 -90 66q-72 0 -114 -36t-61 -124zM285 625l-93 145v11h62l82 -113l137 113h62v-11l-156 -145h-94z" />
    <glyph glyph-name="Gcircumflex" unicode="&#x11c;" horiz-adv-x="680" 
d="M319 -8q-268 0 -268 242q0 47 11 94l19 94q70 336 410 336q118 0 193 -43l-17 -78h-8q-76 43 -183 43q-243 0 -300 -258l-21 -94q-11 -51 -11 -94q0 -164 187 -164h47q50 0 113 22l42 197h-151l15 78h243l-71 -332q-35 -15 -98 -29t-109 -14h-43zM286 828v12l156 144h94
l93 -144v-12h-62l-82 113l-137 -113h-62z" />
    <glyph glyph-name="gcircumflex" unicode="&#x11d;" horiz-adv-x="582" 
d="M4 -188l20 75h90q110 0 165 40t74 128l8 41q-7 -5 -37 -21q-86 -44 -154 -44q-60 0 -99 33t-39 104q0 22 8 62l12 55q28 131 107 196.5t201 65.5h183l-101 -473q-32 -149 -109.5 -205.5t-241.5 -56.5h-87zM188 109q73 0 190 66l63 294h-100q-87 0 -135.5 -47t-67.5 -137
l-12 -55q-8 -40 -8 -50q0 -40 16 -55.5t54 -15.5zM179 625v12l156 144h94l93 -144v-12h-62l-82 113l-137 -113h-62z" />
    <glyph glyph-name="Gbreve" unicode="&#x11e;" horiz-adv-x="680" 
d="M319 -8q-268 0 -268 242q0 47 11 94l19 94q70 336 410 336q118 0 193 -43l-17 -78h-8q-76 43 -183 43q-243 0 -300 -258l-21 -94q-11 -51 -11 -94q0 -164 187 -164h47q50 0 113 22l42 197h-151l15 78h243l-71 -332q-35 -15 -98 -29t-109 -14h-43zM464 828
q-121 0 -121 141h47q0 -78 86 -78q45 0 84.5 21t47.5 57h47q-14 -61 -63.5 -101t-127.5 -40z" />
    <glyph glyph-name="gbreve" unicode="&#x11f;" horiz-adv-x="475" 
d="M4 -188l20 75h90q110 0 165 40t74 128l8 41q-7 -5 -37 -21q-86 -44 -154 -44q-60 0 -99 33t-39 104q0 22 8 62l12 55q28 131 107 196.5t201 65.5h183l-101 -473q-32 -149 -109.5 -205.5t-241.5 -56.5h-87zM188 109q73 0 190 66l63 294h-100q-87 0 -135.5 -47t-67.5 -137
l-12 -55q-8 -40 -8 -50q0 -40 16 -55.5t54 -15.5zM346 625q-121 0 -121 141h47q0 -78 86 -78q45 0 84.5 21t47.5 57h47q-14 -61 -63.5 -101t-127.5 -40z" />
    <glyph glyph-name="Gdotaccent" unicode="&#x120;" horiz-adv-x="680" 
d="M319 -8q-268 0 -268 242q0 47 11 94l19 94q70 336 410 336q118 0 193 -43l-17 -78h-8q-76 43 -183 43q-243 0 -300 -258l-21 -94q-11 -51 -11 -94q0 -164 187 -164h47q50 0 113 22l42 197h-151l15 78h243l-71 -332q-35 -15 -98 -29t-109 -14h-43zM432 828l19 94h86
l-19 -94h-86z" />
    <glyph glyph-name="gdotaccent" unicode="&#x121;" horiz-adv-x="582" 
d="M4 -188l20 75h90q110 0 165 40t74 128l8 41q-7 -5 -37 -21q-86 -44 -154 -44q-60 0 -99 33t-39 104q0 22 8 62l12 55q28 131 107 196.5t201 65.5h183l-101 -473q-32 -149 -109.5 -205.5t-241.5 -56.5h-87zM188 109q73 0 190 66l63 294h-100q-87 0 -135.5 -47t-67.5 -137
l-12 -55q-8 -40 -8 -50q0 -40 16 -55.5t54 -15.5zM310 625l19 94h86l-19 -94h-86z" />
    <glyph glyph-name="Gcommaaccent" unicode="&#x122;" horiz-adv-x="680" 
d="M319 -8q-268 0 -268 242q0 47 11 94l19 94q70 336 410 336q118 0 193 -43l-17 -78h-8q-76 43 -183 43q-243 0 -300 -258l-21 -94q-11 -51 -11 -94q0 -164 187 -164h47q50 0 113 22l42 197h-151l15 78h243l-71 -332q-35 -15 -98 -29t-109 -14h-43zM207 -195l79 156h85
l-11 -47l-94 -109h-59z" />
    <glyph glyph-name="gcommaaccent" unicode="&#x123;" horiz-adv-x="582" 
d="M4 -188l20 75h90q110 0 165 40t74 128l8 41q-7 -5 -37 -21q-86 -44 -154 -44q-60 0 -99 33t-39 104q0 22 8 62l12 55q28 131 107 196.5t201 65.5h183l-101 -473q-32 -149 -109.5 -205.5t-241.5 -56.5h-87zM188 109q73 0 190 66l63 294h-100q-87 0 -135.5 -47t-67.5 -137
l-12 -55q-8 -40 -8 -50q0 -40 16 -55.5t54 -15.5zM463 750l-78 -156h-86l12 47l94 109h58z" />
    <glyph glyph-name="Hcircumflex" unicode="&#x124;" horiz-adv-x="738" 
d="M27 0l160 750h94l-66 -312h367l66 312h94l-160 -750h-94l76 359h-367l-76 -359h-94zM301 828v12l156 144h94l93 -144v-12h-62l-82 113l-137 -113h-62z" />
    <glyph glyph-name="hcircumflex" unicode="&#x125;" horiz-adv-x="613" 
d="M371 0l78 367q8 40 8 51q0 32 -13.5 45.5t-45.5 13.5q-23 0 -56.5 -17t-50 -29t-53.5 -40l-50 -38l-75 -353h-86l160 750h86l-65 -305l50 39q50 39 86.5 55t77.5 16q57 0 89 -29.5t32 -84.5q0 -38 -8 -74l-78 -367h-86zM69 828v12l156 144h94l93 -144v-12h-62l-82 113
l-137 -113h-62z" />
    <glyph glyph-name="Hbar" unicode="&#x126;" horiz-adv-x="738" 
d="M777 562h-75l-120 -562h-94l76 359h-367l-76 -359h-94l120 562h-81l17 79h81l23 109h94l-23 -109h367l23 109h94l-23 -109h74zM241 562l-26 -124h367l26 124h-367z" />
    <glyph glyph-name="hbar" unicode="&#x127;" horiz-adv-x="613" 
d="M371 0l78 367q8 40 8 51q0 32 -13.5 45.5t-45.5 13.5q-23 0 -56.5 -17t-50 -29t-53.5 -40l-50 -38l-75 -353h-86l132 617h-61l15 70h61l13 63h86l-13 -63h127l-16 -70h-126l-37 -172l50 39q50 39 86.5 55t77.5 16q57 0 89 -29.5t32 -84.5q0 -38 -8 -74l-78 -367h-86z" />
    <glyph glyph-name="Itilde" unicode="&#x128;" horiz-adv-x="281" 
d="M27 0l160 750h94l-160 -750h-94zM78 828l8 63q16 28 46.5 53t66.5 25q30 0 54.5 -19.5t44 -39t38.5 -19.5q50 0 102 78h7l-7 -63q-17 -28 -47.5 -53t-66.5 -25q-28 0 -52 19.5t-44.5 39t-39.5 19.5q-49 0 -102 -78h-8z" />
    <glyph glyph-name="itilde" unicode="&#x129;" horiz-adv-x="273" 
d="M31 0l102 469h-94l16 78h179l-117 -547h-86zM-4 625l8 63q16 28 46.5 53t66.5 25q30 0 54.5 -19.5t44 -39t38.5 -19.5q50 0 102 78h7l-7 -63q-17 -28 -47.5 -53t-66.5 -25q-28 0 -52 19.5t-44.5 39t-39.5 19.5q-49 0 -102 -78h-8z" />
    <glyph glyph-name="Imacron" unicode="&#x12a;" horiz-adv-x="281" 
d="M27 0l160 750h94l-160 -750h-94zM126 828l13 63h250l-13 -63h-250z" />
    <glyph glyph-name="imacron" unicode="&#x12b;" horiz-adv-x="273" 
d="M31 0l102 469h-94l16 78h179l-117 -547h-86zM32 625l13 63h250l-13 -63h-250z" />
    <glyph glyph-name="Ibreve" unicode="&#x12c;" horiz-adv-x="281" 
d="M27 0l160 750h94l-160 -750h-94zM247 828q-121 0 -121 141h47q0 -78 86 -78q45 0 84.5 21t47.5 57h47q-14 -61 -63.5 -101t-127.5 -40z" />
    <glyph glyph-name="ibreve" unicode="&#x12d;" horiz-adv-x="166" 
d="M31 0l102 469h-94l16 78h179l-117 -547h-86zM169 625q-121 0 -121 141h47q0 -78 86 -78q45 0 84.5 21t47.5 57h47q-14 -61 -63.5 -101t-127.5 -40z" />
    <glyph glyph-name="Iogonek" unicode="&#x12e;" horiz-adv-x="281" 
d="M27 0l160 750h94l-160 -750h-94zM195 -188h-105q-47 0 -76.5 20.5t-29.5 62.5q0 24 14 47t37 35h62v-12q-50 -26 -50 -67q0 -22 15 -34t39 -12h94v-40z" />
    <glyph glyph-name="iogonek" unicode="&#x12f;" horiz-adv-x="273" 
d="M172 656l19 94h86l-19 -94h-86zM31 0l102 469h-94l16 78h179l-117 -547h-86zM199 -188h-105q-47 0 -76.5 20.5t-29.5 62.5q0 24 14 47t37 35h62v-12q-50 -26 -50 -67q0 -22 15 -34t39 -12h94v-40z" />
    <glyph glyph-name="Idotaccent" unicode="&#x130;" horiz-adv-x="281" 
d="M27 0l160 750h94l-160 -750h-94zM209 828l19 94h86l-19 -94h-86z" />
    <glyph glyph-name="dotlessi" unicode="&#x131;" horiz-adv-x="273" 
d="M31 0l102 469h-94l16 78h179l-117 -547h-86z" />
    <glyph glyph-name="IJ" unicode="&#x132;" horiz-adv-x="687" 
d="M27 0l160 750h94l-160 -750h-94zM219 0l15 78h86q62 0 104 36.5t56 104.5l97 453h-187l16 78h281l-113 -531q-46 -219 -265 -219h-90z" />
    <glyph glyph-name="ij" unicode="&#x133;" horiz-adv-x="556" 
d="M172 656l19 94h86l-19 -94h-86zM31 0l102 469h-93l16 78h178l-117 -547h-86zM453 656l20 94h87l-21 -94h-86zM102 -188l16 79h39q71 0 111 39t56 117l90 422h-94l16 78h180l-104 -484q-28 -131 -95.5 -191t-191.5 -60h-23z" />
    <glyph glyph-name="Jcircumflex" unicode="&#x134;" horiz-adv-x="449" 
d="M-20 0l16 78h86q62 0 104 36.5t56 104.5l97 453h-188l17 78h281l-113 -531q-46 -219 -266 -219h-90zM155 828v12l156 144h94l93 -144v-12h-62l-82 113l-137 -113h-62z" />
    <glyph glyph-name="jcircumflex" unicode="&#x135;" horiz-adv-x="286" 
d="M-168 -188l17 79h39q70 0 110 38.5t57 117.5l90 422h-94l15 78h180l-103 -484q-29 -131 -96.5 -191t-191.5 -60h-23zM16 625v12l156 144h94l93 -144v-12h-62l-82 113l-137 -113h-62z" />
    <glyph glyph-name="Kcommaaccent" unicode="&#x136;" horiz-adv-x="637" 
d="M27 0l160 750h94l-68 -320h45l347 320h102v-8l-383 -347l242 -387v-8h-101l-219 352h-50l-75 -352h-94zM146 -195l79 156h85l-11 -47l-94 -109h-59z" />
    <glyph glyph-name="kcommaaccent" unicode="&#x137;" horiz-adv-x="531" 
d="M27 0l160 750h86l-88 -414h53l223 211h98v-8l-258 -238l152 -293v-8h-94l-136 258h-55l-55 -258h-86zM95 -195l79 156h85l-11 -47l-94 -109h-59z" />
    <glyph glyph-name="Lacute" unicode="&#x139;" horiz-adv-x="536" 
d="M224 0q-164 0 -164 137q0 31 7 66l118 547h93l-117 -547q-8 -40 -8 -58q0 -37 20 -52t62 -15h235l-16 -78h-230zM212 828v16l141 140h101v-15l-180 -141h-62z" />
    <glyph glyph-name="lacute" unicode="&#x13a;" horiz-adv-x="270" 
d="M27 0l146 672h-95l16 78h179l-160 -750h-86zM133 828v16l141 140h101v-15l-180 -141h-62z" />
    <glyph glyph-name="Lcommaaccent" unicode="&#x13b;" horiz-adv-x="536" 
d="M224 0q-164 0 -164 137q0 31 7 66l118 547h93l-117 -547q-8 -40 -8 -58q0 -37 20 -52t62 -15h235l-16 -78h-230zM129 -195l79 156h85l-11 -47l-94 -109h-59z" />
    <glyph glyph-name="lcommaaccent" unicode="&#x13c;" horiz-adv-x="270" 
d="M27 0l146 672h-95l16 78h179l-160 -750h-86zM-58 -195l79 156h85l-11 -47l-94 -109h-59z" />
    <glyph glyph-name="Lcaron" unicode="&#x13d;" horiz-adv-x="536" 
d="M224 0q-164 0 -164 137q0 31 7 66l118 547h93l-117 -547q-8 -40 -8 -58q0 -37 20 -52t62 -15h235l-16 -78h-230zM353 594l74 156h86l-8 -47l-94 -109h-58z" />
    <glyph glyph-name="lcaron" unicode="&#x13e;" horiz-adv-x="270" 
d="M27 0l146 672h-95l16 78h179l-160 -750h-86zM289 594l74 156h86l-8 -47l-93 -109h-59z" />
    <glyph glyph-name="Ldot" unicode="&#x13f;" horiz-adv-x="536" 
d="M224 0q-164 0 -164 137q0 31 7 66l118 547h93l-117 -547q-8 -40 -8 -58q0 -37 20 -52t62 -15h235l-16 -78h-230zM306 375l19 94h86l-19 -94h-86z" />
    <glyph glyph-name="ldot" unicode="&#x140;" horiz-adv-x="277" 
d="M27 0l145 672h-94l16 78h179l-160 -750h-86zM242 375l20 94h86l-20 -94h-86z" />
    <glyph glyph-name="Lslash" unicode="&#x141;" horiz-adv-x="536" 
d="M396 480l-197 -96l-38 -181q-8 -40 -8 -58q0 -37 20 -52t62 -15h235l-16 -78h-230q-164 0 -164 137q0 31 7 66l28 128l-110 -54h-4l12 67l116 57l76 349h93l-63 -297l188 94h8z" />
    <glyph glyph-name="lslash" unicode="&#x142;" horiz-adv-x="266" 
d="M289 488l-89 -61l-91 -427h-86l77 356l-80 -55h-8l15 66l88 62l53 243h-94l16 78h180l-54 -252l81 57h8z" />
    <glyph glyph-name="Nacute" unicode="&#x143;" horiz-adv-x="750" 
d="M27 0l160 750h67l281 -566l121 566h94l-160 -750h-67l-281 566l-121 -566h-94zM379 828v16l141 140h101v-15l-180 -141h-62z" />
    <glyph glyph-name="nacute" unicode="&#x144;" horiz-adv-x="613" 
d="M27 0l118 547h85l-21 -102l49 39q50 39 86.5 55t77.5 16q57 0 89 -29.5t32 -84.5q0 -38 -8 -74l-78 -367h-86l78 367q8 40 8 51q0 32 -13.5 45.5t-45.5 13.5q-23 0 -56.5 -17t-50 -29t-53.5 -40l-50 -38l-75 -353h-86zM272 625v16l141 140h101v-15l-180 -141h-62z" />
    <glyph glyph-name="Ncommaaccent" unicode="&#x145;" horiz-adv-x="750" 
d="M27 0l160 750h67l281 -566l121 566h94l-160 -750h-67l-281 566l-121 -566h-94zM191 -195l79 156h85l-11 -47l-94 -109h-59z" />
    <glyph glyph-name="ncommaaccent" unicode="&#x146;" horiz-adv-x="613" 
d="M27 0l118 547h85l-21 -102l49 39q50 39 86.5 55t77.5 16q57 0 89 -29.5t32 -84.5q0 -38 -8 -74l-78 -367h-86l78 367q8 40 8 51q0 32 -13.5 45.5t-45.5 13.5q-23 0 -56.5 -17t-50 -29t-53.5 -40l-50 -38l-75 -353h-86zM119 -195l79 156h85l-11 -47l-94 -109h-59z" />
    <glyph glyph-name="Ncaron" unicode="&#x147;" horiz-adv-x="750" 
d="M27 0l160 750h67l281 -566l121 566h94l-160 -750h-67l-281 566l-121 -566h-94zM429 828l-93 145v11h62l82 -113l137 113h62v-11l-156 -145h-94z" />
    <glyph glyph-name="ncaron" unicode="&#x148;" horiz-adv-x="613" 
d="M27 0l118 547h85l-21 -102l49 39q50 39 86.5 55t77.5 16q57 0 89 -29.5t32 -84.5q0 -38 -8 -74l-78 -367h-86l78 367q8 40 8 51q0 32 -13.5 45.5t-45.5 13.5q-23 0 -56.5 -17t-50 -29t-53.5 -40l-50 -38l-75 -353h-86zM318 625l-93 145v11h62l82 -113l137 113h62v-11
l-156 -145h-94z" />
    <glyph glyph-name="napostrophe" unicode="&#x149;" horiz-adv-x="613" 
d="M27 0l118 547h85l-21 -102l49 39q50 39 86.5 55t77.5 16q57 0 89 -29.5t32 -84.5q0 -38 -8 -74l-78 -367h-86l78 367q8 40 8 51q0 32 -13.5 45.5t-45.5 13.5q-23 0 -56.5 -17t-50 -29t-53.5 -40l-50 -38l-75 -353h-86zM88 594l78 156h86l-11 -47l-94 -109h-59z" />
    <glyph glyph-name="Eng" unicode="&#x14a;" horiz-adv-x="750" 
d="M234 -215l16 78h86q62 0 104 36.5t56 104.5l8 35l-262 527l-121 -566h-94l160 750h67l280 -565l122 565h94l-161 -750q-45 -215 -265 -215h-90z" />
    <glyph glyph-name="eng" unicode="&#x14b;" horiz-adv-x="613" 
d="M160 -188l17 79h39q70 0 110 38.5t57 117.5l66 320q8 40 8 51q0 32 -13.5 45.5t-45.5 13.5q-23 0 -56.5 -17t-50 -29t-53.5 -40l-50 -38l-75 -353h-86l118 547h85l-21 -102l49 39q50 39 86.5 55t77.5 16q57 0 89 -29.5t32 -84.5q0 -38 -8 -74l-64 -304
q-28 -131 -95.5 -191t-191.5 -60h-24z" />
    <glyph glyph-name="Omacron" unicode="&#x14c;" horiz-adv-x="734" 
d="M312 -8q-130 0 -195.5 63.5t-65.5 182.5q0 55 11 110l16 74q36 169 126.5 252.5t244.5 83.5q130 0 196 -63.5t66 -182.5q0 -56 -12 -110l-15 -74q-36 -171 -126 -253.5t-246 -82.5zM324 70q108 0 172.5 60t93.5 198l15 74q12 54 12 110q0 89 -44.5 128.5t-135.5 39.5
q-109 0 -171 -59.5t-93 -198.5l-17 -74q-11 -48 -11 -110q0 -89 44.5 -128.5t134.5 -39.5zM351 828l13 63h250l-13 -63h-250z" />
    <glyph glyph-name="omacron" unicode="&#x14d;" 
d="M227 -8q-87 0 -139.5 49t-52.5 135q0 102 37.5 188t110 138.5t165.5 52.5q92 0 141.5 -46t49.5 -138q0 -98 -35.5 -183t-108.5 -140.5t-168 -55.5zM242 66q60 0 109.5 44t75.5 110t26 135q0 67 -28 96t-93 29q-92 0 -151.5 -88.5t-59.5 -200.5q0 -64 29.5 -94.5
t91.5 -30.5zM238 625l13 63h250l-13 -63h-250z" />
    <glyph glyph-name="Obreve" unicode="&#x14e;" horiz-adv-x="734" 
d="M312 -8q-130 0 -195.5 63.5t-65.5 182.5q0 55 11 110l16 74q36 169 126.5 252.5t244.5 83.5q130 0 196 -63.5t66 -182.5q0 -56 -12 -110l-15 -74q-36 -171 -126 -253.5t-246 -82.5zM324 70q108 0 172.5 60t93.5 198l15 74q12 54 12 110q0 89 -44.5 128.5t-135.5 39.5
q-109 0 -171 -59.5t-93 -198.5l-17 -74q-11 -48 -11 -110q0 -89 44.5 -128.5t134.5 -39.5zM470 828q-121 0 -121 141h47q0 -78 86 -78q45 0 84.5 21t47.5 57h47q-14 -61 -63.5 -101t-127.5 -40z" />
    <glyph glyph-name="obreve" unicode="&#x14f;" 
d="M227 -8q-87 0 -139.5 49t-52.5 135q0 102 37.5 188t110 138.5t165.5 52.5q92 0 141.5 -46t49.5 -138q0 -98 -35.5 -183t-108.5 -140.5t-168 -55.5zM242 66q60 0 109.5 44t75.5 110t26 135q0 67 -28 96t-93 29q-92 0 -151.5 -88.5t-59.5 -200.5q0 -64 29.5 -94.5
t91.5 -30.5zM361 625q-121 0 -121 141h47q0 -78 86 -78q45 0 84.5 21t47.5 57h47q-14 -61 -63.5 -101t-127.5 -40z" />
    <glyph glyph-name="Ohungarumlaut" unicode="&#x150;" horiz-adv-x="734" 
d="M312 -8q-130 0 -195.5 63.5t-65.5 182.5q0 55 11 110l16 74q36 169 126.5 252.5t244.5 83.5q130 0 196 -63.5t66 -182.5q0 -56 -12 -110l-15 -74q-36 -171 -126 -253.5t-246 -82.5zM324 70q108 0 172.5 60t93.5 198l15 74q12 54 12 110q0 89 -44.5 128.5t-135.5 39.5
q-109 0 -171 -59.5t-93 -198.5l-17 -74q-11 -48 -11 -110q0 -89 44.5 -128.5t134.5 -39.5zM496 828v16l140 140h102v-15l-180 -141h-62zM281 828v16l140 140h102v-15l-180 -141h-62z" />
    <glyph glyph-name="ohungarumlaut" unicode="&#x151;" 
d="M227 -8q-87 0 -139.5 49t-52.5 135q0 102 37.5 188t110 138.5t165.5 52.5q92 0 141.5 -46t49.5 -138q0 -98 -35.5 -183t-108.5 -140.5t-168 -55.5zM242 66q60 0 109.5 44t75.5 110t26 135q0 67 -28 96t-93 29q-92 0 -151.5 -88.5t-59.5 -200.5q0 -64 29.5 -94.5
t91.5 -30.5zM383 625v16l140 140h102v-15l-180 -141h-62zM168 625v16l140 140h102v-15l-180 -141h-62z" />
    <glyph glyph-name="OE" unicode="&#x152;" horiz-adv-x="962" 
d="M312 0q-261 0 -261 238q0 55 11 110l16 74q35 168 125.5 248t245.5 80h543l-15 -78h-314l-50 -234h294l-15 -79h-296l-60 -281h336l-16 -78h-544zM145 238q0 -88 44 -124t135 -36h118l127 594h-132q-110 0 -171.5 -56t-92.5 -194l-17 -74q-11 -48 -11 -110z" />
    <glyph glyph-name="oe" unicode="&#x153;" horiz-adv-x="918" 
d="M227 -8q-87 0 -139.5 49t-52.5 135q0 102 37.5 188t110 138.5t165.5 52.5q130 0 173 -89q74 89 209 89q71 0 116 -34t45 -99q0 -89 -61 -130.5t-162 -41.5h-145l-3 -20q-12 -48 -12 -74q0 -50 28.5 -70t84.5 -20q83 0 164 39h8l-12 -74q-86 -39 -176 -39q-138 0 -172 88
q-85 -88 -206 -88zM242 66q60 0 109.5 44t75.5 110t26 135q0 67 -28 96t-93 29q-92 0 -151.5 -88.5t-59.5 -200.5q0 -64 29.5 -94.5t91.5 -30.5zM539 320l-1 -4h138q65 0 97.5 26t32.5 72q0 66 -91 66q-73 0 -115 -36t-61 -124z" />
    <glyph glyph-name="Racute" unicode="&#x154;" horiz-adv-x="652" 
d="M27 0l160 750h231q96 0 145.5 -46.5t49.5 -133.5q0 -92 -50 -160t-137 -101q39 -49 71.5 -139t41.5 -170h-94q-12 85 -41.5 163t-71.5 122h-150l-61 -285h-94zM395 672h-130l-67 -309h126q82 0 139 57.5t57 149.5q0 102 -125 102zM315 828v16l141 140h101v-15l-180 -141
h-62z" />
    <glyph glyph-name="racute" unicode="&#x155;" horiz-adv-x="398" 
d="M27 0l118 547h85l-25 -119l10 10q49 54 90.5 81.5t91.5 27.5h33l-20 -94h-35q-65 0 -111 -39l-76 -61l-75 -353h-86zM177 625v16l141 140h101v-15l-180 -141h-62z" />
    <glyph glyph-name="Rcommaaccent" unicode="&#x156;" horiz-adv-x="652" 
d="M27 0l160 750h231q96 0 145.5 -46.5t49.5 -133.5q0 -92 -50 -160t-137 -101q39 -49 71.5 -139t41.5 -170h-94q-12 85 -41.5 163t-71.5 122h-150l-61 -285h-94zM395 672h-130l-67 -309h126q82 0 139 57.5t57 149.5q0 102 -125 102zM146 -195l79 156h85l-11 -47l-94 -109
h-59z" />
    <glyph glyph-name="rcommaaccent" unicode="&#x157;" horiz-adv-x="398" 
d="M27 0l118 547h85l-25 -119l10 10q49 54 90.5 81.5t91.5 27.5h33l-20 -94h-35q-65 0 -111 -39l-76 -61l-75 -353h-86zM-59 -195l79 156h85l-11 -47l-94 -109h-59z" />
    <glyph glyph-name="Rcaron" unicode="&#x158;" horiz-adv-x="652" 
d="M27 0l160 750h231q96 0 145.5 -46.5t49.5 -133.5q0 -92 -50 -160t-137 -101q39 -49 71.5 -139t41.5 -170h-94q-12 85 -41.5 163t-71.5 122h-150l-61 -285h-94zM395 672h-130l-67 -309h126q82 0 139 57.5t57 149.5q0 102 -125 102zM357 828l-93 145v11h62l82 -113l137 113
h62v-11l-156 -145h-94z" />
    <glyph glyph-name="rcaron" unicode="&#x159;" horiz-adv-x="398" 
d="M27 0l118 547h85l-25 -119l10 10q49 54 90.5 81.5t91.5 27.5h33l-20 -94h-35q-65 0 -111 -39l-76 -61l-75 -353h-86zM251 625l-93 145v11h62l82 -113l137 113h62v-11l-156 -145h-94z" />
    <glyph glyph-name="Sacute" unicode="&#x15a;" horiz-adv-x="586" 
d="M219 -8q-46 0 -106 12t-90 27l17 82h7q31 -15 88.5 -29t98.5 -14h24q73 0 116.5 39t43.5 106q0 42 -27.5 68.5t-78.5 48.5l-78 35q-132 62 -132 180q0 96 76 153.5t197 57.5h20q42 0 93 -11t82 -28l-15 -78h-8q-27 15 -73.5 27t-82.5 12h-24q-80 0 -126 -34.5t-46 -98.5
q0 -38 22 -60t64 -42l78 -35q35 -15 57 -28t46.5 -35.5t37 -55.5t12.5 -76q0 -98 -69.5 -160.5t-196.5 -62.5h-27zM297 828v16l141 140h101v-15l-180 -141h-62z" />
    <glyph glyph-name="sacute" unicode="&#x15b;" horiz-adv-x="492" 
d="M172 -8q-98 0 -160 20l15 74h7q75 -20 150 -20q148 0 148 94q0 7 -1.5 13t-3 11t-5.5 9.5t-6 7.5t-8 6.5t-8 5.5t-9 4.5t-8.5 3.5t-8.5 3l-8 3l-82 27q-26 8 -42.5 16t-35 23.5t-27.5 39.5t-9 58q0 79 68.5 121.5t162.5 42.5q78 0 152 -16l-16 -74h-7q-73 15 -137 15
q-58 0 -97 -20t-39 -65q0 -27 14 -39.5t44 -23.5l82 -27q57 -19 89 -49.5t32 -91.5q0 -87 -71 -129.5t-175 -42.5zM229 625v16l141 140h101v-15l-180 -141h-62z" />
    <glyph glyph-name="Scircumflex" unicode="&#x15c;" horiz-adv-x="586" 
d="M219 -8q-46 0 -106 12t-90 27l17 82h7q31 -15 88.5 -29t98.5 -14h24q73 0 116.5 39t43.5 106q0 42 -27.5 68.5t-78.5 48.5l-78 35q-132 62 -132 180q0 96 76 153.5t197 57.5h20q42 0 93 -11t82 -28l-15 -78h-8q-27 15 -73.5 27t-82.5 12h-24q-80 0 -126 -34.5t-46 -98.5
q0 -38 22 -60t64 -42l78 -35q35 -15 57 -28t46.5 -35.5t37 -55.5t12.5 -76q0 -98 -69.5 -160.5t-196.5 -62.5h-27zM223 828v12l156 144h94l93 -144v-12h-62l-82 113l-137 -113h-62z" />
    <glyph glyph-name="scircumflex" unicode="&#x15d;" horiz-adv-x="492" 
d="M172 -8q-98 0 -160 20l15 74h7q75 -20 150 -20q148 0 148 94q0 7 -1.5 13t-3 11t-5.5 9.5t-6 7.5t-8 6.5t-8 5.5t-9 4.5t-8.5 3.5t-8.5 3l-8 3l-82 27q-26 8 -42.5 16t-35 23.5t-27.5 39.5t-9 58q0 79 68.5 121.5t162.5 42.5q78 0 152 -16l-16 -74h-7q-73 15 -137 15
q-58 0 -97 -20t-39 -65q0 -27 14 -39.5t44 -23.5l82 -27q57 -19 89 -49.5t32 -91.5q0 -87 -71 -129.5t-175 -42.5zM130 625v12l156 144h94l93 -144v-12h-62l-82 113l-137 -113h-62z" />
    <glyph glyph-name="Scedilla" unicode="&#x15e;" horiz-adv-x="586" 
d="M219 -8q-46 0 -106 12t-90 27l17 82h7q31 -15 88.5 -29t98.5 -14h24q73 0 116.5 39t43.5 106q0 42 -27.5 68.5t-78.5 48.5l-78 35q-132 62 -132 180q0 96 76 153.5t197 57.5h20q42 0 93 -11t82 -28l-15 -78h-8q-27 15 -73.5 27t-82.5 12h-24q-80 0 -126 -34.5t-46 -98.5
q0 -38 22 -60t64 -42l78 -35q35 -15 57 -28t46.5 -35.5t37 -55.5t12.5 -76q0 -98 -69.5 -160.5t-196.5 -62.5h-27zM105 -188v40h94q24 0 39.5 12t15.5 34q0 40 -51 67v12h62q23 -12 37 -35t14 -47q0 -42 -29 -62.5t-76 -20.5h-106z" />
    <glyph glyph-name="Scedilla" unicode="&#xf6c1;" horiz-adv-x="586" 
d="M219 -8q-46 0 -106 12t-90 27l17 82h7q31 -15 88.5 -29t98.5 -14h24q73 0 116.5 39t43.5 106q0 42 -27.5 68.5t-78.5 48.5l-78 35q-132 62 -132 180q0 96 76 153.5t197 57.5h20q42 0 93 -11t82 -28l-15 -78h-8q-27 15 -73.5 27t-82.5 12h-24q-80 0 -126 -34.5t-46 -98.5
q0 -38 22 -60t64 -42l78 -35q35 -15 57 -28t46.5 -35.5t37 -55.5t12.5 -76q0 -98 -69.5 -160.5t-196.5 -62.5h-27zM105 -188v40h94q24 0 39.5 12t15.5 34q0 40 -51 67v12h62q23 -12 37 -35t14 -47q0 -42 -29 -62.5t-76 -20.5h-106z" />
    <glyph glyph-name="scedilla" unicode="&#x15f;" horiz-adv-x="492" 
d="M172 -8q-98 0 -160 20l15 74h7q75 -20 150 -20q148 0 148 94q0 7 -1.5 13t-3 11t-5.5 9.5t-6 7.5t-8 6.5t-8 5.5t-9 4.5t-8.5 3.5t-8.5 3l-8 3l-82 27q-26 8 -42.5 16t-35 23.5t-27.5 39.5t-9 58q0 79 68.5 121.5t162.5 42.5q78 0 152 -16l-16 -74h-7q-73 15 -137 15
q-58 0 -97 -20t-39 -65q0 -27 14 -39.5t44 -23.5l82 -27q57 -19 89 -49.5t32 -91.5q0 -87 -71 -129.5t-175 -42.5zM71 -188v40h94q24 0 39.5 12t15.5 34q0 40 -51 67v12h62q23 -12 37 -35t14 -47q0 -42 -29 -62.5t-76 -20.5h-106z" />
    <glyph glyph-name="scedilla" unicode="&#xf6c2;" horiz-adv-x="492" 
d="M172 -8q-98 0 -160 20l15 74h7q75 -20 150 -20q148 0 148 94q0 7 -1.5 13t-3 11t-5.5 9.5t-6 7.5t-8 6.5t-8 5.5t-9 4.5t-8.5 3.5t-8.5 3l-8 3l-82 27q-26 8 -42.5 16t-35 23.5t-27.5 39.5t-9 58q0 79 68.5 121.5t162.5 42.5q78 0 152 -16l-16 -74h-7q-73 15 -137 15
q-58 0 -97 -20t-39 -65q0 -27 14 -39.5t44 -23.5l82 -27q57 -19 89 -49.5t32 -91.5q0 -87 -71 -129.5t-175 -42.5zM71 -188v40h94q24 0 39.5 12t15.5 34q0 40 -51 67v12h62q23 -12 37 -35t14 -47q0 -42 -29 -62.5t-76 -20.5h-106z" />
    <glyph glyph-name="Scaron" unicode="&#x160;" horiz-adv-x="586" 
d="M219 -8q-46 0 -106 12t-90 27l17 82h7q31 -15 88.5 -29t98.5 -14h24q73 0 116.5 39t43.5 106q0 42 -27.5 68.5t-78.5 48.5l-78 35q-132 62 -132 180q0 96 76 153.5t197 57.5h20q42 0 93 -11t82 -28l-15 -78h-8q-27 15 -73.5 27t-82.5 12h-24q-80 0 -126 -34.5t-46 -98.5
q0 -38 22 -60t64 -42l78 -35q35 -15 57 -28t46.5 -35.5t37 -55.5t12.5 -76q0 -98 -69.5 -160.5t-196.5 -62.5h-27zM328 828l-93 145v11h62l82 -113l137 113h62v-11l-156 -145h-94z" />
    <glyph glyph-name="scaron" unicode="&#x161;" horiz-adv-x="492" 
d="M172 -8q-98 0 -160 20l15 74h7q75 -20 150 -20q148 0 148 94q0 7 -1.5 13t-3 11t-5.5 9.5t-6 7.5t-8 6.5t-8 5.5t-9 4.5t-8.5 3.5t-8.5 3l-8 3l-82 27q-26 8 -42.5 16t-35 23.5t-27.5 39.5t-9 58q0 79 68.5 121.5t162.5 42.5q78 0 152 -16l-16 -74h-7q-73 15 -137 15
q-58 0 -97 -20t-39 -65q0 -27 14 -39.5t44 -23.5l82 -27q57 -19 89 -49.5t32 -91.5q0 -87 -71 -129.5t-175 -42.5zM248 625l-93 145v11h62l82 -113l137 113h62v-11l-156 -145h-94z" />
    <glyph glyph-name="Tcommaaccent" unicode="&#x162;" 
d="M184 0l142 672h-236l16 78h562l-16 -78h-232l-143 -672h-93zM99 -188v40h94q24 0 39.5 12t15.5 34q0 40 -51 67v12h62q23 -12 37 -35t14 -47q0 -42 -29 -62.5t-76 -20.5h-106z" />
    <glyph glyph-name="tcommaaccent" unicode="&#x163;" horiz-adv-x="402" 
d="M62 469l16 78h94l27 125h86l-27 -125h144l-15 -78h-146l-56 -266q-9 -43 -9 -55q0 -42 21 -58t76 -16h55l-16 -74h-71q-72 0 -111.5 36t-39.5 105q0 27 8 62l57 266h-93zM106 -188v40h94q24 0 39.5 12t15.5 34q0 40 -51 67v12h62q23 -12 37 -35t14 -47q0 -42 -29 -62.5
t-76 -20.5h-106z" />
    <glyph glyph-name="Tcaron" unicode="&#x164;" 
d="M184 0l142 672h-236l16 78h562l-16 -78h-232l-143 -672h-93zM353 828l-93 145v11h62l82 -113l137 113h62v-11l-156 -145h-94z" />
    <glyph glyph-name="tcaron" unicode="&#x165;" horiz-adv-x="402" 
d="M62 469l16 78h94l27 125h86l-27 -125h144l-15 -78h-146l-56 -266q-9 -43 -9 -55q0 -42 21 -58t76 -16h55l-16 -74h-71q-72 0 -111.5 36t-39.5 105q0 27 8 62l57 266h-93zM324 594l74 156h86l-7 -47l-94 -109h-59z" />
    <glyph glyph-name="Tbar" unicode="&#x166;" 
d="M547 371h-192l-78 -371h-93l78 371h-176l16 82h177l47 219h-236l15 78h563l-16 -78h-232l-47 -219h189z" />
    <glyph glyph-name="tbar" unicode="&#x167;" horiz-adv-x="402" 
d="M344 258h-148l-11 -55q-9 -43 -9 -55q0 -42 21 -58t76 -16h55l-16 -74h-71q-72 0 -111.5 36t-39.5 105q0 27 8 62l11 55h-89l15 78h91l29 133h-93l16 78h94l27 125h86l-27 -125h144l-15 -78h-146l-28 -133h146z" />
    <glyph glyph-name="Utilde" unicode="&#x168;" horiz-adv-x="719" 
d="M293 -8q-104 0 -165.5 48t-61.5 144q0 39 20 129l94 437h93l-93 -437q-20 -90 -20 -114q0 -67 36 -98t113 -31q83 0 142.5 53.5t79.5 149.5l102 477h94l-102 -477q-60 -281 -332 -281zM300 828l8 63q16 28 46.5 53t66.5 25q30 0 54.5 -19.5t44 -39t38.5 -19.5
q50 0 102 78h7l-7 -63q-17 -28 -47.5 -53t-66.5 -25q-28 0 -52 19.5t-44.5 39t-39.5 19.5q-49 0 -102 -78h-8z" />
    <glyph glyph-name="utilde" unicode="&#x169;" horiz-adv-x="613" 
d="M176 -8q-56 0 -88.5 29t-32.5 84q0 37 7 75l79 367h86l-79 -367q-7 -47 -7 -51q0 -32 13 -45.5t45 -13.5q23 0 56 16.5t51.5 30t52.5 39.5l49 38l76 353h86l-117 -547h-86l22 101l-49 -38q-50 -39 -87 -55t-77 -16zM201 625l8 63q16 28 46.5 53t66.5 25q30 0 54.5 -19.5
t44 -39t38.5 -19.5q50 0 102 78h7l-7 -63q-17 -28 -47.5 -53t-66.5 -25q-28 0 -52 19.5t-44.5 39t-39.5 19.5q-49 0 -102 -78h-8z" />
    <glyph glyph-name="Umacron" unicode="&#x16a;" horiz-adv-x="719" 
d="M293 -8q-104 0 -165.5 48t-61.5 144q0 39 20 129l94 437h93l-93 -437q-20 -90 -20 -114q0 -67 36 -98t113 -31q83 0 142.5 53.5t79.5 149.5l102 477h94l-102 -477q-60 -281 -332 -281zM345 828l13 63h250l-13 -63h-250z" />
    <glyph glyph-name="umacron" unicode="&#x16b;" horiz-adv-x="613" 
d="M176 -8q-56 0 -88.5 29t-32.5 84q0 37 7 75l79 367h86l-79 -367q-7 -47 -7 -51q0 -32 13 -45.5t45 -13.5q23 0 56 16.5t51.5 30t52.5 39.5l49 38l76 353h86l-117 -547h-86l22 101l-49 -38q-50 -39 -87 -55t-77 -16zM245 625l13 63h250l-13 -63h-250z" />
    <glyph glyph-name="Ubreve" unicode="&#x16c;" horiz-adv-x="719" 
d="M293 -8q-104 0 -165.5 48t-61.5 144q0 39 20 129l94 437h93l-93 -437q-20 -90 -20 -114q0 -67 36 -98t113 -31q83 0 142.5 53.5t79.5 149.5l102 477h94l-102 -477q-60 -281 -332 -281zM464 828q-121 0 -121 141h47q0 -78 86 -78q45 0 84.5 21t47.5 57h47
q-14 -61 -63.5 -101t-127.5 -40z" />
    <glyph glyph-name="ubreve" unicode="&#x16d;" horiz-adv-x="613" 
d="M176 -8q-56 0 -88.5 29t-32.5 84q0 37 7 75l79 367h86l-79 -367q-7 -47 -7 -51q0 -32 13 -45.5t45 -13.5q23 0 56 16.5t51.5 30t52.5 39.5l49 38l76 353h86l-117 -547h-86l22 101l-49 -38q-50 -39 -87 -55t-77 -16zM369 625q-121 0 -121 141h47q0 -78 86 -78
q45 0 84.5 21t47.5 57h47q-14 -61 -63.5 -101t-127.5 -40z" />
    <glyph glyph-name="Uring" unicode="&#x16e;" horiz-adv-x="719" 
d="M293 -8q-104 0 -165.5 48t-61.5 144q0 39 20 129l94 437h93l-93 -437q-20 -90 -20 -114q0 -67 36 -98t113 -31q83 0 142.5 53.5t79.5 149.5l102 477h94l-102 -477q-60 -281 -332 -281zM467 828q-48 0 -71 21.5t-23 56.5q0 49 40 87t97 38q46 0 70 -20t24 -54
q0 -50 -40 -89.5t-97 -39.5zM471 867q38 0 62 24.5t24 53.5q0 24 -11.5 35.5t-39.5 11.5q-38 0 -62 -24.5t-24 -53.5q0 -24 11.5 -35.5t39.5 -11.5z" />
    <glyph glyph-name="uring" unicode="&#x16f;" horiz-adv-x="613" 
d="M176 -8q-56 0 -88.5 29t-32.5 84q0 37 7 75l79 367h86l-79 -367q-7 -47 -7 -51q0 -32 13 -45.5t45 -13.5q23 0 56 16.5t51.5 30t52.5 39.5l49 38l76 353h86l-117 -547h-86l22 101l-49 -38q-50 -39 -87 -55t-77 -16zM371 625q-48 0 -71 21.5t-23 56.5q0 49 40 87t97 38
q46 0 70 -20t24 -54q0 -50 -40 -89.5t-97 -39.5zM375 664q38 0 62 24.5t24 53.5q0 24 -11.5 35.5t-39.5 11.5q-38 0 -62 -24.5t-24 -53.5q0 -24 11.5 -35.5t39.5 -11.5z" />
    <glyph glyph-name="Uhungarumlaut" unicode="&#x170;" horiz-adv-x="719" 
d="M293 -8q-104 0 -165.5 48t-61.5 144q0 39 20 129l94 437h93l-93 -437q-20 -90 -20 -114q0 -67 36 -98t113 -31q83 0 142.5 53.5t79.5 149.5l102 477h94l-102 -477q-60 -281 -332 -281zM483 828v16l140 140h102v-15l-180 -141h-62zM268 828v16l140 140h102v-15l-180 -141
h-62z" />
    <glyph glyph-name="uhungarumlaut" unicode="&#x171;" horiz-adv-x="613" 
d="M176 -8q-56 0 -88.5 29t-32.5 84q0 37 7 75l79 367h86l-79 -367q-7 -47 -7 -51q0 -32 13 -45.5t45 -13.5q23 0 56 16.5t51.5 30t52.5 39.5l49 38l76 353h86l-117 -547h-86l22 101l-49 -38q-50 -39 -87 -55t-77 -16zM391 625v16l140 140h102v-15l-180 -141h-62zM176 625
v16l140 140h102v-15l-180 -141h-62z" />
    <glyph glyph-name="Uogonek" unicode="&#x172;" horiz-adv-x="719" 
d="M293 -8q-104 0 -165.5 48t-61.5 144q0 39 20 129l94 437h93l-93 -437q-20 -90 -20 -114q0 -67 36 -98t113 -31q83 0 142.5 53.5t79.5 149.5l102 477h94l-102 -477q-60 -281 -332 -281zM422 -188h-105q-47 0 -76.5 20.5t-29.5 62.5q0 24 14 47t37 35h62v-12
q-50 -26 -50 -67q0 -22 15 -34t39 -12h94v-40z" />
    <glyph glyph-name="uogonek" unicode="&#x173;" horiz-adv-x="613" 
d="M176 -8q-56 0 -88.5 29t-32.5 84q0 37 7 75l79 367h86l-79 -367q-7 -47 -7 -51q0 -32 13 -45.5t45 -13.5q23 0 56 16.5t51.5 30t52.5 39.5l49 38l76 353h86l-117 -547h-86l22 101l-49 -38q-50 -39 -87 -55t-77 -16zM535 -188h-105q-47 0 -76.5 20.5t-29.5 62.5
q0 24 14 47t37 35h62v-12q-50 -26 -50 -67q0 -22 15 -34t39 -12h94v-40z" />
    <glyph glyph-name="Wcircumflex" unicode="&#x174;" horiz-adv-x="988" 
d="M160 0q-55 215 -55 520q0 144 8 230h94q-8 -86 -8 -230q0 -263 39 -442q163 238 321 672h74q-12 -141 -12 -262q0 -229 39 -410q168 250 317 672h82v-8q-75 -228 -178.5 -431.5t-181.5 -310.5h-109q-51 228 -51 496q-61 -150 -135.5 -284t-130.5 -212h-113zM432 828v12
l156 144h94l93 -144v-12h-62l-82 113l-137 -113h-62z" />
    <glyph glyph-name="wcircumflex" unicode="&#x175;" horiz-adv-x="762" 
d="M122 0q-30 47 -45.5 118t-15.5 140q0 70 15 148l28 141h85l-27 -141q-16 -77 -16 -148q0 -133 40 -195q51 51 100.5 143.5t70.5 199.5l28 141h86l-28 -141q-15 -80 -15 -148q0 -132 39 -195q51 51 99 142.5t73 200.5l31 141h86l-31 -141q-28 -128 -95 -243t-124 -163h-94
q-19 36 -38.5 90.5t-19.5 93.5q-16 -39 -60 -94.5t-77 -89.5h-95zM272 625v12l156 144h94l93 -144v-12h-62l-82 113l-137 -113h-62z" />
    <glyph glyph-name="Ycircumflex" unicode="&#x176;" horiz-adv-x="594" 
d="M184 0l66 309l-148 433v8h89l125 -355l270 355h91v-8l-333 -429l-67 -313h-93zM223 828v12l156 144h94l93 -144v-12h-62l-82 113l-137 -113h-62z" />
    <glyph glyph-name="ycircumflex" unicode="&#x177;" horiz-adv-x="605" 
d="M26 -188l22 75h89q109 0 164.5 40t73.5 128l15 69q-6 -3 -28 -15q-94 -46 -167 -46q-129 0 -129 136q0 5 16 90l55 258h86l-55 -258q-1 -4 -5.5 -23.5t-7.5 -36.5t-3 -26q0 -37 16 -49.5t55 -12.5q66 0 142 37q28 13 41 21l74 348h86l-101 -473q-32 -149 -110 -205.5
t-242 -56.5h-87zM194 625v12l156 144h94l93 -144v-12h-62l-82 113l-137 -113h-62z" />
    <glyph glyph-name="Ydieresis" unicode="&#x178;" horiz-adv-x="594" 
d="M184 0l66 309l-148 433v8h89l125 -355l270 355h91v-8l-333 -429l-67 -313h-93zM482 828l20 94h86l-20 -94h-86zM240 828l20 94h87l-21 -94h-86z" />
    <glyph glyph-name="Zacute" unicode="&#x179;" 
d="M-20 0l8 43q123 130 277 318t227 307h-371l16 82h492l-4 -31q-70 -122 -226.5 -322.5t-265.5 -314.5h379l-16 -82h-516zM299 828v16l141 140h101v-15l-180 -141h-62z" />
    <glyph glyph-name="zacute" unicode="&#x17a;" horiz-adv-x="508" 
d="M-23 0l15 70q88 73 203.5 190.5t186.5 208.5h-292l15 78h391l-16 -70q-43 -72 -172.5 -207t-204.5 -192h303l-15 -78h-414zM209 625v16l141 140h101v-15l-180 -141h-62z" />
    <glyph glyph-name="Zdotaccent" unicode="&#x17b;" 
d="M-20 0l8 43q123 130 277 318t227 307h-371l16 82h492l-4 -31q-70 -122 -226.5 -322.5t-265.5 -314.5h379l-16 -82h-516zM328 828l19 94h86l-19 -94h-86z" />
    <glyph glyph-name="zdotaccent" unicode="&#x17c;" horiz-adv-x="508" 
d="M-23 0l15 70q88 73 203.5 190.5t186.5 208.5h-292l15 78h391l-16 -70q-43 -72 -172.5 -207t-204.5 -192h303l-15 -78h-414zM258 625l19 94h86l-19 -94h-86z" />
    <glyph glyph-name="Zcaron" unicode="&#x17d;" 
d="M-20 0l8 43q123 130 277 318t227 307h-371l16 82h492l-4 -31q-70 -122 -226.5 -322.5t-265.5 -314.5h379l-16 -82h-516zM338 828l-93 145v11h62l82 -113l137 113h62v-11l-156 -145h-94z" />
    <glyph glyph-name="zcaron" unicode="&#x17e;" horiz-adv-x="508" 
d="M-23 0l15 70q88 73 203.5 190.5t186.5 208.5h-292l15 78h391l-16 -70q-43 -72 -172.5 -207t-204.5 -192h303l-15 -78h-414zM236 625l-93 145v11h62l82 -113l137 113h62v-11l-156 -145h-94z" />
    <glyph glyph-name="longs" unicode="&#x17f;" horiz-adv-x="305" 
d="M55 469l15 78h94l4 19q19 89 75.5 136.5t143.5 47.5h66l-16 -78h-66q-93 0 -117 -106l-121 -566h-85l99 469h-92z" />
    <glyph glyph-name="florin" unicode="&#x192;" horiz-adv-x="625" 
d="M-74 -188l16 83h98q69 0 102.5 32t48.5 104l69 324h-125l17 83h125l21 93q26 116 84.5 167.5t169.5 51.5h104l-17 -82h-95q-74 0 -105 -30t-47 -107l-21 -93h188l-18 -83h-187l-69 -324q-25 -118 -88.5 -168.5t-172.5 -50.5h-98z" />
    <glyph glyph-name="Scommaaccent" unicode="&#x218;" horiz-adv-x="586" 
d="M219 -8q-46 0 -106 12t-90 27l17 82h7q31 -15 88.5 -29t98.5 -14h24q73 0 116.5 39t43.5 106q0 42 -27.5 68.5t-78.5 48.5l-78 35q-132 62 -132 180q0 96 76 153.5t197 57.5h20q42 0 93 -11t82 -28l-15 -78h-8q-27 15 -73.5 27t-82.5 12h-24q-80 0 -126 -34.5t-46 -98.5
q0 -38 22 -60t64 -42l78 -35q35 -15 57 -28t46.5 -35.5t37 -55.5t12.5 -76q0 -98 -69.5 -160.5t-196.5 -62.5h-27zM128 -195l79 156h85l-11 -47l-94 -109h-59z" />
    <glyph glyph-name="scommaaccent" unicode="&#x219;" horiz-adv-x="492" 
d="M172 -8q-98 0 -160 20l15 74h7q75 -20 150 -20q148 0 148 94q0 7 -1.5 13t-3 11t-5.5 9.5t-6 7.5t-8 6.5t-8 5.5t-9 4.5t-8.5 3.5t-8.5 3l-8 3l-82 27q-26 8 -42.5 16t-35 23.5t-27.5 39.5t-9 58q0 79 68.5 121.5t162.5 42.5q78 0 152 -16l-16 -74h-7q-73 15 -137 15
q-58 0 -97 -20t-39 -65q0 -27 14 -39.5t44 -23.5l82 -27q57 -19 89 -49.5t32 -91.5q0 -87 -71 -129.5t-175 -42.5zM75 -195l79 156h85l-11 -47l-94 -109h-59z" />
    <glyph glyph-name="uni021A" unicode="&#x21a;" 
d="M184 0l142 672h-236l16 78h562l-16 -78h-232l-143 -672h-93zM99 -195l79 156h85l-11 -47l-94 -109h-59z" />
    <glyph glyph-name="uni021B" unicode="&#x21b;" horiz-adv-x="402" 
d="M62 469l16 78h94l27 125h86l-27 -125h144l-15 -78h-146l-56 -266q-9 -43 -9 -55q0 -42 21 -58t76 -16h55l-16 -74h-71q-72 0 -111.5 36t-39.5 105q0 27 8 62l57 266h-93zM106 -195l79 156h85l-11 -47l-94 -109h-59z" />
    <glyph glyph-name="circumflex" unicode="&#x2c6;" horiz-adv-x="344" 
d="M59 625v12l156 144h94l93 -144v-12h-62l-82 113l-137 -113h-62z" />
    <glyph glyph-name="caron" unicode="&#x2c7;" horiz-adv-x="380" 
d="M196 625l-93 145v11h62l82 -113l137 113h62v-11l-156 -145h-94z" />
    <glyph glyph-name="breve" unicode="&#x2d8;" horiz-adv-x="363" 
d="M235 625q-121 0 -121 141h47q0 -78 86 -78q45 0 84.5 21t47.5 57h47q-14 -61 -63.5 -101t-127.5 -40z" />
    <glyph glyph-name="dotaccent" unicode="&#x2d9;" horiz-adv-x="239" 
d="M138 625l19 94h86l-19 -94h-86z" />
    <glyph glyph-name="ring" unicode="&#x2da;" horiz-adv-x="306" 
d="M216 625q-48 0 -71 21.5t-23 56.5q0 49 40 87t97 38q46 0 70 -20t24 -54q0 -50 -40 -89.5t-97 -39.5zM220 664q38 0 62 24.5t24 53.5q0 24 -11.5 35.5t-39.5 11.5q-38 0 -62 -24.5t-24 -53.5q0 -24 11.5 -35.5t39.5 -11.5z" />
    <glyph glyph-name="ogonek" unicode="&#x2db;" horiz-adv-x="290" 
d="M207 -188h-105q-47 0 -76.5 20.5t-29.5 62.5q0 24 14 47t37 35h62v-12q-50 -26 -50 -67q0 -22 15 -34t39 -12h94v-40z" />
    <glyph glyph-name="tilde" unicode="&#x2dc;" horiz-adv-x="368" 
d="M71 625l8 63q16 28 46.5 53t66.5 25q30 0 54.5 -19.5t44 -39t38.5 -19.5q50 0 102 78h7l-7 -63q-17 -28 -47.5 -53t-66.5 -25q-28 0 -52 19.5t-44.5 39t-39.5 19.5q-49 0 -102 -78h-8z" />
    <glyph glyph-name="hungarumlaut" unicode="&#x2dd;" horiz-adv-x="457" 
d="M305 625v16l140 140h102v-15l-180 -141h-62zM90 625v16l140 140h102v-15l-180 -141h-62z" />
    <glyph glyph-name="Delta" unicode="&#x394;" horiz-adv-x="680" 
d="M-47 0l5 23l428 727h101l119 -727l-4 -23h-649zM91 78h406l-80 578z" />
    <glyph glyph-name="Delta" unicode="&#x2206;" horiz-adv-x="680" 
d="M-47 0l5 23l428 727h101l119 -727l-4 -23h-649zM91 78h406l-80 578z" />
    <glyph glyph-name="Omega" unicode="&#x3a9;" horiz-adv-x="734" 
d="M-12 0l16 78h109q-27 27 -44.5 77.5t-17.5 102.5q0 219 107.5 359.5t290.5 140.5q127 0 192.5 -69t65.5 -197q0 -271 -187 -414h113l-20 -78h-238l16 66q101 61 161.5 167.5t60.5 258.5q0 93 -45 140.5t-131 47.5q-136 0 -214 -120t-78 -302q0 -56 24.5 -110t68.5 -82
l-15 -66h-235z" />
    <glyph glyph-name="Omega" unicode="&#x2126;" horiz-adv-x="734" 
d="M-12 0l16 78h109q-27 27 -44.5 77.5t-17.5 102.5q0 219 107.5 359.5t290.5 140.5q127 0 192.5 -69t65.5 -197q0 -271 -187 -414h113l-20 -78h-238l16 66q101 61 161.5 167.5t60.5 258.5q0 93 -45 140.5t-131 47.5q-136 0 -214 -120t-78 -302q0 -56 24.5 -110t68.5 -82
l-15 -66h-235z" />
    <glyph glyph-name="pi" unicode="&#x3c0;" horiz-adv-x="613" 
d="M27 0l118 547h429l-117 -547h-86l101 469h-258l-101 -469h-86z" />
    <glyph glyph-name="endash" unicode="&#x2013;" horiz-adv-x="500" 
d="M34 328l17 78h437l-16 -78h-438z" />
    <glyph glyph-name="emdash" unicode="&#x2014;" horiz-adv-x="1000" 
d="M34 328l17 78h937l-16 -78h-938z" />
    <glyph glyph-name="quoteleft" unicode="&#x2018;" horiz-adv-x="273" 
d="M121 531l10 47l130 172h58l-104 -219h-94z" />
    <glyph glyph-name="quoteright" unicode="&#x2019;" horiz-adv-x="273" 
d="M94 531l104 219h94l-10 -47l-129 -172h-59z" />
    <glyph glyph-name="quotesinglbase" unicode="&#x201a;" horiz-adv-x="273" 
d="M-54 -125l105 219h94l-10 -47l-130 -172h-59z" />
    <glyph glyph-name="quotedblleft" unicode="&#x201c;" horiz-adv-x="461" 
d="M309 531l9 47l130 172h59l-105 -219h-93zM121 531l10 47l130 172h58l-104 -219h-94z" />
    <glyph glyph-name="quotedblright" unicode="&#x201d;" horiz-adv-x="461" 
d="M281 531l105 219h93l-9 -47l-130 -172h-59zM94 531l104 219h94l-10 -47l-129 -172h-59z" />
    <glyph glyph-name="quotedblbase" unicode="&#x201e;" horiz-adv-x="461" 
d="M134 -125l104 219h94l-10 -47l-130 -172h-58zM-54 -125l105 219h94l-10 -47l-130 -172h-59z" />
    <glyph glyph-name="dagger" unicode="&#x2020;" horiz-adv-x="516" 
d="M124 -125l126 594h-152l16 78h153l43 203h86l-43 -203h152l-17 -78h-152l-126 -594h-86z" />
    <glyph glyph-name="daggerdbl" unicode="&#x2021;" horiz-adv-x="516" 
d="M251 78l-43 -203h-86l43 203h-152l16 78h153l66 313h-152l16 78h153l43 203h86l-43 -203h153l-18 -78h-152l-66 -313h152l-17 -78h-152z" />
    <glyph glyph-name="bullet" unicode="&#x2022;" horiz-adv-x="500" 
d="M250 125q-76 0 -131.5 49.5t-55.5 138.5t55.5 138t131.5 49t132 -49t56 -138t-56 -138.5t-132 -49.5z" />
    <glyph glyph-name="ellipsis" unicode="&#x2026;" horiz-adv-x="831" 
d="M585 0l19 94h94l-19 -94h-94zM304 0l19 94h94l-20 -94h-93zM26 0l20 94h94l-20 -94h-94z" />
    <glyph glyph-name="perthousand" unicode="&#x2030;" horiz-adv-x="1320" 
d="M266 0v12l375 738h54v-12l-375 -738h-54zM194 320q-129 0 -129 127q0 72 24 140t79 118t130 50q131 0 131 -128q0 -53 -14 -105.5t-41.5 -98.5t-74 -74.5t-105.5 -28.5zM204 376q64 0 107 77.5t43 173.5q0 39 -15.5 55t-48.5 16q-64 0 -106.5 -77.5t-42.5 -173.5
q0 -38 15 -54.5t48 -16.5zM663 -4q-129 0 -129 127q0 52 14.5 105t41.5 99t73.5 75t103.5 29q130 0 130 -128q0 -53 -14 -105.5t-41 -98.5t-73.5 -74.5t-105.5 -28.5zM673 52q64 0 106.5 77.5t42.5 173.5q0 38 -15 54.5t-48 16.5q-64 0 -107 -77.5t-43 -173.5
q0 -39 15.5 -55t48.5 -16zM1071 -4q-129 0 -129 127q0 72 24 140t79 118t130 50q131 0 131 -128q0 -53 -14 -105.5t-41.5 -98.5t-74 -74.5t-105.5 -28.5zM1081 52q64 0 106.5 77.5t42.5 173.5q0 38 -15 54.5t-48 16.5q-64 0 -106.5 -77.5t-42.5 -173.5q0 -39 15 -55t48 -16z
" />
    <glyph glyph-name="guilsinglleft" unicode="&#x2039;" horiz-adv-x="336" 
d="M234 125l-172 181l13 61l249 180h8l-20 -94l-166 -117l117 -117l-21 -94h-8z" />
    <glyph glyph-name="guilsinglright" unicode="&#x203a;" horiz-adv-x="336" 
d="M15 125l20 94l165 117l-115 117l19 94h8l173 -180l-13 -61l-250 -181h-7z" />
    <glyph glyph-name="fraction" unicode="&#x2044;" horiz-adv-x="8" 
d="M-215 0v12l375 738h55v-12l-375 -738h-55z" />
    <glyph glyph-name="fraction" unicode="&#x2215;" horiz-adv-x="8" 
d="M-215 0v12l375 738h55v-12l-375 -738h-55z" />
    <glyph glyph-name="uni2070" unicode="&#x2070;" horiz-adv-x="412" 
d="M207 320q-129 0 -129 127q0 52 14.5 105t41.5 99t73.5 75t103.5 29q130 0 130 -128q0 -53 -14 -105.5t-41 -98.5t-73.5 -74.5t-105.5 -28.5zM217 376q64 0 106.5 77.5t42.5 173.5q0 39 -15 55t-48 16q-64 0 -107 -77.5t-43 -173.5q0 -38 15.5 -54.5t48.5 -16.5z" />
    <glyph glyph-name="uni2074" unicode="&#x2074;" horiz-adv-x="412" 
d="M54 421l9 45q137 152 193 284h76q-56 -132 -181 -273h137l30 120h77l-31 -120h63l-13 -56h-63l-24 -97h-77l23 97h-219z" />
    <glyph glyph-name="uni2075" unicode="&#x2075;" horiz-adv-x="412" 
d="M55 324l11 59h136q59 0 91 28.5t32 73.5q0 51 -88 51h-120l54 214h277l-11 -58h-210l-25 -95h49q74 0 112.5 -30t38.5 -82q0 -66 -52.5 -113.5t-152.5 -47.5h-142z" />
    <glyph glyph-name="uni2076" unicode="&#x2076;" horiz-adv-x="412" 
d="M208 320q-134 0 -134 104q0 20 6 41l29 119q18 75 79 120.5t162 45.5h85l-14 -58h-82q-58 0 -98.5 -28t-54.5 -85q39 18 88 18q62 0 95 -29.5t33 -77.5q0 -72 -49.5 -121t-144.5 -49zM267 538q-49 0 -98 -20l-14 -57q-6 -26 -6 -37q0 -46 70 -46q47 0 77 28t30 84
q0 48 -59 48z" />
    <glyph glyph-name="uni2077" unicode="&#x2077;" horiz-adv-x="412" 
d="M142 324l12 42q27 91 90 177.5t137 151.5h-259l14 55h348l-10 -45q-83 -67 -147.5 -154t-93.5 -180l-14 -47h-77z" />
    <glyph glyph-name="uni2078" unicode="&#x2078;" horiz-adv-x="412" 
d="M198 320q-61 0 -94.5 25.5t-33.5 74.5q0 68 90 120l17 10q-46 29 -46 79q0 60 52 93t120 33h19q56 0 89 -24t33 -68q0 -63 -82 -113l-12 -8q53 -35 53 -86q0 -59 -53 -97.5t-130 -38.5h-22zM281 503l-46 18l-19 -9q-29 -15 -49.5 -39.5t-20.5 -52.5q0 -39 68 -39h11
q42 0 72 19.5t30 55.5q0 16 -10.5 26t-35.5 21zM206 629q0 -23 36 -40l47 -21l18 10q60 35 60 85q0 35 -56 35h-21q-38 0 -61 -18t-23 -51z" />
    <glyph glyph-name="uni2079" unicode="&#x2079;" horiz-adv-x="412" 
d="M82 324l14 59h87q126 0 153 112q-37 -17 -88 -17q-62 0 -95.5 29t-33.5 77q0 71 47 121t143 50q69 0 102.5 -29.5t33.5 -80.5q0 -23 -5 -45l-27 -110q-19 -76 -76.5 -121t-158.5 -45h-96zM256 536q52 0 97 21q5 21 11 47q6 18 6 41q0 51 -68 51q-50 0 -78 -28t-28 -84
q0 -48 60 -48z" />
    <glyph glyph-name="uni2080" unicode="&#x2080;" horiz-adv-x="418" 
d="M141 -4q-129 0 -129 127q0 52 14.5 105t41.5 99t73 75t103 29q131 0 131 -128q0 -53 -14 -105.5t-41 -98.5t-73.5 -74.5t-105.5 -28.5zM150 52q64 0 107 77.5t43 173.5q0 38 -15.5 54.5t-48.5 16.5q-64 0 -106.5 -77.5t-42.5 -173.5q0 -39 15 -55t48 -16z" />
    <glyph glyph-name="uni2081" unicode="&#x2081;" horiz-adv-x="412" 
d="M125 0l90 352l-136 -43h-17l16 60l179 57h54l-109 -426h-77z" />
    <glyph glyph-name="uni2082" unicode="&#x2082;" horiz-adv-x="412" 
d="M-10 0l13 59q9 39 34 69.5t86 58.5l64 29q53 24 75.5 47.5t22.5 56.5q0 48 -78 48h-141l12 58h139q69 0 106.5 -29.5t37.5 -76.5q0 -53 -36 -89t-110 -68l-47 -20q-46 -20 -65.5 -37.5t-26.5 -46.5h247l-13 -59h-320z" />
    <glyph glyph-name="uni2083" unicode="&#x2083;" horiz-adv-x="412" 
d="M-8 0l13 59h133q64 0 94 20.5t30 65.5q0 25 -23.5 38t-62.5 13h-80l13 59h104q76 28 76 73q0 40 -75 40h-139l14 58h138q66 0 102 -24t36 -70q0 -29 -21 -57t-60 -46q53 -28 53 -84q0 -68 -50.5 -106.5t-153.5 -38.5h-141z" />
    <glyph glyph-name="uni2084" unicode="&#x2084;" horiz-adv-x="412" 
d="M-16 97l10 45q136 149 193 284h76q-54 -126 -181 -274h137l30 120h76l-30 -120h62l-12 -55h-64l-23 -97h-77l23 97h-220z" />
    <glyph glyph-name="uni2085" unicode="&#x2085;" horiz-adv-x="412" 
d="M-13 0l12 59h136q59 0 91 28.5t32 73.5q0 51 -88 51h-120l54 214h277l-12 -58h-210l-24 -96h49q74 0 112.5 -29.5t38.5 -81.5q0 -66 -52.5 -113.5t-152.5 -47.5h-143z" />
    <glyph glyph-name="uni2086" unicode="&#x2086;" horiz-adv-x="412" 
d="M146 -4q-133 0 -133 104q0 20 6 41l29 119q18 74 78.5 120t161.5 46h85l-14 -58h-82q-124 0 -153 -113q37 17 89 17q62 0 95 -29t33 -77q0 -72 -49.5 -121t-145.5 -49zM205 214q-49 0 -98 -21l-13 -56q-6 -26 -6 -37q0 -25 16.5 -35.5t52.5 -10.5q47 0 77.5 28t30.5 84
q0 48 -60 48z" />
    <glyph glyph-name="uni2087" unicode="&#x2087;" horiz-adv-x="412" 
d="M73 0l13 42q27 91 90 177.5t136 151.5h-258l13 55h349l-11 -45q-83 -67 -147 -154t-93 -180l-15 -47h-77z" />
    <glyph glyph-name="uni2088" unicode="&#x2088;" horiz-adv-x="412" 
d="M133 -4q-61 0 -94.5 25.5t-33.5 74.5q0 68 90 120l16 10q-46 30 -46 79q0 60 52 93t120 33h20q55 0 88.5 -24.5t33.5 -67.5q0 -63 -82 -113l-13 -8q54 -35 54 -86q0 -59 -53 -97.5t-131 -38.5h-21zM216 179l-46 18l-20 -10q-28 -14 -48.5 -38.5t-20.5 -52.5q0 -39 67 -39
h11q42 0 72.5 19.5t30.5 55.5q0 25 -46 47zM141 305q0 -26 36 -40l47 -21l17 10q28 16 44.5 39t16.5 46q0 35 -57 35h-20q-38 0 -61 -18t-23 -51z" />
    <glyph glyph-name="uni2089" unicode="&#x2089;" horiz-adv-x="412" 
d="M16 0l13 59h87q127 0 154 112q-41 -18 -88 -18q-62 0 -95.5 29.5t-33.5 77.5q0 71 46.5 121t142.5 50q70 0 103.5 -30t33.5 -81q0 -20 -5 -45l-27 -109q-43 -166 -236 -166h-95zM189 212q52 0 97 20l6 24t6 23q6 20 6 41q0 52 -69 52q-49 0 -77 -28.5t-28 -83.5
q0 -48 59 -48z" />
    <glyph glyph-name="Euro" unicode="&#x20ac;" horiz-adv-x="625" 
d="M147 418h-91l17 82h93q27 124 113 191t200 67h23q40 0 86 -9.5t64 -21.5l-16 -79h-8q-54 28 -135 28h-23q-72 0 -131 -43t-79 -133h291l-18 -82h-292l-18 -86h292l-18 -82h-292q-8 -40 -8 -51q0 -69 37 -97t112 -28h27q63 0 140 31h8l-15 -82q-76 -31 -151 -31h-31
q-96 0 -158 48t-62 140q0 41 7 70h-91l17 82h92z" />
    <glyph glyph-name="trademark" unicode="&#x2122;" horiz-adv-x="750" 
d="M344 344l86 406h58l77 -176l142 176h59l-86 -406h-75l55 258l-104 -125h-32l-53 117l-53 -250h-74zM125 344l74 347h-94l12 59h262l-12 -59h-94l-74 -347h-74z" />
    <glyph glyph-name="partialdiff" unicode="&#x2202;" horiz-adv-x="625" 
d="M246 -8q-87 0 -139 47t-52 133q0 141 74 219t199 78q63 0 151 -44l9 44q8 35 8 62q0 71 -45 106t-127 35h-105l15 78h106q122 0 186 -57t64 -154q0 -33 -8 -70l-51 -235q-26 -117 -98.5 -179.5t-186.5 -62.5zM262 70q66 0 112 42t63 122l26 118q-65 39 -147 39
q-84 0 -126 -59t-42 -152q0 -53 30 -81.5t84 -28.5z" />
    <glyph glyph-name="product" unicode="&#x220f;" horiz-adv-x="738" 
d="M27 0l160 750h555l-160 -750h-94l144 672h-367l-144 -672h-94z" />
    <glyph glyph-name="summation" unicode="&#x2211;" horiz-adv-x="570" 
d="M-4 0l16 78l281 297l-152 297l16 78h452l-15 -78h-348l145 -281l-4 -39l-262 -274h340l-16 -78h-453z" />
    <glyph glyph-name="minus" unicode="&#x2212;" horiz-adv-x="625" 
d="M97 328l16 78h438l-17 -78h-437z" />
    <glyph glyph-name="radical" unicode="&#x221a;" horiz-adv-x="625" 
d="M137 0l-70 539l2 8h78l54 -430l354 602h156l-17 -78h-113l-374 -641h-70z" />
    <glyph glyph-name="infinity" unicode="&#x221e;" horiz-adv-x="598" 
d="M105 188q-89 0 -89 102q0 48 16.5 94.5t53.5 81t86 34.5q35 0 57.5 -18t52.5 -68l24 -39q49 50 103.5 87.5t90.5 37.5q46 0 68 -27.5t22 -73.5q0 -48 -16.5 -95t-53.5 -81.5t-86 -34.5q-67 0 -116 82l-26 43q-121 -125 -187 -125zM443 234q42 0 71 48t29 111q0 60 -54 60
q-25 0 -73 -31.5t-92 -73.5l28 -47q38 -67 91 -67zM114 234q60 0 160 106l-26 43q-23 38 -43 54t-43 16q-39 0 -69 -43t-30 -106q0 -33 14 -51.5t37 -18.5z" />
    <glyph glyph-name="integral" unicode="&#x222b;" horiz-adv-x="344" 
d="M-145 -188l17 79h63q51 0 77.5 23.5t37.5 77.5l123 578q18 87 76 133.5t142 46.5h62l-16 -78h-71q-52 0 -78 -24t-37 -78l-123 -578q-19 -87 -73.5 -133.5t-136.5 -46.5h-63z" />
    <glyph glyph-name="approxequal" unicode="&#x2248;" horiz-adv-x="625" 
d="M106 371l16 74q22 29 58 50t74 21t103 -33.5t90 -33.5q39 0 66 16.5t53 50.5h9l-16 -75q-23 -29 -58.5 -49.5t-73.5 -20.5q-37 0 -103 33.5t-91 33.5q-63 0 -119 -67h-8zM60 152l15 75q23 29 59 49.5t74 20.5q37 0 102 -33.5t90 -33.5q39 0 66.5 16t54.5 51h7l-16 -74
q-23 -29 -58.5 -50t-73.5 -21q-37 0 -102 33.5t-91 33.5q-62 0 -120 -67h-7z" />
    <glyph glyph-name="notequal" unicode="&#x2260;" horiz-adv-x="625" 
d="M137 94l3 11l62 114h-128l17 78h154l78 141h-203l17 78h229l71 125h74l-2 -12l-64 -113h129l-16 -78h-156l-78 -141h204l-16 -78h-232l-69 -125h-74z" />
    <glyph glyph-name="lessequal" unicode="&#x2264;" horiz-adv-x="625" 
d="M479 105l-383 223l16 78l478 223h8l-18 -82l-397 -180l321 -179l-18 -83h-7zM10 -78l16 78h438l-17 -78h-437z" />
    <glyph glyph-name="greaterequal" unicode="&#x2265;" horiz-adv-x="625" 
d="M50 105l17 83l398 179l-321 180l17 82h8l382 -223l-17 -78l-476 -223h-8zM11 -78l16 78h438l-17 -78h-437z" />
    <glyph glyph-name="lozenge" unicode="&#x25ca;" horiz-adv-x="703" 
d="M285 0l-240 375l399 375l242 -375zM311 121l269 254l-161 254l-269 -254z" />
    <glyph glyph-name="dotlessj" unicode="&#xf6be;" horiz-adv-x="286" 
d="M-168 -188l17 79h39q70 0 110 38.5t57 117.5l90 422h-94l15 78h180l-103 -484q-29 -131 -96.5 -191t-191.5 -60h-23z" />
    <glyph glyph-name="commaaccent" unicode="&#xf6c3;" horiz-adv-x="164" 
d="M-102 -195l79 156h85l-11 -47l-94 -109h-59z" />
    <glyph glyph-name="a.superior" horiz-adv-x="507" 
d="M189 318q-53 0 -82 26t-29 73q0 19 14 75l10 43q50 210 289 210h137l-100 -421h-74l18 80l-42 -31q-73 -55 -141 -55zM202 378q22 0 47.5 10.5t39.5 19.5t41 28l60 41l49 209h-62q-83 0 -132.5 -35.5t-68.5 -115.5l-10 -43q-14 -48 -14 -68q0 -25 11.5 -35.5t38.5 -10.5z
" />
    <glyph glyph-name="b.superior" horiz-adv-x="507" 
d="M78 324l138 577h74l-58 -237l44 33q68 54 142 54q52 0 81 -26t29 -73q0 -20 -13 -75l-10 -42q-50 -211 -289 -211h-138zM276 634l-60 -42l-50 -207h63q84 0 133.5 35t68.5 115l10 42q13 62 13 69q0 25 -11 35t-39 10q-22 0 -47.5 -10.5t-39 -19t-41.5 -27.5z" />
    <glyph glyph-name="c.superior" horiz-adv-x="434" 
d="M239 318q-157 0 -157 118q0 22 11 66l15 69q21 89 82.5 134.5t156.5 45.5q36 0 76 -9t58 -20l-27 -109h-66l16 66q-21 15 -70 15q-63 0 -99 -27.5t-52 -95.5l-17 -69q-11 -55 -11 -58q0 -38 24.5 -53.5t73.5 -15.5q17 0 32.5 1.5t26 3.5t23.5 6t18.5 6t17 7t13.5 6h7
l-10 -56q-72 -31 -142 -31z" />
    <glyph glyph-name="d.superior" horiz-adv-x="507" 
d="M189 318q-53 0 -82 26t-29 73q0 19 14 75l10 43q50 210 289 210h63l37 156h74l-137 -577h-74l18 80l-42 -31q-73 -55 -141 -55zM202 378q22 0 47.5 10.5t39.5 19.5t41 28l60 41l49 209h-62q-83 0 -132.5 -35.5t-68.5 -115.5l-10 -43q-14 -48 -14 -68q0 -25 11.5 -35.5
t38.5 -10.5z" />
    <glyph glyph-name="e.superior" horiz-adv-x="450" 
d="M236 318q-158 0 -158 118q0 7 11 66l16 69q21 89 82.5 134.5t156.5 45.5q61 0 99 -26t38 -76q0 -68 -52 -100t-139 -32h-125l-3 -15q-10 -50 -10 -58q0 -38 24.5 -53.5t73.5 -15.5q65 0 141 30h6l-9 -56q-72 -31 -152 -31zM179 571l-1 -4h119q110 0 110 76q0 51 -77 51
q-62 0 -98 -27.5t-53 -95.5z" />
    <glyph glyph-name="f.superior" horiz-adv-x="296" 
d="M102 686l13 59h80l4 16q17 68 65 104t124 36h56l-13 -59h-57q-82 0 -101 -81l-4 -16h112l-14 -59h-112l-86 -362h-73l86 362h-80z" />
    <glyph glyph-name="g.superior" horiz-adv-x="501" 
d="M58 179l18 58h77q94 0 141.5 31t62.5 98l8 31q-6 -2 -16.5 -7.5t-14.5 -7.5q-72 -33 -133 -33q-51 0 -85 25t-34 79q0 4 7 49l11 42q24 100 91.5 150.5t172.5 50.5h157l-85 -363q-28 -115 -95.5 -159t-207.5 -44h-75zM217 408q61 0 163 51l54 227h-86q-75 0 -117 -36
t-58 -106l-10 -42q-7 -30 -7 -39q0 -31 13.5 -43t47.5 -12z" />
    <glyph glyph-name="h.superior" horiz-adv-x="527" 
d="M374 324l67 283q6 30 6 39q0 25 -11 35t-39 10q-42 0 -137 -66l-43 -29l-65 -272h-74l138 577h74l-56 -234l42 30q78 54 142 54q48 0 75.5 -22t27.5 -65q0 -33 -6 -57l-68 -283h-73z" />
    <glyph glyph-name="i.superior" horiz-adv-x="235" 
d="M202 829l18 72h73l-17 -72h-74zM82 324l87 362h-81l14 59h154l-101 -421h-73z" />
    <glyph glyph-name="j.superior" horiz-adv-x="246" 
d="M213 829l16 72h75l-18 -72h-73zM-90 179l15 61h33q115 0 144 120l77 326h-80l12 59h156l-89 -372q-24 -101 -82 -147.5t-165 -46.5h-21z" />
    <glyph glyph-name="k.superior" horiz-adv-x="457" 
d="M78 324l137 577h75l-76 -318h46l191 162h84v-6l-222 -183l131 -226v-6h-81l-117 198h-47l-47 -198h-74z" />
    <glyph glyph-name="l.superior" horiz-adv-x="231" 
d="M78 324l125 518h-81l14 59h154l-138 -577h-74z" />
    <glyph glyph-name="m.superior" horiz-adv-x="823" 
d="M78 324l101 421h74l-19 -78l42 30q78 54 142 54q48 0 75.5 -22t27.5 -65h4l47 33q77 54 141 54q49 0 76.5 -22t27.5 -65q0 -27 -6 -57l-68 -283h-73l66 283q7 26 7 39q0 25 -11.5 35t-38.5 10q-42 0 -137 -66l-44 -30l-65 -271h-73l67 283q6 30 6 39q0 25 -11 35t-39 10
q-42 0 -137 -66l-43 -29l-65 -272h-74z" />
    <glyph glyph-name="n.superior" horiz-adv-x="527" 
d="M78 324l101 421h74l-19 -78l42 30q78 54 142 54q48 0 75.5 -22t27.5 -65q0 -33 -6 -57l-68 -283h-73l67 283q6 30 6 39q0 25 -11 35t-39 10q-42 0 -137 -66l-43 -29l-65 -272h-74z" />
    <glyph glyph-name="o.superior" horiz-adv-x="511" 
d="M251 323q-74 0 -119 37.5t-45 104.5q0 121 74 206t194 85q166 0 166 -141q0 -117 -73.5 -204.5t-196.5 -87.5zM265 380q77 0 129 69.5t52 153.5q0 52 -24 74t-80 22q-79 0 -130 -68t-51 -154q0 -50 25.5 -73.5t78.5 -23.5z" />
    <glyph glyph-name="p.superior" horiz-adv-x="507" 
d="M44 180l134 565h74l-20 -80l43 32q70 54 143 54q52 0 80.5 -26t28.5 -73q0 -30 -13 -75l-10 -42q-50 -211 -289 -211h-63l-34 -144h-74zM275 634l-59 -42l-50 -207h63q83 0 132.5 35t68.5 115l10 42q14 67 14 69q0 25 -11.5 35t-39.5 10q-22 0 -47.5 -10.5t-39 -19
t-41.5 -27.5z" />
    <glyph glyph-name="q.superior" horiz-adv-x="507" 
d="M320 179l54 226l-44 -32q-73 -55 -141 -55q-53 0 -82 26t-29 73q0 19 14 75l10 43q50 210 289 210h137l-134 -566h-74zM330 436l61 42l48 208h-62q-83 0 -132.5 -35.5t-68.5 -115.5l-10 -43q-14 -48 -14 -68q0 -25 11.5 -35.5t38.5 -10.5q22 0 47.5 10.5t39.5 19.5t41 28
z" />
    <glyph glyph-name="r.superior" horiz-adv-x="343" 
d="M78 324l101 421h74l-22 -91l8 8q42 41 78 62t79 21h28l-17 -72h-30q-57 0 -96 -30l-64 -47l-65 -272h-74z" />
    <glyph glyph-name="s.superior" horiz-adv-x="423" 
d="M202 318q-83 0 -138 15l14 58h6q62 -16 129 -16q127 0 127 72q0 17 -11.5 28.5t-19.5 14.5t-26 9l-70 21q-30 9 -48.5 17.5t-34 31t-15.5 56.5q0 61 59 93.5t139 32.5q67 0 131 -12l-13 -56h-7q-73 11 -117 11q-50 0 -84 -15.5t-34 -50.5q0 -21 12 -30.5t38 -17.5l71 -21
q49 -15 76.5 -38.5t27.5 -70.5q0 -67 -61 -99.5t-151 -32.5z" />
    <glyph glyph-name="t.superior" horiz-adv-x="346" 
d="M108 686l14 59h80l24 97h74l-24 -97h124l-12 -59h-126l-48 -206q-8 -28 -8 -42q0 -32 18 -44t66 -12h47l-14 -58h-61q-63 0 -96.5 27.5t-33.5 81.5q0 17 7 47l49 206h-80z" />
    <glyph glyph-name="u.superior" horiz-adv-x="527" 
d="M206 318q-49 0 -76.5 22.5t-27.5 64.5q0 27 6 58l68 282h74l-67 -282q-7 -28 -7 -39q0 -25 11 -35.5t39 -10.5q44 0 137 66l43 30l66 271h73l-101 -421h-74l19 77l-42 -28q-76 -55 -141 -55z" />
    <glyph glyph-name="v.superior" horiz-adv-x="450" 
d="M179 324q-26 35 -48.5 98t-22.5 134q0 47 10 90l24 99h74l-24 -99q-9 -40 -9 -90q0 -56 15 -107.5t34 -75.5q45 29 98.5 110t73.5 166l24 96h74l-24 -96q-28 -115 -89.5 -195.5t-128.5 -129.5h-81z" />
    <glyph glyph-name="w.superior" horiz-adv-x="655" 
d="M160 324q-26 37 -40 91.5t-14 106.5q0 53 14 115l24 108h74l-24 -108q-13 -59 -13 -115q0 -103 33 -149q44 38 87 109.5t61 154.5l24 108h74l-24 -108q-13 -59 -13 -115q0 -101 33 -149q44 39 85.5 109.5t62.5 154.5l27 108h74l-27 -108q-24 -100 -81.5 -188.5
t-107.5 -124.5h-80q-51 91 -51 142q-13 -30 -50 -72.5t-67 -69.5h-81z" />
    <glyph glyph-name="x.superior" horiz-adv-x="413" 
d="M11 324v6l200 204l-103 205v6h78l78 -157l154 157h80v-6l-205 -210l101 -199v-6h-78l-76 152l-147 -152h-82z" />
    <glyph glyph-name="y.superior" horiz-adv-x="521" 
d="M77 179l19 58h76q94 0 141.5 31t63.5 98l13 54q-3 -2 -11 -5.5t-13 -6.5q-82 -35 -143 -35q-112 0 -112 105q0 8 7 38t7 31l47 198h74l-47 -198q-13 -52 -13 -67q0 -28 13 -37.5t47 -9.5q55 0 123 28q31 14 34 16l65 268h74l-88 -363q-27 -115 -94 -159t-208 -44h-75z
" />
    <glyph glyph-name="z.superior" horiz-adv-x="437" 
d="M34 324l14 54q75 55 174 146t161 162h-251l14 59h335l-13 -54q-37 -56 -149 -160t-176 -146h261l-13 -61h-357z" />
    <glyph glyph-name="zero.numerator" horiz-adv-x="449" 
d="M219 320q-129 0 -129 127q0 52 14.5 105t41.5 99t73 75t103 29q131 0 131 -128q0 -53 -14 -105.5t-41 -98.5t-73.5 -74.5t-105.5 -28.5zM229 376q63 0 106 77.5t43 173.5q0 39 -15.5 55t-48.5 16q-63 0 -106 -77.5t-43 -173.5q0 -38 15.5 -54.5t48.5 -16.5z" />
    <glyph glyph-name="one.numerator" horiz-adv-x="508" 
d="M234 324l90 352l-136 -43h-16l15 60l179 57h54l-108 -426h-78z" />
    <glyph glyph-name="two.numerator" horiz-adv-x="508" 
d="M105 324l13 59q9 39 34 69.5t86 58.5l64 29q53 24 75.5 48t22.5 57q0 47 -78 47h-140l11 58h139q69 0 107 -29.5t38 -75.5q0 -54 -36 -90t-111 -68l-47 -20q-45 -20 -65 -38t-27 -46h247l-13 -59h-320z" />
    <glyph glyph-name="three.numerator" horiz-adv-x="508" 
d="M110 324l13 59h133q64 0 94 20.5t30 65.5q0 25 -23.5 38.5t-62.5 13.5h-80l14 58h103q76 29 76 73q0 40 -75 40h-139l14 58h138q138 0 138 -94q0 -29 -21 -57t-60 -45q53 -29 53 -85q0 -69 -50 -107t-154 -38h-141z" />
    <glyph glyph-name="four.numerator" horiz-adv-x="508" 
d="M101 421l9 45q137 152 193 284h76q-56 -132 -181 -273h137l30 120h76l-30 -120h63l-13 -56h-64l-23 -97h-77l23 97h-219z" />
    <glyph glyph-name="five.numerator" horiz-adv-x="508" 
d="M102 324l11 59h136q59 0 91 28.5t32 73.5q0 51 -88 51h-120l54 214h277l-12 -58h-210l-24 -95h49q74 0 112.5 -30t38.5 -82q0 -66 -52.5 -113.5t-152.5 -47.5h-142z" />
    <glyph glyph-name="six.numerator" horiz-adv-x="508" 
d="M255 320q-134 0 -134 104q0 20 6 41l29 119q18 75 78.5 120.5t161.5 45.5h85l-13 -58h-82q-125 0 -154 -113q41 18 89 18q62 0 95 -29.5t33 -77.5q0 -72 -49.5 -121t-144.5 -49zM313 538q-48 0 -97 -20l-14 -57q-6 -26 -6 -37q0 -46 70 -46q47 0 77 28t30 84q0 48 -60 48
z" />
    <glyph glyph-name="seven.numerator" horiz-adv-x="508" 
d="M188 324l13 42q27 91 90 177.5t137 151.5h-259l14 55h348l-10 -45q-83 -67 -147.5 -154t-93.5 -180l-14 -47h-78z" />
    <glyph glyph-name="eight.numerator" horiz-adv-x="508" 
d="M245 320q-61 0 -94.5 25.5t-33.5 74.5q0 68 90 120l17 10q-46 29 -46 79q0 60 52 93t120 33h19q56 0 89 -24t33 -68q0 -63 -82 -113l-13 -8q54 -34 54 -86q0 -59 -53 -97.5t-130 -38.5h-22zM328 503l-46 18l-19 -9q-29 -15 -49.5 -39.5t-20.5 -52.5q0 -39 68 -39h10
q42 0 72.5 19.5t30.5 55.5q0 15 -11 25t-35 22zM253 629q0 -24 36 -40l47 -21l18 10q60 35 60 85q0 35 -57 35h-20q-38 0 -61 -18t-23 -51z" />
    <glyph glyph-name="nine.numerator" horiz-adv-x="508" 
d="M129 324l14 59h86q127 0 154 112q-39 -17 -88 -17q-62 0 -95.5 29t-33.5 77q0 71 47 121t142 50q70 0 103.5 -29.5t33.5 -80.5q0 -23 -5 -45l-27 -110q-19 -76 -76.5 -121t-158.5 -45h-96zM303 536q52 0 96 21q2 7 12 47q6 18 6 41q0 51 -68 51q-49 0 -77.5 -28
t-28.5 -84q0 -48 60 -48z" />
    <glyph glyph-name="zero.denominator" horiz-adv-x="508" 
d="M184 -4q-129 0 -129 127q0 52 14.5 105t41.5 99t73 75t103 29q131 0 131 -128q0 -53 -14 -105.5t-41 -98.5t-73.5 -74.5t-105.5 -28.5zM193 52q64 0 107 77.5t43 173.5q0 38 -15.5 54.5t-48.5 16.5q-64 0 -106.5 -77.5t-42.5 -173.5q0 -39 15 -55t48 -16z" />
    <glyph glyph-name="one.denominator" horiz-adv-x="508" 
d="M172 0l90 352l-136 -43h-17l16 60l179 57h53l-108 -426h-77z" />
    <glyph glyph-name="two.denominator" horiz-adv-x="508" 
d="M37 0l13 59q9 39 34 69.5t86 58.5l63 29q54 24 76.5 47.5t22.5 56.5q0 48 -78 48h-141l12 58h139q69 0 106.5 -29.5t37.5 -76.5q0 -53 -36 -89t-110 -68l-47 -20q-46 -20 -65.5 -37.5t-26.5 -46.5h247l-14 -59h-319z" />
    <glyph glyph-name="three.denominator" horiz-adv-x="508" 
d="M39 0l13 59h133q64 0 94 20.5t30 65.5q0 25 -24 38t-62 13h-80l13 59h104q76 28 76 73q0 40 -75 40h-139l14 58h137q67 0 103 -24t36 -70q0 -29 -21 -57t-60 -46q53 -28 53 -84q0 -68 -50.5 -106.5t-153.5 -38.5h-141z" />
    <glyph glyph-name="four.denominator" horiz-adv-x="508" 
d="M31 97l10 45q134 147 192 284h77q-54 -126 -181 -274h137l30 120h76l-30 -120h62l-12 -55h-64l-23 -97h-77l23 97h-220z" />
    <glyph glyph-name="five.denominator" horiz-adv-x="508" 
d="M30 0l12 59h136q59 0 91 28.5t32 73.5q0 51 -88 51h-120l53 214h278l-12 -58h-210l-24 -96h49q74 0 112.5 -29.5t38.5 -81.5q0 -66 -52.5 -113.5t-152.5 -47.5h-143z" />
    <glyph glyph-name="six.denominator" horiz-adv-x="508" 
d="M189 -4q-133 0 -133 104q0 20 6 41l29 119q18 74 78.5 120t161.5 46h85l-14 -58h-82q-124 0 -153 -113q37 17 89 17q62 0 95 -29t33 -77q0 -72 -49.5 -121t-145.5 -49zM248 214q-49 0 -98 -21l-13 -56q-6 -26 -6 -37q0 -25 16.5 -35.5t52.5 -10.5q47 0 77.5 28t30.5 84
q0 48 -60 48z" />
    <glyph glyph-name="seven.denominator" horiz-adv-x="508" 
d="M120 0l13 42q27 91 89.5 178t136.5 151h-258l13 55h349l-11 -45q-83 -67 -147 -154t-93 -180l-15 -47h-77z" />
    <glyph glyph-name="eight.denominator" horiz-adv-x="508" 
d="M176 -4q-61 0 -94.5 25.5t-33.5 74.5q0 68 90 120l16 10q-46 30 -46 79q0 60 52 93t120 33h20q55 0 88.5 -24.5t33.5 -67.5q0 -63 -82 -113l-13 -8q54 -35 54 -86q0 -59 -53 -97.5t-131 -38.5h-21zM259 179l-46 18l-20 -10q-28 -14 -48.5 -38.5t-20.5 -52.5q0 -39 67 -39
h11q42 0 72.5 19.5t30.5 55.5q0 25 -46 47zM184 305q0 -26 36 -40l47 -21l17 10q28 16 44.5 39t16.5 46q0 35 -57 35h-20q-38 0 -61 -18t-23 -51z" />
    <glyph glyph-name="nine.denominator" horiz-adv-x="508" 
d="M51 0l13 59h87q127 0 154 112q-41 -18 -88 -18q-62 0 -95.5 29.5t-33.5 77.5q0 71 47 121t142 50q70 0 103.5 -30t33.5 -81q0 -20 -5 -45l-27 -109q-43 -166 -236 -166h-95zM225 212q51 0 96 20q2 8 6 23.5t6 23.5q6 20 6 41q0 52 -68 52q-49 0 -77.5 -28t-28.5 -84
q0 -48 60 -48z" />
    <glyph glyph-name="Gcedilla" horiz-adv-x="680" 
d="M319 -8q-268 0 -268 242q0 47 11 94l19 94q70 336 410 336q118 0 193 -43l-17 -78h-8q-76 43 -183 43q-243 0 -300 -258l-21 -94q-11 -51 -11 -94q0 -164 187 -164h47q50 0 113 22l42 197h-151l15 78h243l-71 -332q-35 -15 -98 -29t-109 -14h-43zM207 -195l79 156h85
l-11 -47l-94 -109h-59z" />
    <glyph glyph-name="gcedilla" horiz-adv-x="582" 
d="M4 -188l20 75h90q110 0 165 40t74 128l8 41q-7 -5 -37 -21q-86 -44 -154 -44q-60 0 -99 33t-39 104q0 22 8 62l12 55q28 131 107 196.5t201 65.5h183l-101 -473q-32 -149 -109.5 -205.5t-241.5 -56.5h-87zM188 109q73 0 190 66l63 294h-100q-87 0 -135.5 -47t-67.5 -137
l-12 -55q-8 -40 -8 -50q0 -40 16 -55.5t54 -15.5zM463 750l-78 -156h-86l12 47l94 109h58z" />
    <glyph glyph-name="Kcedilla" horiz-adv-x="637" 
d="M27 0l160 750h94l-68 -320h45l347 320h102v-8l-383 -347l242 -387v-8h-101l-219 352h-50l-75 -352h-94zM146 -195l79 156h85l-11 -47l-94 -109h-59z" />
    <glyph glyph-name="kcedilla" horiz-adv-x="531" 
d="M27 0l160 750h86l-88 -414h53l223 211h98v-8l-258 -238l152 -293v-8h-94l-136 258h-55l-55 -258h-86zM95 -195l79 156h85l-11 -47l-94 -109h-59z" />
    <glyph glyph-name="Lcedilla" horiz-adv-x="539" 
d="M227 0q-164 0 -164 137q0 31 7 66l118 547h93l-117 -547q-8 -40 -8 -58q0 -37 20 -52t62 -15h235l-16 -78h-230zM132 -195l79 156h85l-11 -47l-94 -109h-59z" />
    <glyph glyph-name="lcedilla" horiz-adv-x="270" 
d="M27 0l146 672h-95l16 78h179l-160 -750h-86zM-58 -195l79 156h85l-11 -47l-94 -109h-59z" />
    <glyph glyph-name="Ncedilla" horiz-adv-x="750" 
d="M27 0l160 750h67l281 -566l121 566h94l-160 -750h-67l-281 566l-121 -566h-94zM191 -195l79 156h85l-11 -47l-94 -109h-59z" />
    <glyph glyph-name="ncedilla" horiz-adv-x="613" 
d="M27 0l118 547h85l-21 -102l49 39q50 39 86.5 55t77.5 16q57 0 89 -29.5t32 -84.5q0 -38 -8 -74l-78 -367h-86l78 367q8 40 8 51q0 32 -13.5 45.5t-45.5 13.5q-23 0 -56.5 -17t-50 -29t-53.5 -40l-50 -38l-75 -353h-86zM119 -195l79 156h85l-11 -47l-94 -109h-59z" />
    <glyph glyph-name="Rcedilla" horiz-adv-x="652" 
d="M27 0l160 750h231q96 0 145.5 -46.5t49.5 -133.5q0 -92 -50 -160t-137 -101q39 -49 71.5 -139t41.5 -170h-94q-12 85 -41.5 163t-71.5 122h-150l-61 -285h-94zM395 672h-130l-67 -309h126q82 0 139 57.5t57 149.5q0 102 -125 102zM146 -195l79 156h85l-11 -47l-94 -109
h-59z" />
    <glyph glyph-name="rcedilla" horiz-adv-x="398" 
d="M27 0l118 547h85l-25 -119l10 10q49 54 90.5 81.5t91.5 27.5h33l-20 -94h-35q-65 0 -111 -39l-76 -61l-75 -353h-86zM-59 -195l79 156h85l-11 -47l-94 -109h-59z" />
    <glyph glyph-name="caronquoteleft" horiz-adv-x="164" 
d="M234 750l-78 -156h-86l12 47l94 109h58z" />
    <glyph glyph-name="caronquoteright" horiz-adv-x="164" 
d="M70 594l78 156h86l-11 -47l-94 -109h-59z" />
    </font>
</defs>
</svg>
